M48
;Layer_Color=9474304
;FILE_FORMAT=2:5
INCH,TZ
;TYPE=PLATED
T1F00S00C0.01181
T2F00S00C0.03543
T3F00S00C0.03937
T4F00S00C0.04724
;TYPE=NON_PLATED
T5F00S00C0.12598
%
T01
X29331Y100787
X57087Y94784
X73327Y94193
X72835Y87598
X68602Y76870
X67323Y102559
X72786Y115354
X73327Y119980
X62205Y124016
X57776Y125984
Y133957
X76968Y139075
X80610Y139961
X93307Y139665
X94587Y63287
X90847Y53347
X93504Y46358
X119488Y39272
X128150Y46752
X125591Y63287
X116063Y58661
X111653Y70472
X110925Y86516
X104429Y87795
X104232Y96161
X107579Y116929
X105118Y122343
X103150Y125591
X115945Y118996
X120820Y114124
X131375Y110775
X142618Y111221
X142815Y115551
X143012Y120079
X129134Y130118
X127629Y134055
X130512Y137303
X133465Y140354
X156595Y139567
X157185Y134055
X162809Y132298
X163091Y136713
X161516Y143405
X180807Y123631
X186024Y120571
X187106Y126083
X192323Y91929
Y85827
X190748Y73819
X183465Y73327
X183465Y58268
X188681Y54429
X195866Y51181
X201772Y52658
X202756Y64961
X210531Y59941
X215846Y60925
X217815Y75984
X214567Y81693
Y85630
X218504
X224606
X228543
Y81693
X208169Y78248
X206693Y83858
Y89961
X210236Y45079
X216535Y33465
Y27559
Y21654
Y15748
Y9843
X189961Y45079
X154331Y39961
X146968Y58661
X142559Y70472
X141535Y88090
X136319Y88583
X230709Y120866
X238189Y138878
X237894Y143307
X248622Y70374
X248917Y64367
Y58462
Y52556
X248721Y46651
X248917Y40745
X254429Y75886
X263277Y65155
Y53344
X283920Y66729
X297008Y74162
X295938Y82504
X298327Y48226
X315256Y41437
X367431Y39675
X369980Y42224
X364871Y37115
X396547Y53240
X400484
X404421
X408358
X406890Y78150
X389370Y74803
X392618Y105512
X399213Y107181
X378445Y105610
X371752Y106693
X370177Y95571
X351378Y93996
X355020Y107185
X346457Y116929
X342421Y119193
X348524Y123819
X347441Y129331
X349213Y133169
X343799Y132579
X356201Y135827
X362697Y132579
X363681Y125000
X370374Y136122
X377067
X380610Y136122
X387992Y132087
X393110Y132870
X391634Y129326
X392717Y123228
X386910Y118012
X378051Y120866
X407874Y124996
X406004Y131398
X400295Y137795
X310433Y121161
X276279Y113973
X260531Y110037
X414173Y108268
X424016Y105118
X424894Y93988
X420957
X417020
X418988Y91035
X422925
X426862
X415051
X428642Y79528
X433268Y76772
X454528Y78150
X462689Y91035
X466626
X470563
X474500
X472532Y93988
X468595
X464657
X465551Y105512
X456693Y104429
X458071Y110925
X443110Y107185
X433071Y118110
X435630Y122638
X435532Y129331
X437303Y133169
X431890Y132333
X425098Y135925
X420866Y135335
X415158Y137894
X423228Y121846
X451968Y124409
X449803Y132874
X444882Y137795
X463583Y134843
X469193Y137598
X480315Y131890
X480610Y128248
X481791Y123130
X475345Y119144
X467126Y121850
X497047Y125000
X494095Y132874
X489173Y135827
X508858Y134843
X509842Y130905
X511417Y121752
X511909Y105118
X504134Y106595
X487402Y107087
X511902Y93988
X515839
X519776
X517807Y91035
X521744
X513870
X509933
X501772Y78150
X524016Y78347
X523327Y53937
X511114Y53240
X507177
X503240
X499303
X495366
X491429
X492520Y39370
X499606Y38583
X495276Y14567
X483563Y11713
X468898Y14961
X463870Y53240
X459933
X455996
X452059
X448122
X444185
X433957Y42224
X415846Y37008
X416232Y53240
X412295
X417028Y56890
X475984Y53740
X476181Y78740
X481595Y74508
X483169Y146161
X493602Y150000
X478839Y161319
X469587Y144291
X449508Y150000
X438878Y146260
X425689Y144287
X434547Y161417
X514764Y144685
X405610Y149996
X394980Y146255
X381496Y144291
X361417Y150000
X350787Y146260
X346457Y161417
X310630Y160039
Y153150
X309252Y174803
X301771Y175664
X317421Y175591
X318504Y192028
X317519Y196063
X317815Y205906
X299803Y193898
X293602Y184557
X286614Y185039
X275590Y193701
X259153Y194685
X261811Y205709
X262795Y182086
X266535Y183563
X272145Y154606
X282382Y153150
X390650Y161413
X251969Y159153
X248031Y165354
X246063Y171161
X251870Y183071
X241142Y194882
X230315Y196850
X230315Y179626
X245866Y206004
X200787Y210630
Y213583
X197835
Y210630
X203740Y223543
X203740Y227480
X201772Y230433
X197835
X193898
X188976
X179134Y228346
X171260Y220472
X179134Y212598
X171260Y204724
X155512
X163386Y212598
X155512Y220472
X147638Y212598
Y228346
X163386Y228346
Y196850
X147638
X146752Y187303
X150591Y188189
X159252Y184744
X160039Y170079
X144390Y171555
X146949Y176969
X132185Y187106
X135039Y191437
X119685Y189370
X110894Y182910
X123721Y168996
X131791Y164370
X99902Y165157
X106201Y147539
X165157Y147047
X166339Y156791
X177868Y145361
X181761Y148849
X186707Y153450
X193996Y159941
X176906Y173358
X179134Y196850
X114521Y209842
X114226Y215748
X114469Y224410
X113325Y231988
X242126Y148425
X241975Y144632
X96063Y159252
X84744Y165650
X85138Y172539
X83563Y148819
X79232Y153051
X44980Y170669
X35925
X31791Y177559
X30118Y162697
X33095Y213480
X32603Y219386
X32702Y226472
X32210Y232575
T02
X164370Y41024
Y51024
Y61024
Y71024
Y81024
Y91024
T03
X29921Y14173
X41732
X109153Y13088
Y24899
X120965
Y13088
X132776
Y24899
X144587
X156398
Y13088
X144587
X195473Y13780
X207283
Y25591
X195473
X249508Y25391
Y13580
X261319
X273130
Y25391
X261319
X284941
X296752
Y13580
X284941
X368701Y12598
X380512
Y24409
X368701
X392323
X404134
Y12598
X392323
X415945
X427756
X439567
Y24409
X427756
X415945
X444685Y158031
Y168032
X488976Y167933
Y157933
X400787Y158027
Y168027
X356594Y168032
Y158031
X232677Y211417
X220866
Y223228
X232677
X79527Y222835
Y211024
X67716
Y222835
T04
X444685Y198031
Y228031
X488976Y227933
Y197933
X400787Y198027
Y228027
X356594Y228031
Y198031
T05
X78642Y15650
X326673
X529429
X529528Y220472
X273622
X17325
M30
