G04*
G04 #@! TF.GenerationSoftware,Altium Limited,Altium Designer,22.0.2 (36)*
G04*
G04 Layer_Color=32768*
%FSLAX25Y25*%
%MOIN*%
G70*
G04*
G04 #@! TF.SameCoordinates,0AB75E79-5423-4657-AEB5-33C9AD2D53C2*
G04*
G04*
G04 #@! TF.FilePolarity,Positive*
G04*
G01*
G75*
%ADD92C,0.00197*%
D92*
X379429Y272185D02*
Y304114D01*
X387303D01*
Y320472D01*
X418012D01*
Y255827D02*
Y320472D01*
X387303Y255827D02*
X418012D01*
X387303D02*
Y272185D01*
X379429D02*
X387303D01*
X33957Y200768D02*
Y232697D01*
X26083Y200768D02*
X33957D01*
X26083Y184409D02*
Y200768D01*
X-4626Y184409D02*
X26083D01*
X-4626D02*
Y249055D01*
X26083D01*
Y232697D02*
Y249055D01*
Y232697D02*
X33957D01*
X231614Y209370D02*
Y265827D01*
X180354D02*
X231614D01*
X180354Y209370D02*
Y265827D01*
Y209370D02*
X231614D01*
X26083Y166063D02*
X33957D01*
X26083D02*
Y182421D01*
X-4626Y182421D02*
X26083Y182421D01*
X-4626Y121713D02*
Y182421D01*
Y121713D02*
X26083Y121713D01*
Y138071D01*
X33957D01*
Y166063D01*
X379429Y138327D02*
Y166319D01*
X387303D01*
Y182677D01*
X418012Y182677D01*
Y121968D02*
Y182677D01*
X387303Y121968D02*
X418012Y121968D01*
X387303Y121968D02*
Y138327D01*
X379429D02*
X387303D01*
X326004Y33886D02*
X353996D01*
Y26012D02*
Y33886D01*
Y26012D02*
X370354D01*
Y-4697D02*
Y26012D01*
X309646Y-4697D02*
X370354D01*
X309646D02*
Y26012D01*
X326004D01*
Y33886D01*
X120689D02*
X148681D01*
Y26012D02*
Y33886D01*
Y26012D02*
X165039D01*
Y-4697D02*
Y26012D01*
X104331Y-4697D02*
X165039D01*
X104331D02*
Y26012D01*
X120689D01*
Y33886D01*
X33957Y347787D02*
Y375779D01*
X26083Y347787D02*
X33957D01*
X26083Y331429D02*
Y347787D01*
X-4626Y331429D02*
X26083D01*
X-4626D02*
Y392138D01*
X26083D01*
Y375779D02*
Y392138D01*
Y375779D02*
X33957D01*
X379429Y537409D02*
X387303D01*
Y521051D02*
Y537409D01*
Y521051D02*
X418012D01*
Y581760D01*
X387303D02*
X418012D01*
X387303Y565402D02*
Y581760D01*
X379429Y565402D02*
X387303D01*
X379429Y537409D02*
Y565402D01*
Y391445D02*
X387303D01*
Y375087D02*
Y391445D01*
Y375087D02*
X418012D01*
Y435795D01*
X387303D02*
X418012D01*
X387303Y419437D02*
Y435795D01*
X379429Y419437D02*
X387303D01*
X379429Y391445D02*
Y419437D01*
X26083Y517933D02*
X33957D01*
X26083D02*
Y534291D01*
X-4626D02*
X26083D01*
X-4626Y473583D02*
Y534291D01*
Y473583D02*
X26083D01*
Y489941D01*
X33957D01*
Y517933D01*
M02*
