G04*
G04 #@! TF.GenerationSoftware,Altium Limited,Altium Designer,22.0.2 (36)*
G04*
G04 Layer_Color=8388736*
%FSLAX25Y25*%
%MOIN*%
G70*
G04*
G04 #@! TF.SameCoordinates,96C594F5-09A6-44E4-9295-8D84F0ECB15E*
G04*
G04*
G04 #@! TF.FilePolarity,Positive*
G04*
G01*
G75*
%ADD12C,0.00394*%
D12*
X108024Y469713D02*
G03*
X108024Y469713I-1969J0D01*
G01*
X132098Y110949D02*
G03*
X132098Y110949I-1969J0D01*
G01*
X309299Y443476D02*
G03*
X309299Y443476I-1969J0D01*
G01*
X43799Y70689D02*
X68799D01*
X43799Y57854D02*
Y70689D01*
X68799Y57854D02*
Y70689D01*
X43799Y57854D02*
X68799D01*
X10236Y70689D02*
X35236D01*
X10236D02*
X10236Y57854D01*
X35236Y57854D02*
Y70689D01*
X10236Y57854D02*
X35236Y57854D01*
X77362Y57854D02*
X102362D01*
Y70689D01*
X77362Y57854D02*
Y70689D01*
X102362D01*
X68563Y46811D02*
Y52795D01*
X56043Y46811D02*
Y52795D01*
Y46811D02*
X68563D01*
X56043Y52795D02*
X68563D01*
X388287Y248917D02*
X406043D01*
Y181457D02*
Y184547D01*
X417028Y181457D02*
Y252008D01*
X406043Y248917D02*
Y252008D01*
X388287Y184547D02*
Y248917D01*
X409547Y181457D02*
Y252008D01*
X417028D01*
X406043Y181457D02*
X409547D01*
X417028D01*
X406043Y252008D02*
X409547D01*
X388287Y184547D02*
X406043D01*
X7343Y255965D02*
X25098D01*
X7343Y320335D02*
Y323425D01*
X-3642Y252874D02*
Y323425D01*
X7343Y252874D02*
Y255965D01*
X25098D02*
Y320335D01*
X3839Y252874D02*
Y323425D01*
X-3642Y252874D02*
X3839D01*
Y323425D02*
X7343D01*
X-3642D02*
X3839D01*
Y252874D02*
X7343D01*
Y320335D02*
X25098D01*
X232283Y397716D02*
X262402D01*
Y362677D02*
Y397716D01*
X232283Y362677D02*
X262402D01*
X232283D02*
Y397716D01*
X102512Y421681D02*
X124559D01*
X102512Y473256D02*
X124559D01*
Y421681D02*
Y473256D01*
X102512Y421681D02*
Y473256D01*
X122638Y188228D02*
X157677D01*
Y218347D01*
X122638D02*
X157677D01*
X122638Y188228D02*
Y218347D01*
X249468Y356791D02*
Y358957D01*
X245335D02*
X249468D01*
X245335Y356791D02*
X249468D01*
X245335D02*
Y358957D01*
X123524Y112106D02*
Y114272D01*
X119390D02*
X123524D01*
X119390Y112106D02*
X123524D01*
X119390D02*
Y114272D01*
X147677Y362677D02*
X147677Y397716D01*
X147677Y362677D02*
X177795D01*
X177795Y397716D01*
X147677D02*
X177795D01*
X161614Y205906D02*
X163779D01*
Y210039D01*
X161614Y205906D02*
Y210039D01*
X163779D01*
X253445Y356791D02*
Y358957D01*
Y356791D02*
X257579D01*
X253445Y358957D02*
X257579D01*
Y356791D02*
Y358957D01*
X165354Y356693D02*
Y358858D01*
Y356693D02*
X169488D01*
X165354Y358858D02*
X169488D01*
Y356693D02*
Y358858D01*
X166437Y401378D02*
Y403543D01*
X162303D02*
X166437D01*
X162303Y401378D02*
X166437D01*
X162303D02*
Y403543D01*
X24126Y83713D02*
Y85878D01*
Y83713D02*
X28260D01*
X24126Y85878D02*
X28260D01*
Y83713D02*
Y85878D01*
X51783Y88535D02*
X53949D01*
X51783Y84402D02*
Y88535D01*
X53949Y84402D02*
Y88535D01*
X51783Y84402D02*
X53949D01*
X44697Y83392D02*
Y85557D01*
Y83392D02*
X48831D01*
X44697Y85557D02*
X48831D01*
Y83392D02*
Y85557D01*
X33673Y82728D02*
X40366D01*
X33673Y86075D02*
X40366D01*
Y82728D02*
Y86075D01*
X33673Y82728D02*
Y86075D01*
X19488Y46850D02*
Y52362D01*
X7677Y46850D02*
X7677Y52362D01*
X19488D01*
X7677Y46850D02*
X19488D01*
X24902Y73425D02*
Y75590D01*
X20768D02*
X24902D01*
X20768Y73425D02*
X24902D01*
X20768D02*
Y75590D01*
X32283Y74606D02*
X34449D01*
Y78740D01*
X32283Y74606D02*
Y78740D01*
X34449Y78740D01*
X28051Y74606D02*
X30217D01*
Y78740D01*
X28051Y74606D02*
Y78740D01*
X30217D01*
X35000Y46811D02*
Y52795D01*
X22480Y46811D02*
Y52795D01*
Y46811D02*
X35000D01*
X22480Y52795D02*
X35000D01*
X16339Y76181D02*
X16339Y72835D01*
X9646Y76181D02*
X9646Y72835D01*
X16339D01*
X9646Y76181D02*
X16339D01*
X24902Y77756D02*
Y79921D01*
X20768D02*
X24902D01*
X20768Y77756D02*
X24902D01*
X20768D02*
Y79921D01*
X53051Y46850D02*
Y52362D01*
X41240Y46850D02*
Y52362D01*
X53051D01*
X41240Y46850D02*
X53051D01*
X46161Y135827D02*
Y137992D01*
Y135827D02*
X50295D01*
X46161Y137992D02*
X50295D01*
Y135827D02*
Y137992D01*
X230315Y126870D02*
Y129035D01*
Y126870D02*
X234449D01*
X230315Y129035D02*
X234449D01*
Y126870D02*
Y129035D01*
X225098Y129823D02*
X227264D01*
Y133957D01*
X225098Y129823D02*
Y133957D01*
X227264D01*
X237106Y192520D02*
X266240D01*
X237106Y131102D02*
X266240D01*
X237106D02*
Y192520D01*
X266240Y131102D02*
Y192520D01*
X355748Y593346D02*
X368268D01*
X355748Y587362D02*
X368268D01*
X355748D02*
Y593346D01*
X368268Y587362D02*
Y593346D01*
X45118Y319843D02*
X57638D01*
X45118Y325827D02*
X57638D01*
Y319843D02*
Y325827D01*
X45118Y319843D02*
Y325827D01*
X89606Y52795D02*
X102126D01*
X89606Y46811D02*
X102126D01*
X89606D02*
Y52795D01*
X102126Y46811D02*
Y52795D01*
X123169D02*
X135689D01*
X123169Y46811D02*
X135689D01*
X123169D02*
Y52795D01*
X135689Y46811D02*
Y52795D01*
X156732D02*
X169252D01*
X156732Y46811D02*
X169252D01*
X156732D02*
Y52795D01*
X169252Y46811D02*
Y52795D01*
X190295D02*
X202815D01*
X190295Y46811D02*
X202815D01*
X190295D02*
Y52795D01*
X202815Y46811D02*
Y52795D01*
X223858D02*
X236378D01*
X223858Y46811D02*
X236378D01*
X223858D02*
Y52795D01*
X236378Y46811D02*
Y52795D01*
X257421D02*
X269941D01*
X257421Y46811D02*
X269941D01*
X257421D02*
Y52795D01*
X269941Y46811D02*
Y52795D01*
X290984D02*
X303504D01*
X290984Y46811D02*
X303504D01*
X290984D02*
Y52795D01*
X303504Y46811D02*
Y52795D01*
X324547D02*
X337067D01*
X324547Y46811D02*
X337067D01*
X324547D02*
Y52795D01*
X337067Y46811D02*
Y52795D01*
X358110D02*
X370630D01*
X358110Y46811D02*
X370630D01*
X358110D02*
Y52795D01*
X370630Y46811D02*
Y52795D01*
X391673D02*
X404193D01*
X391673Y46811D02*
X404193D01*
X391673D02*
Y52795D01*
X404193Y46811D02*
Y52795D01*
X357441Y334646D02*
Y347165D01*
X363425Y334646D02*
Y347165D01*
X357441Y334646D02*
X363425D01*
X357441Y347165D02*
X363425D01*
X357441Y368209D02*
Y380728D01*
X363425Y368209D02*
Y380728D01*
X357441Y368209D02*
X363425D01*
X357441Y380728D02*
X363425D01*
X357441Y401772D02*
Y414291D01*
X363425Y401772D02*
Y414291D01*
X357441Y401772D02*
X363425D01*
X357441Y414291D02*
X363425D01*
X357441Y435335D02*
Y447854D01*
X363425Y435335D02*
Y447854D01*
X357441Y435335D02*
X363425D01*
X357441Y447854D02*
X363425D01*
X357441Y468898D02*
Y481417D01*
X363425Y468898D02*
Y481417D01*
X357441Y468898D02*
X363425D01*
X357441Y481417D02*
X363425D01*
X357441Y502461D02*
Y514980D01*
X363425Y502461D02*
Y514980D01*
X357441Y502461D02*
X363425D01*
X357441Y514980D02*
X363425D01*
X357441Y536024D02*
Y548543D01*
X363425Y536024D02*
Y548543D01*
X357441Y536024D02*
X363425D01*
X357441Y548543D02*
X363425D01*
X357441Y569587D02*
Y582106D01*
X363425Y569587D02*
Y582106D01*
X357441Y569587D02*
X363425D01*
X357441Y582106D02*
X363425D01*
X55945Y566024D02*
Y578543D01*
X49961Y566024D02*
Y578543D01*
X55945D01*
X49961Y566024D02*
X55945D01*
Y532461D02*
Y544980D01*
X49961Y532461D02*
Y544980D01*
X55945D01*
X49961Y532461D02*
X55945D01*
Y498898D02*
Y511417D01*
X49961Y498898D02*
Y511417D01*
X55945D01*
X49961Y498898D02*
X55945D01*
Y465335D02*
Y477854D01*
X49961Y465335D02*
Y477854D01*
X55945D01*
X49961Y465335D02*
X55945D01*
Y431772D02*
Y444291D01*
X49961Y431772D02*
Y444291D01*
X55945D01*
X49961Y431772D02*
X55945D01*
Y398209D02*
Y410728D01*
X49961Y398209D02*
Y410728D01*
X55945D01*
X49961Y398209D02*
X55945D01*
Y364646D02*
Y377165D01*
X49961Y364646D02*
Y377165D01*
X55945D01*
X49961Y364646D02*
X55945D01*
Y331083D02*
Y343602D01*
X49961Y331083D02*
Y343602D01*
X55945D01*
X49961Y331083D02*
X55945D01*
X377303Y24370D02*
X389823D01*
X377303Y30354D02*
X389823D01*
Y24370D02*
Y30354D01*
X377303Y24370D02*
Y30354D01*
X300049Y275344D02*
X329183D01*
X300049Y213927D02*
X329183D01*
X300049D02*
Y275344D01*
X329183Y213927D02*
Y275344D01*
X358169Y162106D02*
X360335D01*
X358169Y157972D02*
Y162106D01*
X360335Y157972D02*
Y162106D01*
X358169Y157972D02*
X360335D01*
X363484Y161024D02*
X363484Y163189D01*
X363484Y161024D02*
X367618D01*
X363484Y163189D02*
X367618D01*
X367618Y161024D02*
X367618Y163189D01*
X367618Y156693D02*
X367618Y158858D01*
X363484Y158858D02*
X367618Y158858D01*
X363484Y156693D02*
X367618D01*
X363484D02*
Y158858D01*
X348721Y133957D02*
Y136122D01*
Y133957D02*
X352854D01*
X348721Y136122D02*
X352854D01*
Y133957D02*
Y136122D01*
X358169Y140453D02*
X360335D01*
X358169Y136319D02*
Y140453D01*
X360335Y136319D02*
Y140453D01*
X358169Y136319D02*
X360335D01*
X363484Y150197D02*
X363484Y152362D01*
X363484Y150197D02*
X367618D01*
X363484Y152362D02*
X367618D01*
X367618Y150197D02*
X367618Y152362D01*
X367618Y145866D02*
Y148031D01*
X363484D02*
X367618D01*
X363484Y145866D02*
X367618D01*
X363484D02*
Y148031D01*
X358169Y151280D02*
X360335D01*
X358169Y147146D02*
Y151280D01*
X360335Y147146D02*
Y151280D01*
X358169Y147146D02*
X360335D01*
X367618Y135039D02*
Y137205D01*
X363484D02*
X367618D01*
X363484Y135039D02*
X367618D01*
X363484D02*
Y137205D01*
Y139370D02*
X363484Y141535D01*
X363484Y139370D02*
X367618D01*
X363484Y141535D02*
X367618D01*
X367618Y139370D02*
X367618Y141535D01*
X343406Y145866D02*
X345571Y145866D01*
X343406Y141732D02*
Y145866D01*
X345571Y141732D02*
Y145866D01*
X343406Y141732D02*
X345571D01*
X348721Y144783D02*
Y146949D01*
Y144783D02*
X352854D01*
X348721Y146949D02*
X352854D01*
Y144783D02*
Y146949D01*
Y140453D02*
Y142618D01*
X348721D02*
X352854D01*
X348721Y140453D02*
X352854D01*
X348721D02*
Y142618D01*
X352854Y151279D02*
Y153445D01*
X348721D02*
X352854D01*
X348721Y151279D02*
X352854D01*
X348721D02*
Y153445D01*
Y155610D02*
Y157776D01*
Y155610D02*
X352854D01*
X348721Y157776D02*
X352854D01*
Y155610D02*
Y157776D01*
X343406Y156693D02*
X345571Y156693D01*
X343406Y152559D02*
Y156693D01*
X345571Y152559D02*
Y156693D01*
X343406Y152559D02*
X345571Y152559D01*
X343406Y135039D02*
X345571Y135039D01*
X343406Y130905D02*
Y135039D01*
X345571Y130905D02*
Y135039D01*
X343406Y130905D02*
X345571Y130905D01*
X352854Y129626D02*
Y131791D01*
X348721D02*
X352854D01*
X348721Y129626D02*
X352854D01*
X348721D02*
Y131791D01*
X46161Y140157D02*
Y142323D01*
Y140157D02*
X50295D01*
X46161Y142323D02*
X50295D01*
Y140157D02*
Y142323D01*
X53445Y136909D02*
X55610D01*
Y141043D01*
X53445Y136909D02*
Y141043D01*
X55610D01*
X49902Y146653D02*
Y148819D01*
X45768D02*
X49902D01*
X45768Y146653D02*
X49902D01*
X45768D02*
Y148819D01*
Y150984D02*
Y153150D01*
Y150984D02*
X49902D01*
X45768Y153150D02*
X49902D01*
Y150984D02*
Y153150D01*
X53051Y147736D02*
X55216D01*
Y151870D01*
X53051Y147736D02*
Y151870D01*
X55216D01*
X49902Y157480D02*
Y159646D01*
X45768D02*
X49902D01*
X45768Y157480D02*
X49902D01*
X45768D02*
Y159646D01*
Y161811D02*
Y163976D01*
Y161811D02*
X49902D01*
X45768Y163976D02*
X49902D01*
Y161811D02*
Y163976D01*
X53051Y158563D02*
X55216D01*
Y162697D01*
X53051Y158563D02*
Y162697D01*
X55216D01*
X64665Y152067D02*
Y154232D01*
X60532D02*
X64665D01*
X60532Y152067D02*
X64665D01*
X60532D02*
Y154232D01*
X67815Y153150D02*
X69980D01*
Y157283D01*
X67815Y153150D02*
Y157283D01*
X69980D01*
X60532Y156398D02*
Y158563D01*
Y156398D02*
X64665D01*
X60532Y158563D02*
X64665D01*
Y156398D02*
Y158563D01*
X67815Y163976D02*
X69980D01*
Y168110D01*
X67815Y163976D02*
Y168110D01*
X69980D01*
X64665Y162894D02*
Y165059D01*
X60532D02*
X64665D01*
X60532Y162894D02*
X64665D01*
X60532D02*
Y165059D01*
Y167224D02*
Y169390D01*
Y167224D02*
X64665D01*
X60532Y169390D02*
X64665D01*
Y167224D02*
Y169390D01*
X67815Y142323D02*
X69980D01*
Y146457D01*
X67815Y142323D02*
Y146457D01*
X69980D01*
X60532Y145571D02*
Y147736D01*
Y145571D02*
X64665D01*
X60532Y147736D02*
X64665D01*
Y145571D02*
Y147736D01*
Y141240D02*
Y143405D01*
X60532D02*
X64665D01*
X60532Y141240D02*
X64665D01*
X60532D02*
Y143405D01*
Y263976D02*
Y266142D01*
Y263976D02*
X64665D01*
X60532Y266142D02*
X64665D01*
Y263976D02*
Y266142D01*
X67815Y260728D02*
X69980D01*
Y264862D01*
X67815Y260728D02*
Y264862D01*
X69980D01*
X64665Y248819D02*
Y250984D01*
X60532D02*
X64665D01*
X60532Y248819D02*
X64665D01*
X60532D02*
Y250984D01*
X49902Y258563D02*
Y260728D01*
X45768D02*
X49902D01*
X45768Y258563D02*
X49902D01*
X45768D02*
Y260728D01*
Y221752D02*
Y223917D01*
Y221752D02*
X49902D01*
X45768Y223917D02*
X49902D01*
Y221752D02*
Y223917D01*
Y226083D02*
Y228248D01*
X45768D02*
X49902D01*
X45768Y226083D02*
X49902D01*
X45768D02*
Y228248D01*
X49902Y236910D02*
Y239075D01*
X45768D02*
X49902D01*
X45768Y236910D02*
X49902D01*
X45768D02*
Y239075D01*
Y232579D02*
Y234744D01*
Y232579D02*
X49902D01*
X45768Y234744D02*
X49902D01*
Y232579D02*
Y234744D01*
Y247736D02*
Y249902D01*
X45768D02*
X49902D01*
X45768Y247736D02*
X49902D01*
X45768D02*
Y249902D01*
Y243406D02*
Y245571D01*
Y243406D02*
X49902D01*
X45768Y245571D02*
X49902D01*
Y243406D02*
Y245571D01*
X53051Y237795D02*
X55216D01*
X53051Y233661D02*
Y237795D01*
X55216Y233661D02*
Y237795D01*
X53051Y233661D02*
X55216D01*
X53051Y248622D02*
X55216D01*
X53051Y244488D02*
Y248622D01*
X55216Y244488D02*
Y248622D01*
X53051Y244488D02*
X55216D01*
X53051Y226969D02*
X55216D01*
X53051Y222835D02*
Y226969D01*
X55216Y222835D02*
Y226969D01*
X53051Y222835D02*
X55216D01*
X67815Y239075D02*
X69980D01*
Y243209D01*
X67815Y239075D02*
Y243209D01*
X69980D01*
X67815Y249902D02*
X69980D01*
Y254035D01*
X67815Y249902D02*
Y254035D01*
X69980D01*
X64665Y227165D02*
Y229331D01*
X60532D02*
X64665D01*
X60532Y227165D02*
X64665D01*
X60532D02*
Y229331D01*
X64665Y237992D02*
Y240158D01*
X60532D02*
X64665D01*
X60532Y237992D02*
X64665D01*
X60532D02*
Y240158D01*
Y231496D02*
Y233661D01*
Y231496D02*
X64665D01*
X60532Y233661D02*
X64665D01*
Y231496D02*
Y233661D01*
X67815Y228248D02*
X69980D01*
Y232382D01*
X67815Y228248D02*
Y232382D01*
X69980D01*
X60532Y242323D02*
Y244488D01*
Y242323D02*
X64665D01*
X60532Y244488D02*
X64665D01*
Y242323D02*
Y244488D01*
X49902Y280217D02*
Y282382D01*
X45768D02*
X49902D01*
X45768Y280217D02*
X49902D01*
X45768D02*
Y282382D01*
X49902Y291043D02*
Y293209D01*
X45768D02*
X49902D01*
X45768Y291043D02*
X49902D01*
X45768D02*
Y293209D01*
Y286713D02*
Y288878D01*
Y286713D02*
X49902D01*
X45768Y288878D02*
X49902D01*
Y286713D02*
Y288878D01*
X45768Y297539D02*
Y299705D01*
Y297539D02*
X49902D01*
X45768Y299705D02*
X49902D01*
Y297539D02*
Y299705D01*
X64665Y302953D02*
Y305118D01*
X60532D02*
X64665D01*
X60532Y302953D02*
X64665D01*
X60532D02*
Y305118D01*
X53051Y302756D02*
X55216D01*
X53051Y298622D02*
Y302756D01*
X55216Y298622D02*
Y302756D01*
X53051Y298622D02*
X55216D01*
X49902Y301870D02*
Y304035D01*
X45768D02*
X49902D01*
X45768Y301870D02*
X49902D01*
X45768D02*
Y304035D01*
X84252Y248721D02*
X113386D01*
X84252Y310138D02*
X113386D01*
Y248721D02*
Y310138D01*
X84252Y248721D02*
Y310138D01*
X123130Y309154D02*
X125295D01*
X123130Y305020D02*
Y309154D01*
X125295Y305020D02*
Y309154D01*
X123130Y305020D02*
X125295D01*
X67815Y293209D02*
X69980D01*
Y297343D01*
X67815Y293209D02*
Y297343D01*
X69980D01*
X60532Y296457D02*
Y298622D01*
Y296457D02*
X64665D01*
X60532Y298622D02*
X64665D01*
Y296457D02*
Y298622D01*
X60532Y307283D02*
Y309449D01*
Y307283D02*
X64665D01*
X60532Y309449D02*
X64665D01*
Y307283D02*
Y309449D01*
X67815Y304035D02*
X69980D01*
Y308169D01*
X67815Y304035D02*
Y308169D01*
X69980D01*
X64665Y281299D02*
Y283465D01*
X60532D02*
X64665D01*
X60532Y281299D02*
X64665D01*
X60532D02*
Y283465D01*
Y285630D02*
Y287795D01*
Y285630D02*
X64665D01*
X60532Y287795D02*
X64665D01*
Y285630D02*
Y287795D01*
X49902Y269390D02*
Y271555D01*
X45768D02*
X49902D01*
X45768Y269390D02*
X49902D01*
X45768D02*
Y271555D01*
X53051Y270276D02*
X55216D01*
X53051Y266142D02*
Y270276D01*
X55216Y266142D02*
Y270276D01*
X53051Y266142D02*
X55216D01*
X45768Y265059D02*
Y267224D01*
Y265059D02*
X49902D01*
X45768Y267224D02*
X49902D01*
Y265059D02*
Y267224D01*
X53051Y281102D02*
X55216D01*
X53051Y276969D02*
Y281102D01*
X55216Y276969D02*
Y281102D01*
X53051Y276969D02*
X55216D01*
X45768Y275886D02*
Y278051D01*
Y275886D02*
X49902D01*
X45768Y278051D02*
X49902D01*
Y275886D02*
Y278051D01*
X53051Y291929D02*
X55216D01*
X53051Y287795D02*
Y291929D01*
X55216Y287795D02*
Y291929D01*
X53051Y287795D02*
X55216D01*
X64665Y270473D02*
Y272638D01*
X60532D02*
X64665D01*
X60532Y270473D02*
X64665D01*
X60532D02*
Y272638D01*
Y274803D02*
Y276969D01*
Y274803D02*
X64665D01*
X60532Y276969D02*
X64665D01*
Y274803D02*
Y276969D01*
Y292126D02*
Y294291D01*
X60532D02*
X64665D01*
X60532Y292126D02*
X64665D01*
X60532D02*
Y294291D01*
X67815Y282382D02*
X69980D01*
Y286516D01*
X67815Y282382D02*
Y286516D01*
X69980D01*
X67815Y271555D02*
X69980D01*
Y275689D01*
X67815Y271555D02*
Y275689D01*
X69980D01*
X53051Y259449D02*
X55216D01*
X53051Y255315D02*
Y259449D01*
X55216Y255315D02*
Y259449D01*
X53051Y255315D02*
X55216D01*
X60532Y253150D02*
Y255315D01*
Y253150D02*
X64665D01*
X60532Y255315D02*
X64665D01*
Y253150D02*
Y255315D01*
Y259646D02*
Y261811D01*
X60532D02*
X64665D01*
X60532Y259646D02*
X64665D01*
X60532D02*
Y261811D01*
X45768Y254232D02*
Y256398D01*
Y254232D02*
X49902D01*
X45768Y256398D02*
X49902D01*
Y254232D02*
Y256398D01*
X133673Y151205D02*
X135839Y151205D01*
X133673Y147071D02*
Y151205D01*
X135839Y147071D02*
Y151205D01*
X133673Y147071D02*
X135839Y147071D01*
X125209Y151205D02*
X127374D01*
X125209Y147071D02*
Y151205D01*
X127374Y147071D02*
Y151205D01*
X125209Y147071D02*
X127374D01*
X129441Y151205D02*
X131606D01*
X129441Y147071D02*
Y151205D01*
X131606Y147071D02*
Y151205D01*
X129441Y147071D02*
X131606D01*
X178161Y107405D02*
Y129453D01*
X126587Y107405D02*
Y129453D01*
X178161D01*
X126587Y107405D02*
X178161D01*
X122354Y126697D02*
X124520D01*
X122354Y122563D02*
Y126697D01*
X124520Y122563D02*
Y126697D01*
X122354Y122563D02*
X124520D01*
X133673Y138901D02*
X135838D01*
Y143035D01*
X133673Y138901D02*
Y143035D01*
X135838D01*
X161614Y200787D02*
X163779D01*
X161614Y196653D02*
Y200787D01*
X163779Y196653D02*
Y200787D01*
X161614Y196653D02*
X163779D01*
X144795Y148744D02*
X146961D01*
Y152878D01*
X144795Y148744D02*
Y152878D01*
X146961D01*
X129441Y138902D02*
X131606D01*
Y143035D01*
X129441Y138902D02*
Y143035D01*
X131606D01*
X119390Y116240D02*
Y118405D01*
Y116240D02*
X123524D01*
X119390Y118405D02*
X123524D01*
Y116240D02*
Y118405D01*
X137906Y147071D02*
X140071D01*
Y151205D01*
X137906Y147071D02*
Y151205D01*
X140071D01*
X137906Y143035D02*
X140071D01*
X137906Y138901D02*
Y143035D01*
X140071Y138901D02*
Y143035D01*
X137906Y138901D02*
X140071D01*
X122354Y134866D02*
X124520D01*
X122354Y130732D02*
Y134866D01*
X124520Y130732D02*
Y134866D01*
X122354Y130732D02*
X124520D01*
X125209Y138901D02*
X127374D01*
Y143035D01*
X125209Y138901D02*
Y143035D01*
X127374D01*
X158181Y138016D02*
Y140181D01*
Y138016D02*
X162315D01*
X158181Y140181D02*
X162315D01*
Y138016D02*
Y140181D01*
Y146480D02*
Y148646D01*
X158181D02*
X162315D01*
X158181Y146480D02*
X162315D01*
X158181D02*
Y148646D01*
X154146Y146480D02*
Y148646D01*
X150012D02*
X154146D01*
X150012Y146480D02*
X154146D01*
X150012D02*
Y148646D01*
X154146Y150713D02*
Y152878D01*
X150012D02*
X154146D01*
X150012Y150713D02*
X154146D01*
X150012D02*
Y152878D01*
X158181Y142248D02*
Y144413D01*
Y142248D02*
X162315D01*
X158181Y144413D02*
X162315D01*
Y142248D02*
Y144413D01*
X154146Y142248D02*
Y144413D01*
X150012D02*
X154146D01*
X150012Y142248D02*
X154146D01*
X150012D02*
Y144413D01*
X154146Y138016D02*
Y140181D01*
X150012D02*
X154146D01*
X150012Y138016D02*
X154146D01*
X150012D02*
Y140181D01*
X116929Y203248D02*
X119095D01*
Y207382D01*
X116929Y203248D02*
Y207382D01*
X119095D01*
X378839Y76181D02*
X385531D01*
X378839Y72835D02*
X385531D01*
X378839D02*
Y76181D01*
X385531Y72835D02*
Y76181D01*
X22748Y88142D02*
Y107827D01*
X49421D01*
Y88142D02*
Y107827D01*
X22748Y88142D02*
X49421D01*
X108366Y46850D02*
X120177D01*
X108366Y52362D02*
X120177D01*
X108366Y46850D02*
Y52362D01*
X120177Y46850D02*
Y52362D01*
X141929Y46850D02*
X153740D01*
X141929Y52362D02*
X153740D01*
X141929Y46850D02*
Y52362D01*
X153740Y46850D02*
Y52362D01*
X74803Y46850D02*
X86614D01*
X74803Y52362D02*
X86614D01*
X74803Y46850D02*
Y52362D01*
X86614Y46850D02*
Y52362D01*
X209055Y46850D02*
X220866D01*
X209055Y52362D02*
X220866D01*
X209055Y46850D02*
Y52362D01*
X220866Y46850D02*
Y52362D01*
X211614Y70689D02*
X236614D01*
X211614Y57854D02*
Y70689D01*
X236614Y57854D02*
Y70689D01*
X211614Y57854D02*
X236614D01*
X178051Y70689D02*
X203051D01*
X178051Y57854D02*
Y70689D01*
X203051Y57854D02*
Y70689D01*
X178051Y57854D02*
X203051D01*
X144488Y70689D02*
X169488D01*
X144488Y57854D02*
Y70689D01*
X169488Y57854D02*
Y70689D01*
X144488Y57854D02*
X169488D01*
X345866Y70689D02*
X370866D01*
X345866Y57854D02*
Y70689D01*
X370866Y57854D02*
Y70689D01*
X345866Y57854D02*
X370866D01*
X278740Y70689D02*
X303740D01*
X278740Y57854D02*
Y70689D01*
X303740Y57854D02*
Y70689D01*
X278740Y57854D02*
X303740D01*
X312303Y70689D02*
X337303D01*
X312303Y57854D02*
Y70689D01*
X337303Y57854D02*
Y70689D01*
X312303Y57854D02*
X337303D01*
X379429D02*
X404429D01*
Y70689D01*
X379429Y57854D02*
Y70689D01*
X404429D01*
X217717Y72835D02*
Y76181D01*
X211024Y72835D02*
Y76181D01*
Y72835D02*
X217717D01*
X211024Y76181D02*
X217717D01*
X309744Y46850D02*
X321555D01*
X309744Y52362D02*
X321555D01*
X309744Y46850D02*
Y52362D01*
X321555Y46850D02*
Y52362D01*
X245177Y70689D02*
X270177D01*
X245177Y57854D02*
Y70689D01*
X270177Y57854D02*
Y70689D01*
X245177Y57854D02*
X270177D01*
X242618Y46850D02*
X254429D01*
X242618Y52362D02*
X254429D01*
X242618Y46850D02*
Y52362D01*
X254429Y46850D02*
Y52362D01*
X388681Y46850D02*
Y52362D01*
X376870Y46850D02*
Y52362D01*
X388681D01*
X376870Y46850D02*
X388681D01*
X343307D02*
X355118D01*
X343307Y52362D02*
X355118D01*
X343307Y46850D02*
Y52362D01*
X355118Y46850D02*
Y52362D01*
X318406Y72835D02*
Y76181D01*
X311713Y72835D02*
Y76181D01*
Y72835D02*
X318406D01*
X311713Y76181D02*
X318406D01*
X284842Y72835D02*
Y76181D01*
X278150Y72835D02*
Y76181D01*
Y72835D02*
X284842D01*
X278150Y76181D02*
X284842D01*
X351969Y72835D02*
Y76181D01*
X345276Y72835D02*
Y76181D01*
Y72835D02*
X351969D01*
X345276Y76181D02*
X351969D01*
X251279Y72835D02*
Y76181D01*
X244587Y72835D02*
Y76181D01*
Y72835D02*
X251279D01*
X244587Y76181D02*
X251279D01*
X150591Y72835D02*
Y76181D01*
X143898Y72835D02*
Y76181D01*
Y72835D02*
X150591D01*
X143898Y76181D02*
X150591D01*
X83464Y72835D02*
Y76181D01*
X76772Y72835D02*
Y76181D01*
Y72835D02*
X83464D01*
X76772Y76181D02*
X83464D01*
X117027Y72835D02*
Y76181D01*
X110335Y72835D02*
Y76181D01*
Y72835D02*
X117027D01*
X110335Y76181D02*
X117027D01*
X184153Y72835D02*
Y76181D01*
X177461Y72835D02*
Y76181D01*
Y72835D02*
X184153D01*
X177461Y76181D02*
X184153D01*
X175492Y46850D02*
X187303D01*
X175492Y52362D02*
X187303D01*
X175492Y46850D02*
Y52362D01*
X187303Y46850D02*
Y52362D01*
X49902Y72835D02*
Y76181D01*
X43209Y72835D02*
Y76181D01*
Y72835D02*
X49902D01*
X43209Y76181D02*
X49902D01*
X110925Y70689D02*
X135925D01*
X110925Y57854D02*
Y70689D01*
X135925Y57854D02*
Y70689D01*
X110925Y57854D02*
X135925D01*
X276181Y46850D02*
X287992D01*
X276181Y52362D02*
X287992D01*
X276181Y46850D02*
Y52362D01*
X287992Y46850D02*
Y52362D01*
X58465Y73425D02*
Y75590D01*
X54331D02*
X58465D01*
X54331Y73425D02*
X58465D01*
X54331D02*
Y75590D01*
X61614Y74606D02*
X63779D01*
Y78740D01*
X61614Y74606D02*
Y78740D01*
X63779D01*
X58465Y77658D02*
Y79823D01*
X54331D02*
X58465D01*
X54331Y77658D02*
X58465D01*
X54331D02*
Y79823D01*
X159153Y73425D02*
Y75590D01*
X155020D02*
X159153D01*
X155020Y73425D02*
X159153D01*
X155020D02*
Y75590D01*
X95177Y74606D02*
X97342D01*
Y78740D01*
X95177Y74606D02*
Y78740D01*
X97342D01*
X65847Y74606D02*
X68012D01*
Y78740D01*
X65847Y74606D02*
Y78740D01*
X68012D01*
X159153Y77756D02*
Y79921D01*
X155020D02*
X159153D01*
X155020Y77756D02*
X159153D01*
X155020D02*
Y79921D01*
X132972Y74606D02*
X135138D01*
Y78740D01*
X132972Y74606D02*
Y78740D01*
X135138D01*
X128740Y74606D02*
X130905D01*
Y78740D01*
X128740Y74606D02*
Y78740D01*
X130905D01*
X125591Y73425D02*
Y75590D01*
X121457D02*
X125591D01*
X121457Y73425D02*
X125591D01*
X121457D02*
Y75590D01*
X99409Y74606D02*
X101575D01*
Y78740D01*
X99409Y74606D02*
Y78740D01*
X101575D01*
X92027Y77756D02*
Y79921D01*
X87894D02*
X92027D01*
X87894Y77756D02*
X92027D01*
X87894D02*
Y79921D01*
X125591Y77756D02*
Y79921D01*
X121457D02*
X125591D01*
X121457Y77756D02*
X125591D01*
X121457D02*
Y79921D01*
X92027Y73425D02*
Y75590D01*
X87894D02*
X92027D01*
X87894Y73425D02*
X92027D01*
X87894D02*
Y75590D01*
X389961Y77756D02*
Y79921D01*
Y77756D02*
X394094D01*
X389961Y79921D02*
X394094D01*
Y77756D02*
Y79921D01*
X397244Y78740D02*
X399409D01*
X397244Y74606D02*
Y78740D01*
X399409Y74606D02*
Y78740D01*
X397244Y74606D02*
X399409D01*
X401476Y78740D02*
X403642D01*
X401476Y74606D02*
Y78740D01*
X403642Y74606D02*
Y78740D01*
X401476Y74606D02*
X403642D01*
X367913D02*
X370079D01*
Y78740D01*
X367913Y74606D02*
Y78740D01*
X370079D01*
X363681Y74606D02*
X365846D01*
Y78740D01*
X363681Y74606D02*
Y78740D01*
X365846D01*
X360531Y77756D02*
Y79921D01*
X356398D02*
X360531D01*
X356398Y77756D02*
X360531D01*
X356398D02*
Y79921D01*
X389961Y73425D02*
Y75590D01*
Y73425D02*
X394094D01*
X389961Y75590D02*
X394094D01*
Y73425D02*
Y75590D01*
X300787Y74606D02*
X302953D01*
Y78740D01*
X300787Y74606D02*
Y78740D01*
X302953D01*
X267224Y74606D02*
X269390D01*
Y78740D01*
X267224Y74606D02*
Y78740D01*
X269390D01*
X296555Y74606D02*
X298720D01*
Y78740D01*
X296555Y74606D02*
Y78740D01*
X298720D01*
X162303Y74606D02*
X164468D01*
Y78740D01*
X162303Y74606D02*
Y78740D01*
X164468D01*
X166535Y74606D02*
X168701D01*
Y78740D01*
X166535Y74606D02*
Y78740D01*
X168701D01*
X404528Y25787D02*
Y27953D01*
Y25787D02*
X408661D01*
X404528Y27953D02*
X408661D01*
Y25787D02*
Y27953D01*
Y29921D02*
Y32087D01*
X404528D02*
X408661D01*
X404528Y29921D02*
X408661D01*
X404528D02*
X404528Y32087D01*
X262992Y74606D02*
X265157D01*
Y78740D01*
X262992Y74606D02*
Y78740D01*
X265157D01*
X259842Y73425D02*
Y75590D01*
X255709D02*
X259842D01*
X255709Y73425D02*
X259842D01*
X255709D02*
Y75590D01*
X233661Y74606D02*
X235827D01*
Y78740D01*
X233661Y74606D02*
Y78740D01*
X235827D01*
X259842Y77756D02*
Y79921D01*
X255709D02*
X259842D01*
X255709Y77756D02*
X259842D01*
X255709D02*
Y79921D01*
X229429Y74606D02*
X231594D01*
Y78740D01*
X229429Y74606D02*
Y78740D01*
X231594D01*
X226279Y77756D02*
Y79921D01*
X222146D02*
X226279D01*
X222146Y77756D02*
X226279D01*
X222146D02*
Y79921D01*
X226279Y73425D02*
Y75590D01*
X222146D02*
X226279D01*
X222146Y73425D02*
X226279D01*
X222146D02*
Y75590D01*
X192717Y77756D02*
Y79921D01*
X188583D02*
X192717D01*
X188583Y77756D02*
X192717D01*
X188583D02*
Y79921D01*
X195866Y74606D02*
X198031D01*
Y78740D01*
X195866Y74606D02*
Y78740D01*
X198031D01*
X200098Y74606D02*
X202264D01*
Y78740D01*
X200098Y74606D02*
Y78740D01*
X202264D01*
X192717Y73425D02*
Y75590D01*
X188583D02*
X192717D01*
X188583Y73425D02*
X192717D01*
X188583D02*
Y75590D01*
X330118Y74606D02*
X332283D01*
Y78740D01*
X330118Y74606D02*
Y78740D01*
X332283D01*
X334350Y74606D02*
X336516D01*
Y78740D01*
X334350Y74606D02*
Y78740D01*
X336516D01*
X293406Y77756D02*
Y79921D01*
X289272D02*
X293406D01*
X289272Y77756D02*
X293406D01*
X289272D02*
Y79921D01*
X326969Y77756D02*
Y79921D01*
X322835D02*
X326969D01*
X322835Y77756D02*
X326969D01*
X322835D02*
Y79921D01*
X326969Y73425D02*
Y75590D01*
X322835D02*
X326969D01*
X322835Y73425D02*
X326969D01*
X322835D02*
Y75590D01*
X360531Y73425D02*
Y75590D01*
X356398D02*
X360531D01*
X356398Y73425D02*
X360531D01*
X356398D02*
Y75590D01*
X293406Y73425D02*
Y75590D01*
X289272D02*
X293406D01*
X289272Y73425D02*
X293406D01*
X289272D02*
Y75590D01*
X124311Y312106D02*
X124311Y314272D01*
X120177D02*
X124311D01*
X120177Y312106D02*
X124311D01*
X120177D02*
X120177Y314272D01*
X293258Y209793D02*
Y211959D01*
X289124D02*
X293258D01*
X289124Y209793D02*
X293258D01*
X289124D02*
Y211959D01*
X352854Y217520D02*
Y219685D01*
X348721D02*
X352854D01*
X348721Y217520D02*
X352854D01*
X348721D02*
Y219685D01*
Y221850D02*
Y224016D01*
Y221850D02*
X352854D01*
X348721Y224016D02*
X352854D01*
Y221850D02*
Y224016D01*
X343406Y222933D02*
X345571D01*
X343406Y218799D02*
Y222933D01*
X345571Y218799D02*
Y222933D01*
X343406Y218799D02*
X345571D01*
X367618Y222933D02*
Y225098D01*
X363484D02*
X367618D01*
X363484Y222933D02*
X367618D01*
X363484D02*
Y225098D01*
Y227264D02*
Y229429D01*
Y227264D02*
X367618D01*
X363484Y229429D02*
X367618D01*
Y227264D02*
Y229429D01*
X358169Y228346D02*
X360335D01*
X358169Y224213D02*
Y228346D01*
X360335Y224213D02*
Y228346D01*
X358169Y224213D02*
X360335D01*
X352854Y228346D02*
Y230512D01*
X348721D02*
X352854D01*
X348721Y228346D02*
X352854D01*
X348721D02*
Y230512D01*
Y232677D02*
Y234842D01*
Y232677D02*
X352854D01*
X348721Y234842D02*
X352854D01*
Y232677D02*
Y234842D01*
X343406Y233760D02*
X345571D01*
X343406Y229626D02*
Y233760D01*
X345571Y229626D02*
Y233760D01*
X343406Y229626D02*
X345571D01*
X367618Y233760D02*
Y235925D01*
X363484D02*
X367618D01*
X363484Y233760D02*
X367618D01*
X363484D02*
Y235925D01*
Y238090D02*
Y240256D01*
Y238090D02*
X367618D01*
X363484Y240256D02*
X367618D01*
Y238090D02*
Y240256D01*
X358169Y239173D02*
X360335D01*
X358169Y235039D02*
Y239173D01*
X360335Y235039D02*
Y239173D01*
X358169Y235039D02*
X360335D01*
X352854Y239173D02*
Y241339D01*
X348721D02*
X352854D01*
X348721Y239173D02*
X352854D01*
X348721D02*
Y241339D01*
Y243504D02*
Y245669D01*
Y243504D02*
X352854D01*
X348721Y245669D02*
X352854D01*
Y243504D02*
Y245669D01*
X343406Y244587D02*
X345571D01*
X343406Y240453D02*
Y244587D01*
X345571Y240453D02*
Y244587D01*
X343406Y240453D02*
X345571D01*
X367618Y244587D02*
Y246752D01*
X363484D02*
X367618D01*
X363484Y244587D02*
X367618D01*
X363484D02*
Y246752D01*
Y248917D02*
Y251083D01*
Y248917D02*
X367618D01*
X363484Y251083D02*
X367618D01*
Y248917D02*
Y251083D01*
X358169Y250000D02*
X360335D01*
X358169Y245866D02*
Y250000D01*
X360335Y245866D02*
Y250000D01*
X358169Y245866D02*
X360335D01*
X352854Y250000D02*
Y252165D01*
X348721D02*
X352854D01*
X348721Y250000D02*
X352854D01*
X348721D02*
Y252165D01*
Y254331D02*
Y256496D01*
Y254331D02*
X352854D01*
X348721Y256496D02*
X352854D01*
Y254331D02*
Y256496D01*
X343406Y255413D02*
X345571D01*
X343406Y251279D02*
Y255413D01*
X345571Y251279D02*
Y255413D01*
X343406Y251279D02*
X345571D01*
X367618Y255413D02*
Y257579D01*
X363484D02*
X367618D01*
X363484Y255413D02*
X367618D01*
X363484D02*
Y257579D01*
Y259744D02*
Y261910D01*
Y259744D02*
X367618D01*
X363484Y261910D02*
X367618D01*
Y259744D02*
Y261910D01*
X358169Y260827D02*
X360335D01*
X358169Y256693D02*
Y260827D01*
X360335Y256693D02*
Y260827D01*
X358169Y256693D02*
X360335D01*
X352854Y260827D02*
Y262992D01*
X348721D02*
X352854D01*
X348721Y260827D02*
X352854D01*
X348721D02*
Y262992D01*
Y265158D02*
Y267323D01*
Y265158D02*
X352854D01*
X348721Y267323D02*
X352854D01*
Y265158D02*
Y267323D01*
X343406Y266240D02*
X345571D01*
X343406Y262106D02*
Y266240D01*
X345571Y262106D02*
Y266240D01*
X343406Y262106D02*
X345571D01*
X367618Y266240D02*
Y268406D01*
X363484D02*
X367618D01*
X363484Y266240D02*
X367618D01*
X363484D02*
Y268406D01*
Y270571D02*
Y272736D01*
Y270571D02*
X367618D01*
X363484Y272736D02*
X367618D01*
Y270571D02*
Y272736D01*
X358169Y271654D02*
X360335D01*
X358169Y267520D02*
Y271654D01*
X360335Y267520D02*
Y271654D01*
X358169Y267520D02*
X360335D01*
X352854Y271654D02*
Y273819D01*
X348721D02*
X352854D01*
X348721Y271654D02*
X352854D01*
X348721D02*
Y273819D01*
Y275984D02*
Y278150D01*
Y275984D02*
X352854D01*
X348721Y278150D02*
X352854D01*
Y275984D02*
Y278150D01*
X343406Y277067D02*
X345571D01*
X343406Y272933D02*
Y277067D01*
X345571Y272933D02*
Y277067D01*
X343406Y272933D02*
X345571D01*
X367618Y277067D02*
Y279232D01*
X363484D02*
X367618D01*
X363484Y277067D02*
X367618D01*
X363484D02*
Y279232D01*
Y281398D02*
Y283563D01*
Y281398D02*
X367618D01*
X363484Y283563D02*
X367618D01*
Y281398D02*
Y283563D01*
X358169Y282480D02*
X360335D01*
X358169Y278346D02*
Y282480D01*
X360335Y278346D02*
Y282480D01*
X358169Y278346D02*
X360335D01*
X352854Y282480D02*
Y284646D01*
X348721D02*
X352854D01*
X348721Y282480D02*
X352854D01*
X348721D02*
Y284646D01*
Y286811D02*
Y288976D01*
Y286811D02*
X352854D01*
X348721Y288976D02*
X352854D01*
Y286811D02*
Y288976D01*
X343406Y287894D02*
X345571D01*
X343406Y283760D02*
Y287894D01*
X345571Y283760D02*
Y287894D01*
X343406Y283760D02*
X345571D01*
X367618Y287894D02*
Y290059D01*
X363484D02*
X367618D01*
X363484Y287894D02*
X367618D01*
X363484D02*
Y290059D01*
Y292224D02*
Y294390D01*
Y292224D02*
X367618D01*
X363484Y294390D02*
X367618D01*
Y292224D02*
Y294390D01*
X358169Y293307D02*
X360335D01*
X358169Y289173D02*
Y293307D01*
X360335Y289173D02*
Y293307D01*
X358169Y289173D02*
X360335D01*
X352854Y293307D02*
Y295473D01*
X348721D02*
X352854D01*
X348721Y293307D02*
X352854D01*
X348721D02*
Y295473D01*
Y297638D02*
Y299803D01*
Y297638D02*
X352854D01*
X348721Y299803D02*
X352854D01*
Y297638D02*
Y299803D01*
X343406Y298721D02*
X345571D01*
X343406Y294587D02*
Y298721D01*
X345571Y294587D02*
Y298721D01*
X343406Y294587D02*
X345571D01*
X367618Y298721D02*
Y300886D01*
X363484D02*
X367618D01*
X363484Y298721D02*
X367618D01*
X363484D02*
Y300886D01*
Y303051D02*
Y305217D01*
Y303051D02*
X367618D01*
X363484Y305217D02*
X367618D01*
Y303051D02*
Y305217D01*
X358169Y304134D02*
X360335D01*
X358169Y300000D02*
Y304134D01*
X360335Y300000D02*
Y304134D01*
X358169Y300000D02*
X360335D01*
X363386Y454094D02*
Y465906D01*
X357874Y454094D02*
Y465906D01*
Y454094D02*
X363386D01*
X357874Y465906D02*
X363386D01*
X291386Y435799D02*
Y437964D01*
Y435799D02*
X295520D01*
X291386Y437964D02*
X295520D01*
Y435799D02*
Y437964D01*
X247146Y401083D02*
Y403248D01*
Y401083D02*
X251279D01*
X247146Y403248D02*
X251279D01*
Y401083D02*
Y403248D01*
X330315Y437756D02*
X332480D01*
X330315Y433622D02*
Y437756D01*
X332480Y433622D02*
Y437756D01*
X330315Y433622D02*
X332480D01*
X335630Y440906D02*
Y443071D01*
X331496D02*
X335630D01*
X331496Y440906D02*
X335630D01*
X331496D02*
Y443071D01*
X335630Y445138D02*
Y447303D01*
X331496D02*
X335630D01*
X331496Y445138D02*
X335630D01*
X331496D02*
Y447303D01*
X334646Y437756D02*
X336811D01*
X334646Y433622D02*
Y437756D01*
X336811Y433622D02*
Y437756D01*
X334646Y433622D02*
X336811D01*
X334055Y429193D02*
X337402D01*
X334055Y422500D02*
X337402D01*
Y429193D01*
X334055Y422500D02*
Y429193D01*
Y462756D02*
X337402D01*
X334055Y456063D02*
X337402D01*
Y462756D01*
X334055Y456063D02*
Y462756D01*
X329626Y470571D02*
X331791D01*
X329626Y466437D02*
Y470571D01*
X331791Y466437D02*
Y470571D01*
X329626Y466437D02*
X331791D01*
X334646Y471319D02*
X336811D01*
X334646Y467185D02*
Y471319D01*
X336811Y467185D02*
Y471319D01*
X334646Y467185D02*
X336811D01*
X363386Y420532D02*
Y432342D01*
X357874Y420532D02*
Y432342D01*
Y420532D02*
X363386D01*
X357874Y432342D02*
X363386D01*
X335630Y407342D02*
Y409508D01*
X331496D02*
X335630D01*
X331496Y407342D02*
X335630D01*
X331496D02*
Y409508D01*
X363386Y386968D02*
Y398780D01*
X357874Y386968D02*
Y398780D01*
Y386968D02*
X363386D01*
X357874Y398780D02*
X363386D01*
X339548Y423090D02*
Y448090D01*
Y423090D02*
X352382D01*
X339548Y448090D02*
X352382D01*
Y423090D02*
Y448090D01*
X340532Y388543D02*
Y413543D01*
Y388543D02*
X353366D01*
X340532Y413543D02*
X353366D01*
Y388543D02*
Y413543D01*
X335630Y378012D02*
Y380177D01*
X331496D02*
X335630D01*
X331496Y378012D02*
X335630D01*
X331496D02*
Y380177D01*
X339548Y355964D02*
Y380964D01*
Y355964D02*
X352382D01*
X339548Y380964D02*
X352382D01*
Y355964D02*
Y380964D01*
X330315Y404193D02*
X332480D01*
X330315Y400059D02*
Y404193D01*
X332480Y400059D02*
Y404193D01*
X330315Y400059D02*
X332480D01*
X334646Y404193D02*
X336811D01*
X334646Y400059D02*
Y404193D01*
X336811Y400059D02*
Y404193D01*
X334646Y400059D02*
X336811D01*
X335630Y411575D02*
Y413740D01*
X331496D02*
X335630D01*
X331496Y411575D02*
X335630D01*
X331496D02*
Y413740D01*
X283315Y435799D02*
Y437964D01*
Y435799D02*
X287449D01*
X283315Y437964D02*
X287449D01*
Y435799D02*
Y437964D01*
X335630Y474469D02*
Y476634D01*
X331496D02*
X335630D01*
X331496Y474469D02*
X335630D01*
X331496D02*
Y476634D01*
X335630Y478701D02*
Y480866D01*
X331496D02*
X335630D01*
X331496Y478701D02*
X335630D01*
X331496D02*
Y480866D01*
X339548Y456653D02*
Y481653D01*
Y456653D02*
X352382D01*
X339548Y481653D02*
X352382D01*
Y456653D02*
Y481653D01*
X310874Y439933D02*
Y491508D01*
X288827Y439933D02*
Y491508D01*
Y439933D02*
X310874D01*
X288827Y491508D02*
X310874D01*
X334055Y496319D02*
X337402D01*
X334055Y489626D02*
X337402D01*
Y496319D01*
X334055Y489626D02*
Y496319D01*
X339548Y490216D02*
Y515216D01*
Y490216D02*
X352382D01*
X339548Y515216D02*
X352382D01*
Y490216D02*
Y515216D01*
X363386Y487657D02*
Y499469D01*
X357874Y487657D02*
Y499469D01*
Y487657D02*
X363386D01*
X357874Y499469D02*
X363386D01*
X273866Y471527D02*
X276031D01*
Y475661D01*
X273866Y471527D02*
Y475661D01*
X276031D01*
X278098Y471527D02*
X280264D01*
Y475661D01*
X278098Y471527D02*
Y475661D01*
X280264D01*
X267173Y442787D02*
Y444953D01*
Y442787D02*
X271307D01*
X267173Y444953D02*
X271307D01*
Y442787D02*
Y444953D01*
X279378Y442787D02*
Y444953D01*
X275244D02*
X279378D01*
X275244Y442787D02*
X279378D01*
X275244D02*
Y444953D01*
X279378Y438654D02*
Y440819D01*
X275244D02*
X279378D01*
X275244Y438654D02*
X279378D01*
X275244D02*
Y440819D01*
X271209Y451252D02*
Y453417D01*
X267075D02*
X271209D01*
X267075Y451252D02*
X271209D01*
X267075D02*
Y453417D01*
X279279Y451252D02*
Y453417D01*
X275146D02*
X279279D01*
X275146Y451252D02*
X279279D01*
X275146D02*
Y453417D01*
X269634Y475661D02*
X271799D01*
X269634Y471527D02*
Y475661D01*
X271799Y471527D02*
Y475661D01*
X269634Y471527D02*
X271799D01*
X267173Y438654D02*
Y440819D01*
Y438654D02*
X271307D01*
X267173Y440819D02*
X271307D01*
Y438654D02*
Y440819D01*
X265008Y458142D02*
Y460307D01*
Y458142D02*
X269142D01*
X265008Y460307D02*
X269142D01*
Y458142D02*
Y460307D01*
X273866Y467492D02*
X276031D01*
X273866Y463358D02*
Y467492D01*
X276031Y463358D02*
Y467492D01*
X273866Y463358D02*
X276031D01*
X278098Y467492D02*
X280264D01*
X278098Y463358D02*
Y467492D01*
X280264Y463358D02*
Y467492D01*
X278098Y463358D02*
X280264D01*
X269634D02*
X271799D01*
Y467492D01*
X269634Y463358D02*
Y467492D01*
X271799D01*
X279378Y447020D02*
Y449185D01*
X275244D02*
X279378D01*
X275244Y447020D02*
X279378D01*
X275244D02*
Y449185D01*
X267173Y447020D02*
Y449185D01*
Y447020D02*
X271307D01*
X267173Y449185D02*
X271307D01*
Y447020D02*
Y449185D01*
X288140Y219045D02*
X290305D01*
X288140Y214912D02*
Y219045D01*
X290305Y214912D02*
Y219045D01*
X288140Y214912D02*
X290305D01*
X334646Y337067D02*
X336811D01*
X334646Y332933D02*
Y337067D01*
X336811Y332933D02*
Y337067D01*
X334646Y332933D02*
X336811D01*
X335630Y344449D02*
Y346614D01*
X331496D02*
X335630D01*
X331496Y344449D02*
X335630D01*
X331496D02*
Y346614D01*
X335630Y340216D02*
Y342382D01*
X331496D02*
X335630D01*
X331496Y340216D02*
X335630D01*
X331496D02*
Y342382D01*
X330315Y337067D02*
X332480D01*
X330315Y332933D02*
Y337067D01*
X332480Y332933D02*
Y337067D01*
X330315Y332933D02*
X332480D01*
X334055Y328504D02*
X337402D01*
X334055Y321811D02*
X337402D01*
Y328504D01*
X334055Y321811D02*
Y328504D01*
X318158Y334913D02*
Y361587D01*
X298472D02*
X318158D01*
X298472Y334913D02*
Y361587D01*
Y334913D02*
X318158D01*
X317764Y363949D02*
Y366114D01*
Y363949D02*
X321898D01*
X317764Y366114D02*
X321898D01*
Y363949D02*
Y366114D01*
X363386Y353405D02*
Y365216D01*
X357874Y353405D02*
Y365216D01*
Y353405D02*
X363386D01*
X357874Y365216D02*
X363386D01*
Y319843D02*
Y331653D01*
X357874Y319843D02*
Y331653D01*
Y319843D02*
X363386D01*
X357874Y331653D02*
X363386D01*
X334055Y362067D02*
X337402D01*
X334055Y355374D02*
X337402D01*
Y362067D01*
X334055Y355374D02*
Y362067D01*
X335630Y373780D02*
Y375945D01*
X331496D02*
X335630D01*
X331496Y373780D02*
X335630D01*
X331496D02*
Y375945D01*
X334055Y395630D02*
X337402D01*
X334055Y388937D02*
X337402D01*
Y395630D01*
X334055Y388937D02*
Y395630D01*
X334646Y370630D02*
X336811D01*
X334646Y366496D02*
Y370630D01*
X336811Y366496D02*
Y370630D01*
X334646Y366496D02*
X336811D01*
X330315Y370630D02*
X332480D01*
X330315Y366496D02*
Y370630D01*
X332480Y366496D02*
Y370630D01*
X330315Y366496D02*
X332480D01*
X339548Y322401D02*
Y347401D01*
Y322401D02*
X352382D01*
X339548Y347401D02*
X352382D01*
Y322401D02*
Y347401D01*
X320421Y336291D02*
X322587D01*
Y340425D01*
X320421Y336291D02*
Y340425D01*
X322587D01*
X323571Y345838D02*
Y352531D01*
X320224Y345838D02*
Y352531D01*
X323571D01*
X320224Y345838D02*
X323571D01*
X320740Y356862D02*
X322905D01*
Y360996D01*
X320740Y356862D02*
Y360996D01*
X322905D01*
X265402Y463358D02*
X267567D01*
Y467492D01*
X265402Y463358D02*
Y467492D01*
X267567D01*
X303051Y432677D02*
X305217Y432677D01*
Y436811D01*
X303051Y432677D02*
Y436811D01*
X305217Y436811D01*
X241339Y356791D02*
Y358957D01*
X237205D02*
X241339D01*
X237205Y356791D02*
X241339D01*
X237205D02*
Y358957D01*
X298819Y432677D02*
X300984D01*
Y436811D01*
X298819Y432677D02*
Y436811D01*
X300984D01*
X335630Y583858D02*
Y586024D01*
X331496D02*
X335630D01*
X331496Y583858D02*
X335630D01*
X331496D02*
Y586024D01*
X330315Y572008D02*
X332480D01*
X330315Y567874D02*
Y572008D01*
X332480Y567874D02*
Y572008D01*
X330315Y567874D02*
X332480D01*
X335630Y575157D02*
Y577323D01*
X331496D02*
X335630D01*
X331496Y575157D02*
X335630D01*
X331496D02*
Y577323D01*
X335630Y579390D02*
Y581555D01*
X331496D02*
X335630D01*
X331496Y579390D02*
X335630D01*
X331496D02*
Y581555D01*
X334055Y563445D02*
X337402D01*
X334055Y556752D02*
X337402D01*
Y563445D01*
X334055Y556752D02*
Y563445D01*
X339548Y557342D02*
Y582342D01*
Y557342D02*
X352382D01*
X339548Y582342D02*
X352382D01*
Y557342D02*
Y582342D01*
X334646Y572008D02*
X336811D01*
X334646Y567874D02*
Y572008D01*
X336811Y567874D02*
Y572008D01*
X334646Y567874D02*
X336811D01*
X363386Y521220D02*
Y533032D01*
X357874Y521220D02*
Y533032D01*
Y521220D02*
X363386D01*
X357874Y533032D02*
X363386D01*
Y554783D02*
Y566594D01*
X357874Y554783D02*
Y566594D01*
Y554783D02*
X363386D01*
X357874Y566594D02*
X363386D01*
X335630Y508032D02*
Y510197D01*
X331496D02*
X335630D01*
X331496Y508032D02*
X335630D01*
X331496D02*
Y510197D01*
X335630Y512264D02*
Y514429D01*
X331496D02*
X335630D01*
X331496Y512264D02*
X335630D01*
X331496D02*
Y514429D01*
X330315Y504882D02*
X332480D01*
X330315Y500748D02*
Y504882D01*
X332480Y500748D02*
Y504882D01*
X330315Y500748D02*
X332480D01*
X334646Y504882D02*
X336811D01*
X334646Y500748D02*
Y504882D01*
X336811Y500748D02*
Y504882D01*
X334646Y500748D02*
X336811D01*
X330315Y538445D02*
X332480D01*
X330315Y534311D02*
Y538445D01*
X332480Y534311D02*
Y538445D01*
X330315Y534311D02*
X332480D01*
X339548Y523779D02*
Y548779D01*
Y523779D02*
X352382D01*
X339548Y548779D02*
X352382D01*
Y523779D02*
Y548779D01*
X334646Y538445D02*
X336811D01*
X334646Y534311D02*
Y538445D01*
X336811Y534311D02*
Y538445D01*
X334646Y534311D02*
X336811D01*
X335630Y545827D02*
Y547992D01*
X331496D02*
X335630D01*
X331496Y545827D02*
X335630D01*
X331496D02*
Y547992D01*
X334055Y529882D02*
X337402D01*
X334055Y523189D02*
X337402D01*
Y529882D01*
X334055Y523189D02*
Y529882D01*
X335630Y541594D02*
Y543760D01*
X331496D02*
X335630D01*
X331496Y541594D02*
X335630D01*
X331496D02*
Y543760D01*
X335630Y588189D02*
Y590354D01*
X331496D02*
X335630D01*
X331496Y588189D02*
X335630D01*
X331496D02*
Y590354D01*
X90479Y552193D02*
X92644D01*
Y556327D01*
X90479Y552193D02*
Y556327D01*
X92644D01*
X91488Y547075D02*
X91488Y549240D01*
X91488Y547075D02*
X95622D01*
X91488Y549240D02*
X95622D01*
X95622Y547075D02*
X95622Y549240D01*
X89815Y560658D02*
Y567350D01*
X93161Y560658D02*
Y567350D01*
X89815Y560658D02*
X93161D01*
X89815Y567350D02*
X93161D01*
X95228Y551602D02*
Y578276D01*
Y551602D02*
X114913D01*
Y578276D01*
X95228D02*
X114913D01*
X90799Y572764D02*
X92965D01*
Y576898D01*
X90799Y572764D02*
Y576898D01*
X92965D01*
X50000Y581535D02*
X55512D01*
X50000Y593347D02*
X55512D01*
Y581535D02*
Y593347D01*
X50000Y581535D02*
Y593347D01*
X148378Y452882D02*
Y455047D01*
X144244D02*
X148378D01*
X144244Y452882D02*
X148378D01*
X144244D02*
Y455047D01*
X142079Y472370D02*
Y474536D01*
Y472370D02*
X146213D01*
X142079Y474536D02*
X146213D01*
Y472370D02*
Y474536D01*
X125937Y475224D02*
Y477390D01*
Y475224D02*
X130071D01*
X125937Y477390D02*
X130071D01*
Y475224D02*
Y477390D01*
X142079Y468236D02*
Y470402D01*
Y468236D02*
X146213D01*
X142079Y470402D02*
X146213D01*
Y468236D02*
Y470402D01*
X142079Y464004D02*
Y466169D01*
Y464004D02*
X146213D01*
X142079Y466169D02*
X146213D01*
Y464004D02*
Y466169D01*
X138142Y472370D02*
Y474536D01*
X134008D02*
X138142D01*
X134008Y472370D02*
X138142D01*
X134008D02*
Y474536D01*
X120768Y480315D02*
X122933D01*
X120768Y476181D02*
Y480315D01*
X122933Y476181D02*
Y480315D01*
X120768Y476181D02*
X122933D01*
X138142Y468236D02*
Y470402D01*
X134008D02*
X138142D01*
X134008Y468236D02*
X138142D01*
X134008D02*
Y470402D01*
X138142Y464004D02*
Y466169D01*
X134008D02*
X138142D01*
X134008Y464004D02*
X138142D01*
X134008D02*
Y466169D01*
X138240Y459772D02*
Y461937D01*
X134106D02*
X138240D01*
X134106Y459772D02*
X138240D01*
X134106D02*
Y461937D01*
X146311Y459772D02*
Y461937D01*
X142177D02*
X146311D01*
X142177Y459772D02*
X146311D01*
X142177D02*
Y461937D01*
X141587Y441662D02*
X143752D01*
X141587Y437528D02*
Y441662D01*
X143752Y437528D02*
Y441662D01*
X141587Y437528D02*
X143752D01*
X141587Y445697D02*
X143752D01*
Y449831D01*
X141587Y445697D02*
Y449831D01*
X143752D01*
X145819Y445697D02*
X147984D01*
Y449831D01*
X145819Y445697D02*
Y449831D01*
X147984D01*
X81890Y327165D02*
Y329331D01*
X77756D02*
X81890D01*
X77756Y327165D02*
X81890D01*
X77756D02*
Y329331D01*
Y322835D02*
Y325000D01*
Y322835D02*
X81890D01*
X77756Y325000D02*
X81890D01*
Y322835D02*
Y325000D01*
X137354Y437528D02*
X139520D01*
Y441662D01*
X137354Y437528D02*
Y441662D01*
X139520D01*
X133122Y437528D02*
X135287D01*
Y441662D01*
X133122Y437528D02*
Y441662D01*
X135287D01*
X133122Y449831D02*
X135287D01*
X133122Y445697D02*
Y449831D01*
X135287Y445697D02*
Y449831D01*
X133122Y445697D02*
X135287D01*
X137354Y449831D02*
X139520D01*
X137354Y445697D02*
Y449831D01*
X139520Y445697D02*
Y449831D01*
X137354Y445697D02*
X139520D01*
X50000Y346595D02*
X55512D01*
X50000Y358405D02*
X55512D01*
Y346595D02*
Y358405D01*
X50000Y346595D02*
Y358405D01*
X76575Y345315D02*
X78740D01*
X76575Y341181D02*
Y345315D01*
X78740Y341181D02*
Y345315D01*
X76575Y341181D02*
X78740D01*
X61004Y330847D02*
Y355847D01*
Y330847D02*
X73838D01*
X61004Y355847D02*
X73838D01*
Y330847D02*
Y355847D01*
X81890Y331634D02*
Y333799D01*
X77756D02*
X81890D01*
X77756Y331634D02*
X81890D01*
X77756D02*
Y333799D01*
X81890Y335866D02*
Y338032D01*
X77756D02*
X81890D01*
X77756Y335866D02*
X81890D01*
X77756D02*
Y338032D01*
X79331Y349744D02*
Y356437D01*
X75984Y349744D02*
Y356437D01*
X79331D01*
X75984Y349744D02*
X79331D01*
X80905Y345315D02*
X83071D01*
X80905Y341181D02*
Y345315D01*
X83071Y341181D02*
Y345315D01*
X80905Y341181D02*
X83071D01*
X50000Y380157D02*
X55512D01*
X50000Y391968D02*
X55512D01*
Y380157D02*
Y391968D01*
X50000Y380157D02*
Y391968D01*
X76575Y378878D02*
X78740D01*
X76575Y374744D02*
Y378878D01*
X78740Y374744D02*
Y378878D01*
X76575Y374744D02*
X78740D01*
X61004Y364410D02*
Y389410D01*
Y364410D02*
X73838D01*
X61004Y389410D02*
X73838D01*
Y364410D02*
Y389410D01*
X81890Y365197D02*
Y367362D01*
X77756D02*
X81890D01*
X77756Y365197D02*
X81890D01*
X77756D02*
Y367362D01*
X81890Y369429D02*
Y371595D01*
X77756D02*
X81890D01*
X77756Y369429D02*
X81890D01*
X77756D02*
Y371595D01*
X79331Y383307D02*
Y390000D01*
X75984Y383307D02*
Y390000D01*
X79331D01*
X75984Y383307D02*
X79331D01*
X80905Y378878D02*
X83071D01*
X80905Y374744D02*
Y378878D01*
X83071Y374744D02*
Y378878D01*
X80905Y374744D02*
X83071D01*
X50000Y413721D02*
X55512D01*
X50000Y425531D02*
X55512D01*
Y413721D02*
Y425531D01*
X50000Y413721D02*
Y425531D01*
X76575Y412441D02*
X78740D01*
X76575Y408307D02*
Y412441D01*
X78740Y408307D02*
Y412441D01*
X76575Y408307D02*
X78740D01*
X61004Y397973D02*
Y422973D01*
Y397973D02*
X73838D01*
X61004Y422973D02*
X73838D01*
Y397973D02*
Y422973D01*
X81890Y398760D02*
Y400925D01*
X77756D02*
X81890D01*
X77756Y398760D02*
X81890D01*
X77756D02*
Y400925D01*
X81890Y402992D02*
Y405158D01*
X77756D02*
X81890D01*
X77756Y402992D02*
X81890D01*
X77756D02*
Y405158D01*
X79331Y416870D02*
Y423563D01*
X75984Y416870D02*
Y423563D01*
X79331D01*
X75984Y416870D02*
X79331D01*
X80905Y412441D02*
X83071D01*
X80905Y408307D02*
Y412441D01*
X83071Y408307D02*
Y412441D01*
X80905Y408307D02*
X83071D01*
X50000Y447284D02*
X55512D01*
X50000Y459094D02*
X55512D01*
Y447284D02*
Y459094D01*
X50000Y447284D02*
Y459094D01*
X76575Y446004D02*
X78740D01*
X76575Y441870D02*
Y446004D01*
X78740Y441870D02*
Y446004D01*
X76575Y441870D02*
X78740D01*
X61004Y431536D02*
Y456536D01*
Y431536D02*
X73838D01*
X61004Y456536D02*
X73838D01*
Y431536D02*
Y456536D01*
X81890Y432323D02*
Y434488D01*
X77756D02*
X81890D01*
X77756Y432323D02*
X81890D01*
X77756D02*
Y434488D01*
X81890Y436555D02*
Y438721D01*
X77756D02*
X81890D01*
X77756Y436555D02*
X81890D01*
X77756D02*
Y438721D01*
X79331Y450433D02*
Y457126D01*
X75984Y450433D02*
Y457126D01*
X79331D01*
X75984Y450433D02*
X79331D01*
X80905Y446004D02*
X83071D01*
X80905Y441870D02*
Y446004D01*
X83071Y441870D02*
Y446004D01*
X80905Y441870D02*
X83071D01*
X50000Y480847D02*
X55512D01*
X50000Y492658D02*
X55512D01*
Y480847D02*
Y492658D01*
X50000Y480847D02*
Y492658D01*
X76575Y479567D02*
X78740D01*
X76575Y475433D02*
Y479567D01*
X78740Y475433D02*
Y479567D01*
X76575Y475433D02*
X78740D01*
X61004Y465099D02*
Y490099D01*
Y465099D02*
X73838D01*
X61004Y490099D02*
X73838D01*
Y465099D02*
Y490099D01*
X81890Y465886D02*
Y468051D01*
X77756D02*
X81890D01*
X77756Y465886D02*
X81890D01*
X77756D02*
Y468051D01*
X81890Y470118D02*
Y472284D01*
X77756D02*
X81890D01*
X77756Y470118D02*
X81890D01*
X77756D02*
Y472284D01*
X79331Y483996D02*
Y490689D01*
X75984Y483996D02*
Y490689D01*
X79331D01*
X75984Y483996D02*
X79331D01*
X80905Y479567D02*
X83071D01*
X80905Y475433D02*
Y479567D01*
X83071Y475433D02*
Y479567D01*
X80905Y475433D02*
X83071D01*
X50000Y514409D02*
X55512D01*
X50000Y526221D02*
X55512D01*
Y514409D02*
Y526221D01*
X50000Y514409D02*
Y526221D01*
X76575Y513130D02*
X78740D01*
X76575Y508996D02*
Y513130D01*
X78740Y508996D02*
Y513130D01*
X76575Y508996D02*
X78740D01*
X61004Y498662D02*
Y523662D01*
Y498662D02*
X73838D01*
X61004Y523662D02*
X73838D01*
Y498662D02*
Y523662D01*
X81890Y499449D02*
Y501614D01*
X77756D02*
X81890D01*
X77756Y499449D02*
X81890D01*
X77756D02*
Y501614D01*
X81890Y503681D02*
Y505847D01*
X77756D02*
X81890D01*
X77756Y503681D02*
X81890D01*
X77756D02*
Y505847D01*
X79331Y517559D02*
Y524252D01*
X75984Y517559D02*
Y524252D01*
X79331D01*
X75984Y517559D02*
X79331D01*
X80905Y513130D02*
X83071D01*
X80905Y508996D02*
Y513130D01*
X83071Y508996D02*
Y513130D01*
X80905Y508996D02*
X83071D01*
X50000Y547972D02*
X55512D01*
X50000Y559784D02*
X55512D01*
Y547972D02*
Y559784D01*
X50000Y547972D02*
Y559784D01*
X76575Y546693D02*
X78740D01*
X76575Y542559D02*
Y546693D01*
X78740Y542559D02*
Y546693D01*
X76575Y542559D02*
X78740D01*
X61004Y532225D02*
Y557225D01*
Y532225D02*
X73838D01*
X61004Y557225D02*
X73838D01*
Y532225D02*
Y557225D01*
X81890Y533012D02*
Y535177D01*
X77756D02*
X81890D01*
X77756Y533012D02*
X81890D01*
X77756D02*
Y535177D01*
X81890Y537244D02*
Y539409D01*
X77756D02*
X81890D01*
X77756Y537244D02*
X81890D01*
X77756D02*
Y539409D01*
X79331Y551122D02*
Y557815D01*
X75984Y551122D02*
Y557815D01*
X79331D01*
X75984Y551122D02*
X79331D01*
X80905Y546693D02*
X83071D01*
X80905Y542559D02*
Y546693D01*
X83071Y542559D02*
Y546693D01*
X80905Y542559D02*
X83071D01*
X76575Y580256D02*
X78740D01*
X76575Y576122D02*
Y580256D01*
X78740Y576122D02*
Y580256D01*
X76575Y576122D02*
X78740D01*
X61004Y565788D02*
Y590788D01*
Y565788D02*
X73838D01*
X61004Y590788D02*
X73838D01*
Y565788D02*
Y590788D01*
X81890Y566575D02*
Y568740D01*
X77756D02*
X81890D01*
X77756Y566575D02*
X81890D01*
X77756D02*
Y568740D01*
X81890Y570807D02*
Y572972D01*
X77756D02*
X81890D01*
X77756Y570807D02*
X81890D01*
X77756D02*
Y572972D01*
X79331Y584685D02*
Y591378D01*
X75984Y584685D02*
Y591378D01*
X79331D01*
X75984Y584685D02*
X79331D01*
X80905Y580256D02*
X83071D01*
X80905Y576122D02*
Y580256D01*
X83071Y576122D02*
Y580256D01*
X80905Y576122D02*
X83071D01*
X113681Y480512D02*
X115847D01*
X113681Y476378D02*
Y480512D01*
X115847Y476378D02*
Y480512D01*
X113681Y476378D02*
X115847D01*
X160138Y358858D02*
X160138Y356693D01*
X156004Y358858D02*
X160138D01*
X156004Y356693D02*
X160138D01*
X156004D02*
Y358858D01*
X109449Y480512D02*
X111614D01*
X109449Y476378D02*
Y480512D01*
X111614Y476378D02*
Y480512D01*
X109449Y476378D02*
X111614D01*
M02*
