G04*
G04 #@! TF.GenerationSoftware,Altium Limited,Altium Designer,22.0.2 (36)*
G04*
G04 Layer_Color=8388736*
%FSLAX25Y25*%
%MOIN*%
G70*
G04*
G04 #@! TF.SameCoordinates,BDA990A8-0A96-437A-976C-4807BF83E6F5*
G04*
G04*
G04 #@! TF.FilePolarity,Positive*
G04*
G01*
G75*
%ADD11C,0.00787*%
%ADD14C,0.00500*%
D11*
X192752Y248583D02*
G03*
X192752Y248583I-1181J0D01*
G01*
X30098Y167815D02*
G03*
X30098Y167815I-394J0D01*
G01*
X384075Y136575D02*
G03*
X384075Y136575I-394J0D01*
G01*
X324646Y29634D02*
G03*
X324646Y29634I-394J0D01*
G01*
X119331D02*
G03*
X119331Y29634I-394J0D01*
G01*
X30098Y377531D02*
G03*
X30098Y377531I-394J0D01*
G01*
X384075Y535657D02*
G03*
X384075Y535657I-394J0D01*
G01*
Y389693D02*
G03*
X384075Y389693I-394J0D01*
G01*
X30098Y519685D02*
G03*
X30098Y519685I-394J0D01*
G01*
D14*
X186693Y217913D02*
Y257283D01*
X230630Y217913D02*
Y257283D01*
X186693D02*
X230630D01*
X186693Y217913D02*
X230630D01*
X7343Y122697D02*
Y125787D01*
X7343Y178347D02*
Y181437D01*
X3839Y122697D02*
X7343D01*
X3839Y181437D02*
X7343D01*
X3839Y122697D02*
Y181437D01*
X7343Y125787D02*
X25098D01*
X7343Y178347D02*
X25098D01*
X-3642Y181437D02*
X3839Y181437D01*
X-3642Y122697D02*
Y181437D01*
Y122697D02*
X3839Y122697D01*
X25098Y125787D02*
Y178347D01*
X388287Y126043D02*
Y178602D01*
X409547Y181693D02*
X417028Y181693D01*
Y122953D02*
Y181693D01*
X409547Y122953D02*
X417028Y122953D01*
X388287Y126043D02*
X406043D01*
X388287Y178602D02*
X406043D01*
X409547Y122953D02*
Y181693D01*
X406043Y122953D02*
X409547D01*
X406043Y181693D02*
X409547D01*
X406043Y122953D02*
Y126043D01*
Y178602D02*
Y181693D01*
X313720Y25028D02*
X366280D01*
X369370Y-3712D02*
Y3768D01*
X310630Y-3712D02*
X369370D01*
X310630D02*
Y3768D01*
X313720Y7272D02*
Y25028D01*
X366280Y7272D02*
Y25028D01*
X310630Y3768D02*
X369370D01*
X310630D02*
Y7272D01*
X369370Y3768D02*
Y7272D01*
X310630D02*
X313720D01*
X366280D02*
X369370D01*
X108405Y25028D02*
X160965D01*
X164055Y-3712D02*
Y3768D01*
X105315Y-3712D02*
X164055D01*
X105315D02*
Y3768D01*
X108405Y7272D02*
Y25028D01*
X160965Y7272D02*
Y25028D01*
X105315Y3768D02*
X164055D01*
X105315D02*
Y7272D01*
X164055Y3768D02*
Y7272D01*
X105315D02*
X108405D01*
X160965D02*
X164055D01*
X25098Y335504D02*
Y388063D01*
X-3642Y332413D02*
X3839D01*
X-3642D02*
Y391153D01*
X3839D01*
X7343Y388063D02*
X25098D01*
X7343Y335504D02*
X25098D01*
X3839Y332413D02*
Y391153D01*
X7343D01*
X3839Y332413D02*
X7343D01*
Y388063D02*
Y391153D01*
Y332413D02*
Y335504D01*
X406043Y577685D02*
Y580776D01*
Y522035D02*
Y525126D01*
Y580776D02*
X409547D01*
X406043Y522035D02*
X409547D01*
Y580776D01*
X388287Y577685D02*
X406043D01*
X388287Y525126D02*
X406043D01*
X409547Y522035D02*
X417028D01*
Y580776D01*
X409547D02*
X417028D01*
X388287Y525126D02*
Y577685D01*
X406043Y431720D02*
Y434811D01*
Y376071D02*
Y379161D01*
Y434811D02*
X409547D01*
X406043Y376071D02*
X409547D01*
Y434811D01*
X388287Y431720D02*
X406043D01*
X388287Y379161D02*
X406043D01*
X409547Y376071D02*
X417028D01*
Y434811D01*
X409547D02*
X417028D01*
X388287Y379161D02*
Y431720D01*
X7343Y474567D02*
Y477658D01*
Y530217D02*
Y533307D01*
X3839Y474567D02*
X7343D01*
X3839Y533307D02*
X7343D01*
X3839Y474567D02*
Y533307D01*
X7343Y477658D02*
X25098D01*
X7343Y530217D02*
X25098D01*
X-3642Y533307D02*
X3839D01*
X-3642Y474567D02*
Y533307D01*
Y474567D02*
X3839D01*
X25098Y477658D02*
Y530217D01*
M02*
