G04*
G04 #@! TF.GenerationSoftware,Altium Limited,Altium Designer,22.0.2 (36)*
G04*
G04 Layer_Physical_Order=2*
G04 Layer_Color=32768*
%FSLAX25Y25*%
%MOIN*%
G70*
G04*
G04 #@! TF.SameCoordinates,BDA990A8-0A96-437A-976C-4807BF83E6F5*
G04*
G04*
G04 #@! TF.FilePolarity,Negative*
G04*
G01*
G75*
%ADD80C,0.00600*%
%ADD87C,0.04000*%
%ADD88C,0.03937*%
%ADD89C,0.16598*%
%ADD90C,0.37465*%
%ADD91C,0.04787*%
%ADD92C,0.05181*%
D80*
X179232Y641732D02*
X205906D01*
X122638Y246358D02*
X122638D01*
Y187008D02*
X214567D01*
X122638Y246358D02*
X133957Y257677D01*
Y257677D01*
X122638Y187008D02*
Y246358D01*
X265551Y386614D02*
Y397933D01*
X205906D02*
X265551D01*
Y216732D02*
Y386614D01*
X214567Y187008D02*
X218504Y190945D01*
X133957Y257677D02*
Y386024D01*
X145866Y397933D01*
X205709D01*
Y441339D01*
X218504Y190945D02*
X225492Y197933D01*
X413386Y-0D02*
Y535433D01*
X-0D02*
X0Y-0D01*
X413386D01*
D87*
X-0Y15748D02*
G03*
X15748Y-0I15748J0D01*
G01*
X397638Y-0D02*
G03*
X413386Y15748I-0J15748D01*
G01*
Y625984D02*
G03*
X397638Y641732I-15748J0D01*
G01*
X15748Y641732D02*
G03*
X-0Y625984I0J-15748D01*
G01*
X413386Y15748D02*
Y625984D01*
X15748Y641732D02*
X397638D01*
X-0Y625984D02*
X-0Y535433D01*
X-0Y15748D02*
X-0Y535433D01*
X15748Y-0D02*
X397638Y-0D01*
D88*
X205906Y612218D02*
Y641732D01*
X1280Y187008D02*
X63287D01*
X122638Y246358D01*
X205906Y612218D02*
X205906Y397933D01*
X265551Y216732D02*
X284350Y197933D01*
X225492D02*
X284350D01*
X300098Y182185D01*
X413386D01*
D89*
X40157Y122047D02*
D03*
X370866Y618110D02*
D03*
X40157Y618110D02*
D03*
X205512Y287402D02*
D03*
X288189D02*
D03*
Y122047D02*
D03*
D90*
X205512Y618110D02*
D03*
Y122047D02*
D03*
D91*
X273130Y411614D02*
D03*
X96260Y172047D02*
D03*
X91437Y169783D02*
D03*
X93731Y167618D02*
D03*
X87569Y177657D02*
D03*
X90915Y175689D02*
D03*
X94261Y174508D02*
D03*
X131889Y366141D02*
D03*
Y342519D02*
D03*
Y318897D02*
D03*
Y295275D02*
D03*
Y271653D02*
D03*
X122441Y427756D02*
D03*
X118286Y256988D02*
D03*
X181746Y177835D02*
D03*
X172464Y173228D02*
D03*
X166176Y169962D02*
D03*
X168735Y171931D02*
D03*
X134756Y142937D02*
D03*
X275342Y439736D02*
D03*
X302658Y460433D02*
D03*
X303543Y457382D02*
D03*
X305807Y452362D02*
D03*
X307874Y448721D02*
D03*
X266484Y467394D02*
D03*
X265008Y459224D02*
D03*
X275244Y443870D02*
D03*
Y448102D02*
D03*
X259299Y447047D02*
D03*
X279528Y478740D02*
D03*
X279181Y452335D02*
D03*
X136811Y157776D02*
D03*
X147343D02*
D03*
X138240Y460854D02*
D03*
X131496Y460236D02*
D03*
X117618Y251673D02*
D03*
X96358Y326870D02*
D03*
X93110Y324902D02*
D03*
X138988Y138901D02*
D03*
X175634Y174409D02*
D03*
X178740Y176181D02*
D03*
X295913Y463653D02*
D03*
X117473Y449536D02*
D03*
X150307Y122366D02*
D03*
X52550Y101422D02*
D03*
X50462Y96789D02*
D03*
Y92852D02*
D03*
Y94821D02*
D03*
Y98758D02*
D03*
Y100726D02*
D03*
X52550Y97485D02*
D03*
X52550Y91580D02*
D03*
Y95517D02*
D03*
Y93548D02*
D03*
Y99454D02*
D03*
X54638Y96213D02*
D03*
Y92276D02*
D03*
Y94244D02*
D03*
Y100150D02*
D03*
Y102118D02*
D03*
Y98181D02*
D03*
X225492Y184055D02*
D03*
X263976Y184153D02*
D03*
X225295Y189370D02*
D03*
X277362Y179134D02*
D03*
X230335Y128032D02*
D03*
X226181Y133858D02*
D03*
X92028Y329035D02*
D03*
X91929Y332382D02*
D03*
X288287Y266929D02*
D03*
Y271929D02*
D03*
X339075Y262106D02*
D03*
X123437Y122661D02*
D03*
X165650Y118504D02*
D03*
X169291Y116535D02*
D03*
X174409Y117126D02*
D03*
X160236Y120943D02*
D03*
X348819Y130709D02*
D03*
X363583Y136122D02*
D03*
X348819Y141535D02*
D03*
X363583Y146949D02*
D03*
Y157776D02*
D03*
X348819Y152362D02*
D03*
X64567Y146653D02*
D03*
X49803Y162894D02*
D03*
X64567Y168307D02*
D03*
Y157480D02*
D03*
X49803Y152067D02*
D03*
X50197Y141240D02*
D03*
X49803Y227165D02*
D03*
Y237992D02*
D03*
Y248819D02*
D03*
Y259646D02*
D03*
X64567Y243406D02*
D03*
Y254232D02*
D03*
Y265059D02*
D03*
Y232579D02*
D03*
X49803Y302953D02*
D03*
Y281299D02*
D03*
Y270473D02*
D03*
Y292126D02*
D03*
X64567Y297539D02*
D03*
Y308366D02*
D03*
X80315Y261929D02*
D03*
Y256929D02*
D03*
X64567Y275886D02*
D03*
Y286713D02*
D03*
X124213Y313189D02*
D03*
X126390Y142937D02*
D03*
X130524Y142937D02*
D03*
X150307Y124335D02*
D03*
X145878Y152779D02*
D03*
X154047Y151795D02*
D03*
X154047Y147563D02*
D03*
X150307Y126303D02*
D03*
X156213Y124335D02*
D03*
X158181D02*
D03*
X156213Y126303D02*
D03*
X158181D02*
D03*
X289222Y210876D02*
D03*
X363583Y299803D02*
D03*
X348819Y294390D02*
D03*
X363583Y288976D02*
D03*
X348819Y283563D02*
D03*
X363583Y278150D02*
D03*
X348819Y272736D02*
D03*
X363583Y267323D02*
D03*
X348819Y261910D02*
D03*
X363583Y256496D02*
D03*
X348819Y251083D02*
D03*
X363583Y245669D02*
D03*
X348819Y240256D02*
D03*
X363583Y234842D02*
D03*
X348819Y229429D02*
D03*
X363583Y224016D02*
D03*
X348819Y218602D02*
D03*
X314220Y336094D02*
D03*
X316189D02*
D03*
X313236Y338063D02*
D03*
X315205D02*
D03*
X314220Y340031D02*
D03*
X316189D02*
D03*
X315205Y342000D02*
D03*
X313447Y362627D02*
D03*
X304877Y364715D02*
D03*
X310783D02*
D03*
X306846D02*
D03*
X312751D02*
D03*
X308814D02*
D03*
X310087Y366803D02*
D03*
X306150D02*
D03*
X308118D02*
D03*
X304181D02*
D03*
X314024D02*
D03*
X312055D02*
D03*
X295421Y436882D02*
D03*
X270717Y467393D02*
D03*
X291976Y463653D02*
D03*
Y469756D02*
D03*
Y471724D02*
D03*
X293945Y463653D02*
D03*
Y471724D02*
D03*
Y469756D02*
D03*
X314720Y364715D02*
D03*
X331705Y266898D02*
D03*
X310283Y336094D02*
D03*
X304378D02*
D03*
X302410D02*
D03*
X306347D02*
D03*
X300441D02*
D03*
X308315D02*
D03*
X312252D02*
D03*
X309299Y338063D02*
D03*
X305362D02*
D03*
X303394D02*
D03*
X307331D02*
D03*
X301425D02*
D03*
X311268D02*
D03*
X310283Y340031D02*
D03*
X302409D02*
D03*
X308315D02*
D03*
X300441D02*
D03*
X306347D02*
D03*
X304378D02*
D03*
X312252D02*
D03*
X305362Y342000D02*
D03*
X301425D02*
D03*
X309299D02*
D03*
X307331D02*
D03*
X303394D02*
D03*
X311268D02*
D03*
X313236D02*
D03*
X309510Y362627D02*
D03*
X305573D02*
D03*
X307541D02*
D03*
X311478D02*
D03*
X122394Y443630D02*
D03*
X120425D02*
D03*
X121409Y441760D02*
D03*
X119441D02*
D03*
X139331Y427659D02*
D03*
X148280Y453965D02*
D03*
X142669Y445795D02*
D03*
X146902Y445795D02*
D03*
X138043Y465087D02*
D03*
Y473453D02*
D03*
X138043Y469319D02*
D03*
X107039Y577095D02*
D03*
X99165D02*
D03*
X101134D02*
D03*
X105071D02*
D03*
X103102D02*
D03*
X98181Y575126D02*
D03*
X104087D02*
D03*
X106055D02*
D03*
X100150D02*
D03*
X102118D02*
D03*
X109992D02*
D03*
X108024D02*
D03*
X102603Y548474D02*
D03*
X107813Y550562D02*
D03*
X103876D02*
D03*
X105844D02*
D03*
X108509Y548474D02*
D03*
X101907Y550562D02*
D03*
X105071Y573158D02*
D03*
X103102D02*
D03*
X101134D02*
D03*
X104087Y571189D02*
D03*
X108024D02*
D03*
X109205Y546386D02*
D03*
X98666Y548474D02*
D03*
X99939Y550562D02*
D03*
X100635Y548474D02*
D03*
X99362Y546386D02*
D03*
X107236D02*
D03*
X106540Y548474D02*
D03*
X104572D02*
D03*
X105268Y546386D02*
D03*
X103299D02*
D03*
X101331D02*
D03*
X97197Y577095D02*
D03*
X111961Y575126D02*
D03*
X112945Y577095D02*
D03*
X109008D02*
D03*
X110976D02*
D03*
X109992Y571189D02*
D03*
X106055D02*
D03*
X109008Y573158D02*
D03*
X107039D02*
D03*
X97197D02*
D03*
X98181Y571189D02*
D03*
X102118D02*
D03*
X100150D02*
D03*
X99165Y573158D02*
D03*
X112945D02*
D03*
X110976D02*
D03*
X111961Y571189D02*
D03*
X121850Y480217D02*
D03*
X121409Y449536D02*
D03*
X119441D02*
D03*
D92*
X26673Y68405D02*
D03*
X31102Y63090D02*
D03*
X60236Y68405D02*
D03*
X64665Y63090D02*
D03*
X98228Y63091D02*
D03*
X131791D02*
D03*
X127362Y68405D02*
D03*
X93799D02*
D03*
X400295Y63091D02*
D03*
X395866Y68405D02*
D03*
X366732Y63091D02*
D03*
X362303Y68405D02*
D03*
X328740D02*
D03*
X333169Y63091D02*
D03*
X295177Y68405D02*
D03*
X228051D02*
D03*
X299606Y63091D02*
D03*
X266043D02*
D03*
X232480D02*
D03*
X261614Y68405D02*
D03*
X198917Y63091D02*
D03*
X194488Y68405D02*
D03*
X160925D02*
D03*
X165354Y63091D02*
D03*
X341831Y338839D02*
D03*
X347146Y343268D02*
D03*
X341831Y372401D02*
D03*
Y439528D02*
D03*
Y405965D02*
D03*
Y506653D02*
D03*
Y473091D02*
D03*
Y540216D02*
D03*
Y573779D02*
D03*
X347146Y443957D02*
D03*
Y511083D02*
D03*
Y410394D02*
D03*
Y477520D02*
D03*
Y376831D02*
D03*
Y544646D02*
D03*
Y578209D02*
D03*
X66240Y334980D02*
D03*
Y502795D02*
D03*
Y402106D02*
D03*
Y368543D02*
D03*
Y435669D02*
D03*
Y469232D02*
D03*
X71555Y507225D02*
D03*
Y473662D02*
D03*
Y406535D02*
D03*
Y339409D02*
D03*
Y372972D02*
D03*
Y440098D02*
D03*
X66240Y536358D02*
D03*
Y569921D02*
D03*
X71555Y540788D02*
D03*
Y574351D02*
D03*
M02*
