G04*
G04 #@! TF.GenerationSoftware,Altium Limited,Altium Designer,22.0.2 (36)*
G04*
G04 Layer_Color=255*
%FSLAX25Y25*%
%MOIN*%
G70*
G04*
G04 #@! TF.SameCoordinates,96C594F5-09A6-44E4-9295-8D84F0ECB15E*
G04*
G04*
G04 #@! TF.FilePolarity,Positive*
G04*
G01*
G75*
%ADD16R,0.04016X0.12520*%
%ADD17R,0.04488X0.07992*%
%ADD18R,0.07874X0.02402*%
%ADD19R,0.14173X0.10551*%
%ADD20R,0.03937X0.03937*%
%ADD21R,0.02992X0.05000*%
%ADD22C,0.04724*%
%ADD23O,0.06496X0.01181*%
%ADD24R,0.05000X0.02992*%
%ADD25R,0.11496X0.05000*%
%ADD26R,0.06496X0.13504*%
%ADD27R,0.02165X0.02165*%
%ADD28R,0.02165X0.02165*%
%ADD29R,0.03150X0.03150*%
%ADD30R,0.02362X0.02756*%
%ADD31R,0.07874X0.02362*%
%ADD32R,0.07992X0.04488*%
%ADD33O,0.01181X0.06496*%
%ADD34R,0.18110X0.18504*%
%ADD35R,0.04528X0.02756*%
%ADD36R,0.11811X0.05906*%
%ADD37R,0.05906X0.11811*%
%ADD38R,0.02402X0.07874*%
%ADD39R,0.10551X0.14173*%
%ADD40R,0.02756X0.02362*%
%ADD41R,0.03150X0.03150*%
%ADD42R,0.12520X0.04016*%
%ADD43R,0.02756X0.04528*%
%ADD44R,0.18504X0.18110*%
%ADD83C,0.27559*%
D16*
X68898Y64272D02*
D03*
X43898D02*
D03*
X35335Y64272D02*
D03*
X10335D02*
D03*
X77461D02*
D03*
X102461D02*
D03*
X236713D02*
D03*
X211713D02*
D03*
X203150D02*
D03*
X178150D02*
D03*
X169587D02*
D03*
X144587D02*
D03*
X370965D02*
D03*
X345965D02*
D03*
X303839D02*
D03*
X278839D02*
D03*
X337402D02*
D03*
X312402D02*
D03*
X379528D02*
D03*
X404528D02*
D03*
X270276D02*
D03*
X245276D02*
D03*
X136024D02*
D03*
X111024D02*
D03*
D17*
X67559Y49803D02*
D03*
X57047D02*
D03*
X33996D02*
D03*
X23484D02*
D03*
X356752Y590354D02*
D03*
X367264D02*
D03*
X56634Y322835D02*
D03*
X46122D02*
D03*
X90610Y49803D02*
D03*
X101122D02*
D03*
X124173D02*
D03*
X134685D02*
D03*
X157736D02*
D03*
X168248D02*
D03*
X191299D02*
D03*
X201811D02*
D03*
X224862D02*
D03*
X235374D02*
D03*
X258425D02*
D03*
X268937D02*
D03*
X291988D02*
D03*
X302500D02*
D03*
X325551D02*
D03*
X336063D02*
D03*
X359114D02*
D03*
X369626D02*
D03*
X392677D02*
D03*
X403189D02*
D03*
X388819Y27362D02*
D03*
X378307D02*
D03*
D18*
X384350Y290118D02*
D03*
Y286181D02*
D03*
Y294055D02*
D03*
Y282244D02*
D03*
Y278307D02*
D03*
Y274370D02*
D03*
Y297992D02*
D03*
Y301929D02*
D03*
X29035Y214764D02*
D03*
Y218701D02*
D03*
Y210827D02*
D03*
Y222638D02*
D03*
Y226575D02*
D03*
Y230512D02*
D03*
Y206890D02*
D03*
Y202953D02*
D03*
X384350Y214764D02*
D03*
Y210827D02*
D03*
Y218701D02*
D03*
Y206890D02*
D03*
Y202953D02*
D03*
Y199016D02*
D03*
Y222638D02*
D03*
Y226575D02*
D03*
Y230512D02*
D03*
Y234449D02*
D03*
X29035Y290118D02*
D03*
Y294055D02*
D03*
Y286181D02*
D03*
Y297992D02*
D03*
Y301929D02*
D03*
Y305866D02*
D03*
Y282244D02*
D03*
Y278307D02*
D03*
Y274370D02*
D03*
Y270433D02*
D03*
X29035Y140256D02*
D03*
Y163878D02*
D03*
Y159941D02*
D03*
Y156004D02*
D03*
Y144193D02*
D03*
Y152067D02*
D03*
Y148130D02*
D03*
X384350Y156260D02*
D03*
Y152323D02*
D03*
Y160197D02*
D03*
Y148386D02*
D03*
Y144449D02*
D03*
Y140512D02*
D03*
Y164134D02*
D03*
X29035Y357846D02*
D03*
Y361783D02*
D03*
Y353909D02*
D03*
Y365720D02*
D03*
Y369657D02*
D03*
Y373594D02*
D03*
Y349972D02*
D03*
X384350Y563216D02*
D03*
Y539594D02*
D03*
Y543532D02*
D03*
Y547469D02*
D03*
Y559279D02*
D03*
Y551405D02*
D03*
Y555342D02*
D03*
Y417252D02*
D03*
Y393630D02*
D03*
Y397567D02*
D03*
Y401504D02*
D03*
Y413315D02*
D03*
Y405441D02*
D03*
Y409378D02*
D03*
X29035Y492126D02*
D03*
Y515748D02*
D03*
Y511811D02*
D03*
Y507874D02*
D03*
Y496063D02*
D03*
Y503937D02*
D03*
Y500000D02*
D03*
D19*
X395374Y313701D02*
D03*
Y262598D02*
D03*
X18012Y191181D02*
D03*
Y242283D02*
D03*
X395374Y246220D02*
D03*
Y187244D02*
D03*
X18012Y258661D02*
D03*
Y317638D02*
D03*
Y175650D02*
D03*
X18012Y128484D02*
D03*
X395374Y175906D02*
D03*
Y128740D02*
D03*
X18012Y338201D02*
D03*
Y385366D02*
D03*
X395374Y527823D02*
D03*
Y574988D02*
D03*
Y381858D02*
D03*
Y429024D02*
D03*
X18012Y527520D02*
D03*
Y480354D02*
D03*
D20*
X350000Y582382D02*
D03*
Y590256D02*
D03*
X5413Y49311D02*
D03*
Y57185D02*
D03*
X407480Y64961D02*
D03*
Y57087D02*
D03*
X360677Y317886D02*
D03*
Y325760D02*
D03*
X52709Y595303D02*
D03*
Y587429D02*
D03*
X62992Y330709D02*
D03*
Y322835D02*
D03*
D21*
X152795Y363563D02*
D03*
X162795D02*
D03*
X172795Y363563D02*
D03*
X152795Y396555D02*
D03*
X162795D02*
D03*
X172795D02*
D03*
X257402Y396555D02*
D03*
X247402D02*
D03*
X237402D02*
D03*
X257402Y363563D02*
D03*
X247402D02*
D03*
X237402D02*
D03*
D22*
X86614Y126969D02*
D03*
X289370Y402559D02*
D03*
X150591Y542323D02*
D03*
X152067Y437845D02*
D03*
X160248Y157776D02*
D03*
X153211D02*
D03*
X147343D02*
D03*
X175787Y240158D02*
D03*
Y234252D02*
D03*
X128740Y157776D02*
D03*
X136811D02*
D03*
X259299Y447047D02*
D03*
Y453346D02*
D03*
Y473594D02*
D03*
X314024Y371823D02*
D03*
X259299Y466555D02*
D03*
X152067Y462500D02*
D03*
X99362Y541366D02*
D03*
X152067Y468307D02*
D03*
Y444882D02*
D03*
D23*
X99264Y470106D02*
D03*
Y468138D02*
D03*
Y466169D02*
D03*
Y464201D02*
D03*
Y462232D02*
D03*
Y460264D02*
D03*
Y458295D02*
D03*
Y456327D02*
D03*
Y454358D02*
D03*
Y452390D02*
D03*
Y450421D02*
D03*
Y448453D02*
D03*
Y446484D02*
D03*
Y444516D02*
D03*
Y442547D02*
D03*
Y440579D02*
D03*
Y438610D02*
D03*
Y436642D02*
D03*
Y434673D02*
D03*
Y432705D02*
D03*
Y430736D02*
D03*
Y428768D02*
D03*
Y426799D02*
D03*
Y424831D02*
D03*
X127807Y470106D02*
D03*
Y468138D02*
D03*
Y466169D02*
D03*
Y464201D02*
D03*
Y462232D02*
D03*
Y460264D02*
D03*
Y458295D02*
D03*
Y456327D02*
D03*
Y454358D02*
D03*
Y452390D02*
D03*
Y450421D02*
D03*
Y448453D02*
D03*
Y446484D02*
D03*
Y444516D02*
D03*
Y442547D02*
D03*
Y440579D02*
D03*
Y438610D02*
D03*
Y436642D02*
D03*
Y434673D02*
D03*
Y432705D02*
D03*
Y430736D02*
D03*
Y428768D02*
D03*
Y426799D02*
D03*
Y424831D02*
D03*
X285579Y488358D02*
D03*
Y486390D02*
D03*
Y484421D02*
D03*
Y482453D02*
D03*
Y480484D02*
D03*
Y478516D02*
D03*
Y476547D02*
D03*
Y474579D02*
D03*
Y472610D02*
D03*
Y470642D02*
D03*
Y468673D02*
D03*
Y466705D02*
D03*
Y464736D02*
D03*
Y462768D02*
D03*
Y460799D02*
D03*
Y458831D02*
D03*
Y456862D02*
D03*
Y454894D02*
D03*
Y452925D02*
D03*
Y450957D02*
D03*
Y448988D02*
D03*
Y447020D02*
D03*
Y445051D02*
D03*
Y443083D02*
D03*
X314122Y488358D02*
D03*
Y486390D02*
D03*
Y484421D02*
D03*
Y482453D02*
D03*
Y480484D02*
D03*
Y478516D02*
D03*
Y476547D02*
D03*
Y474579D02*
D03*
Y472610D02*
D03*
Y470642D02*
D03*
Y468673D02*
D03*
Y466705D02*
D03*
Y464736D02*
D03*
Y462768D02*
D03*
Y460799D02*
D03*
Y458831D02*
D03*
Y456862D02*
D03*
Y454894D02*
D03*
Y452925D02*
D03*
Y450957D02*
D03*
Y448988D02*
D03*
Y447020D02*
D03*
Y445051D02*
D03*
Y443083D02*
D03*
D24*
X123799Y213347D02*
D03*
X156791Y193347D02*
D03*
Y203346D02*
D03*
X156791Y213347D02*
D03*
X123799Y193347D02*
D03*
Y203346D02*
D03*
D25*
X187087Y231693D02*
D03*
Y243504D02*
D03*
D26*
X208661Y258090D02*
D03*
Y217106D02*
D03*
D27*
X245433Y357874D02*
D03*
X249370D02*
D03*
X119488Y113189D02*
D03*
X123425D02*
D03*
X257480Y357874D02*
D03*
X253543D02*
D03*
X169390Y357776D02*
D03*
X165453D02*
D03*
X162402Y402461D02*
D03*
X166339D02*
D03*
X28161Y84795D02*
D03*
X24224D02*
D03*
X48732Y84475D02*
D03*
X44795D02*
D03*
X20866Y74508D02*
D03*
X24803D02*
D03*
X20866Y78839D02*
D03*
X24803D02*
D03*
X50197Y136909D02*
D03*
X46260D02*
D03*
X234350Y127953D02*
D03*
X230413D02*
D03*
X367520Y162106D02*
D03*
X363583D02*
D03*
X363583Y157776D02*
D03*
X367520D02*
D03*
X352756Y135039D02*
D03*
X348819Y135039D02*
D03*
X367520Y151280D02*
D03*
X363583D02*
D03*
X363583Y146949D02*
D03*
X367520D02*
D03*
X363583Y136122D02*
D03*
X367520D02*
D03*
X367520Y140453D02*
D03*
X363583D02*
D03*
X352756Y145866D02*
D03*
X348819D02*
D03*
X348819Y141535D02*
D03*
X352756D02*
D03*
X348819Y152362D02*
D03*
X352756D02*
D03*
X352756Y156693D02*
D03*
X348819D02*
D03*
X348819Y130709D02*
D03*
X352756D02*
D03*
X50197Y141240D02*
D03*
X46260D02*
D03*
X45866Y147736D02*
D03*
X49803D02*
D03*
X49803Y152067D02*
D03*
X45866D02*
D03*
X45866Y158563D02*
D03*
X49803D02*
D03*
X49803Y162894D02*
D03*
X45866D02*
D03*
X60630Y153150D02*
D03*
X64567D02*
D03*
X64567Y157480D02*
D03*
X60630D02*
D03*
X60630Y163976D02*
D03*
X64567D02*
D03*
X64567Y168307D02*
D03*
X60630D02*
D03*
X64567Y146653D02*
D03*
X60630D02*
D03*
X60630Y142323D02*
D03*
X64567D02*
D03*
X64567Y265059D02*
D03*
X60630D02*
D03*
X60630Y249902D02*
D03*
X64567D02*
D03*
X45866Y259646D02*
D03*
X49803D02*
D03*
X49803Y222835D02*
D03*
X45866D02*
D03*
X45866Y227165D02*
D03*
X49803D02*
D03*
X45866Y237992D02*
D03*
X49803D02*
D03*
X49803Y233661D02*
D03*
X45866D02*
D03*
X45866Y248819D02*
D03*
X49803D02*
D03*
X49803Y244488D02*
D03*
X45866D02*
D03*
X60630Y228248D02*
D03*
X64567D02*
D03*
X60630Y239075D02*
D03*
X64567D02*
D03*
X64567Y232579D02*
D03*
X60630D02*
D03*
X64567Y243406D02*
D03*
X60630D02*
D03*
X45866Y281299D02*
D03*
X49803D02*
D03*
X45866Y292126D02*
D03*
X49803D02*
D03*
X49803Y287795D02*
D03*
X45866D02*
D03*
X49803Y298622D02*
D03*
X45866D02*
D03*
X60630Y304035D02*
D03*
X64567D02*
D03*
X45866Y302953D02*
D03*
X49803D02*
D03*
X64567Y297539D02*
D03*
X60630D02*
D03*
X64567Y308366D02*
D03*
X60630D02*
D03*
X60630Y282382D02*
D03*
X64567D02*
D03*
X64567Y286713D02*
D03*
X60630D02*
D03*
X45866Y270473D02*
D03*
X49803D02*
D03*
X49803Y266142D02*
D03*
X45866D02*
D03*
X49803Y276969D02*
D03*
X45866D02*
D03*
X60630Y271555D02*
D03*
X64567D02*
D03*
X64567Y275886D02*
D03*
X60630D02*
D03*
X60630Y293209D02*
D03*
X64567D02*
D03*
X64567Y254232D02*
D03*
X60630D02*
D03*
X60630Y260728D02*
D03*
X64567D02*
D03*
X49803Y255315D02*
D03*
X45866D02*
D03*
X123425Y117323D02*
D03*
X119488D02*
D03*
X162216Y139098D02*
D03*
X158280D02*
D03*
X158280Y147563D02*
D03*
X162216D02*
D03*
X150110D02*
D03*
X154047D02*
D03*
X150110Y151795D02*
D03*
X154047D02*
D03*
X162216Y143331D02*
D03*
X158280D02*
D03*
X150110D02*
D03*
X154047D02*
D03*
X150110Y139098D02*
D03*
X154047D02*
D03*
X54429Y74508D02*
D03*
X58366D02*
D03*
X54429Y78740D02*
D03*
X58366D02*
D03*
X155118Y74508D02*
D03*
X159055D02*
D03*
X155118Y78839D02*
D03*
X159055D02*
D03*
X121555Y74508D02*
D03*
X125492D02*
D03*
X87992Y78839D02*
D03*
X91929D02*
D03*
X121555D02*
D03*
X125492D02*
D03*
X87992Y74508D02*
D03*
X91929D02*
D03*
X393996Y78839D02*
D03*
X390059D02*
D03*
X356496D02*
D03*
X360433D02*
D03*
X393996Y74508D02*
D03*
X390059D02*
D03*
X408563Y26870D02*
D03*
X404626D02*
D03*
Y31004D02*
D03*
X408563D02*
D03*
X255807Y74508D02*
D03*
X259744D02*
D03*
X255807Y78839D02*
D03*
X259744D02*
D03*
X222244D02*
D03*
X226181D02*
D03*
X222244Y74508D02*
D03*
X226181D02*
D03*
X188681Y78839D02*
D03*
X192618D02*
D03*
X188681Y74508D02*
D03*
X192618D02*
D03*
X289370Y78839D02*
D03*
X293307D02*
D03*
X322933D02*
D03*
X326870D02*
D03*
X322933Y74508D02*
D03*
X326870D02*
D03*
X356496D02*
D03*
X360433D02*
D03*
X289370D02*
D03*
X293307D02*
D03*
X124213Y313189D02*
D03*
X120276D02*
D03*
X289222Y210876D02*
D03*
X293160D02*
D03*
X348819Y218602D02*
D03*
X352756D02*
D03*
X352756Y222933D02*
D03*
X348819D02*
D03*
X363583Y224016D02*
D03*
X367520D02*
D03*
X367520Y228346D02*
D03*
X363583D02*
D03*
X348819Y229429D02*
D03*
X352756D02*
D03*
X352756Y233760D02*
D03*
X348819D02*
D03*
X363583Y234842D02*
D03*
X367520D02*
D03*
X367520Y239173D02*
D03*
X363583D02*
D03*
X348819Y240256D02*
D03*
X352756D02*
D03*
X352756Y244587D02*
D03*
X348819D02*
D03*
X363583Y245669D02*
D03*
X367520D02*
D03*
X367520Y250000D02*
D03*
X363583D02*
D03*
X348819Y251083D02*
D03*
X352756D02*
D03*
X352756Y255413D02*
D03*
X348819D02*
D03*
X363583Y256496D02*
D03*
X367520D02*
D03*
X367520Y260827D02*
D03*
X363583D02*
D03*
X348819Y261910D02*
D03*
X352756D02*
D03*
X352756Y266240D02*
D03*
X348819D02*
D03*
X363583Y267323D02*
D03*
X367520D02*
D03*
X367520Y271654D02*
D03*
X363583D02*
D03*
X348819Y272736D02*
D03*
X352756D02*
D03*
X352756Y277067D02*
D03*
X348819D02*
D03*
X363583Y278150D02*
D03*
X367520D02*
D03*
X367520Y282480D02*
D03*
X363583D02*
D03*
X348819Y283563D02*
D03*
X352756D02*
D03*
X352756Y287894D02*
D03*
X348819D02*
D03*
X363583Y288976D02*
D03*
X367520D02*
D03*
X367520Y293307D02*
D03*
X363583D02*
D03*
X348819Y294390D02*
D03*
X352756D02*
D03*
X352756Y298721D02*
D03*
X348819D02*
D03*
X363583Y299803D02*
D03*
X367520D02*
D03*
X367520Y304134D02*
D03*
X363583D02*
D03*
X295421Y436882D02*
D03*
X291484D02*
D03*
X251181Y402165D02*
D03*
X247244D02*
D03*
X331594Y441988D02*
D03*
X335531D02*
D03*
X331594Y446220D02*
D03*
X335531D02*
D03*
X331594Y408425D02*
D03*
X335531D02*
D03*
X331594Y379094D02*
D03*
X335531D02*
D03*
X331594Y412657D02*
D03*
X335531D02*
D03*
X287350Y436882D02*
D03*
X283413D02*
D03*
X331594Y475551D02*
D03*
X335531D02*
D03*
X331594Y479783D02*
D03*
X335531D02*
D03*
X271209Y443870D02*
D03*
X267272D02*
D03*
X275342D02*
D03*
X279279D02*
D03*
X275342Y439736D02*
D03*
X279279D02*
D03*
X267173Y452335D02*
D03*
X271110D02*
D03*
X275244D02*
D03*
X279181D02*
D03*
X271209Y439736D02*
D03*
X267272D02*
D03*
X269043Y459224D02*
D03*
X265106D02*
D03*
X275342Y448102D02*
D03*
X279279D02*
D03*
X271209D02*
D03*
X267272D02*
D03*
X331594Y345531D02*
D03*
X335531D02*
D03*
X331594Y341299D02*
D03*
X335531D02*
D03*
X321799Y365031D02*
D03*
X317862D02*
D03*
X331594Y374862D02*
D03*
X335531D02*
D03*
X237303Y357874D02*
D03*
X241240D02*
D03*
X331594Y584941D02*
D03*
X335531D02*
D03*
X331594Y576240D02*
D03*
X335531D02*
D03*
X331594Y580472D02*
D03*
X335531D02*
D03*
X331594Y509114D02*
D03*
X335531D02*
D03*
X331594Y513346D02*
D03*
X335531D02*
D03*
X331594Y546909D02*
D03*
X335531D02*
D03*
X331594Y542677D02*
D03*
X335531D02*
D03*
X331594Y589272D02*
D03*
X335531D02*
D03*
X95524Y548158D02*
D03*
X91587D02*
D03*
X144343Y453965D02*
D03*
X148280D02*
D03*
X146114Y473453D02*
D03*
X142177D02*
D03*
X129973Y476307D02*
D03*
X126035D02*
D03*
X146114Y469319D02*
D03*
X142177D02*
D03*
X146114Y465087D02*
D03*
X142177D02*
D03*
X134106Y473453D02*
D03*
X138043D02*
D03*
X134106Y469319D02*
D03*
X138043D02*
D03*
X134106Y465087D02*
D03*
X138043D02*
D03*
X134205Y460854D02*
D03*
X138142D02*
D03*
X142276D02*
D03*
X146213D02*
D03*
X77854Y328248D02*
D03*
X81791D02*
D03*
Y323917D02*
D03*
X77854D02*
D03*
X77854Y332717D02*
D03*
X81791D02*
D03*
X77854Y336949D02*
D03*
X81791D02*
D03*
X77854Y366280D02*
D03*
X81791D02*
D03*
X77854Y370512D02*
D03*
X81791D02*
D03*
X77854Y399843D02*
D03*
X81791D02*
D03*
X77854Y404075D02*
D03*
X81791D02*
D03*
X77854Y433406D02*
D03*
X81791D02*
D03*
X77854Y437638D02*
D03*
X81791D02*
D03*
X77854Y466968D02*
D03*
X81791D02*
D03*
X77854Y471201D02*
D03*
X81791D02*
D03*
X77854Y500531D02*
D03*
X81791D02*
D03*
X77854Y504764D02*
D03*
X81791D02*
D03*
X77854Y534094D02*
D03*
X81791D02*
D03*
X77854Y538327D02*
D03*
X81791D02*
D03*
X77854Y567658D02*
D03*
X81791D02*
D03*
X77854Y571890D02*
D03*
X81791D02*
D03*
X156102Y357776D02*
D03*
X160039D02*
D03*
D28*
X162697Y209941D02*
D03*
Y206004D02*
D03*
X52866Y84500D02*
D03*
Y88437D02*
D03*
X33366Y78642D02*
D03*
Y74705D02*
D03*
X29134Y78642D02*
D03*
Y74705D02*
D03*
X226181Y133858D02*
D03*
Y129921D02*
D03*
X359252Y158071D02*
D03*
Y162008D02*
D03*
Y136417D02*
D03*
Y140354D02*
D03*
Y147244D02*
D03*
Y151181D02*
D03*
X344488Y141831D02*
D03*
Y145768D02*
D03*
Y152657D02*
D03*
Y156595D02*
D03*
Y131004D02*
D03*
Y134941D02*
D03*
X54528Y140945D02*
D03*
Y137008D02*
D03*
X54134Y151772D02*
D03*
Y147835D02*
D03*
Y162599D02*
D03*
Y158661D02*
D03*
X68898Y157185D02*
D03*
Y153248D02*
D03*
Y168012D02*
D03*
Y164075D02*
D03*
Y146358D02*
D03*
Y142421D02*
D03*
Y264764D02*
D03*
Y260827D02*
D03*
X54134Y233760D02*
D03*
Y237697D02*
D03*
Y244587D02*
D03*
Y248524D02*
D03*
Y222933D02*
D03*
Y226870D02*
D03*
X68898Y243110D02*
D03*
Y239173D02*
D03*
Y253937D02*
D03*
Y250000D02*
D03*
Y232283D02*
D03*
Y228346D02*
D03*
X54134Y298721D02*
D03*
Y302658D02*
D03*
X124213Y309055D02*
D03*
Y305118D02*
D03*
X68898Y297244D02*
D03*
Y293307D02*
D03*
Y308071D02*
D03*
Y304134D02*
D03*
X54134Y266240D02*
D03*
Y270177D02*
D03*
Y277067D02*
D03*
Y281004D02*
D03*
Y287894D02*
D03*
Y291831D02*
D03*
X68898Y286417D02*
D03*
Y282480D02*
D03*
Y275591D02*
D03*
Y271654D02*
D03*
X54134Y255413D02*
D03*
Y259350D02*
D03*
X134756Y147169D02*
D03*
Y151106D02*
D03*
X126291Y147169D02*
D03*
Y151106D02*
D03*
X130524Y147169D02*
D03*
Y151106D02*
D03*
X123437Y122661D02*
D03*
Y126598D02*
D03*
X134756Y142937D02*
D03*
Y139000D02*
D03*
X162697Y196752D02*
D03*
Y200689D02*
D03*
X145878Y152779D02*
D03*
Y148843D02*
D03*
X130524Y142937D02*
D03*
Y139000D02*
D03*
X138988Y151106D02*
D03*
Y147169D02*
D03*
Y139000D02*
D03*
Y142937D02*
D03*
X123437Y130831D02*
D03*
Y134768D02*
D03*
X126291Y142937D02*
D03*
Y139000D02*
D03*
X118012Y207283D02*
D03*
Y203346D02*
D03*
X62697Y78642D02*
D03*
Y74705D02*
D03*
X96260Y78642D02*
D03*
Y74705D02*
D03*
X66929Y78642D02*
D03*
Y74705D02*
D03*
X134055Y78642D02*
D03*
Y74705D02*
D03*
X129823Y78642D02*
D03*
Y74705D02*
D03*
X100492Y78642D02*
D03*
Y74705D02*
D03*
X398327Y74705D02*
D03*
Y78642D02*
D03*
X402559Y74705D02*
D03*
Y78642D02*
D03*
X368996D02*
D03*
Y74705D02*
D03*
X364764Y78642D02*
D03*
Y74705D02*
D03*
X301870Y78642D02*
D03*
Y74705D02*
D03*
X268307Y78642D02*
D03*
Y74705D02*
D03*
X297638Y78642D02*
D03*
Y74705D02*
D03*
X163386Y78642D02*
D03*
Y74705D02*
D03*
X167618Y78642D02*
D03*
Y74705D02*
D03*
X264075Y78642D02*
D03*
Y74705D02*
D03*
X234744Y78642D02*
D03*
Y74705D02*
D03*
X230512Y78642D02*
D03*
Y74705D02*
D03*
X196949Y78642D02*
D03*
Y74705D02*
D03*
X201181Y78642D02*
D03*
Y74705D02*
D03*
X331201Y78642D02*
D03*
Y74705D02*
D03*
X335433Y78642D02*
D03*
Y74705D02*
D03*
X344488Y218898D02*
D03*
Y222835D02*
D03*
X359252Y224311D02*
D03*
Y228248D02*
D03*
X344488Y229724D02*
D03*
Y233661D02*
D03*
X359252Y235138D02*
D03*
Y239075D02*
D03*
X344488Y240551D02*
D03*
Y244488D02*
D03*
X359252Y245965D02*
D03*
Y249902D02*
D03*
X344488Y251378D02*
D03*
Y255315D02*
D03*
X359252Y256791D02*
D03*
Y260728D02*
D03*
X344488Y262205D02*
D03*
Y266142D02*
D03*
X359252Y267618D02*
D03*
Y271555D02*
D03*
X344488Y273031D02*
D03*
Y276969D02*
D03*
X359252Y278445D02*
D03*
Y282382D02*
D03*
X344488Y283858D02*
D03*
Y287795D02*
D03*
X359252Y289272D02*
D03*
Y293209D02*
D03*
X344488Y294685D02*
D03*
Y298622D02*
D03*
X359252Y300098D02*
D03*
Y304035D02*
D03*
X331398Y433720D02*
D03*
Y437657D02*
D03*
X335728Y433720D02*
D03*
Y437657D02*
D03*
X330709Y466535D02*
D03*
Y470472D02*
D03*
X335728Y467283D02*
D03*
Y471220D02*
D03*
X331398Y400157D02*
D03*
Y404095D02*
D03*
X335728Y400157D02*
D03*
Y404095D02*
D03*
X274949Y475563D02*
D03*
Y471626D02*
D03*
X279181Y475563D02*
D03*
Y471626D02*
D03*
X270717Y471626D02*
D03*
Y475563D02*
D03*
X274949Y463457D02*
D03*
Y467394D02*
D03*
X279181Y463457D02*
D03*
Y467394D02*
D03*
X270717D02*
D03*
Y463457D02*
D03*
X289222Y215010D02*
D03*
Y218947D02*
D03*
X335728Y333031D02*
D03*
Y336968D02*
D03*
X331398Y333031D02*
D03*
Y336968D02*
D03*
X335728Y366594D02*
D03*
Y370532D02*
D03*
X331398Y366594D02*
D03*
Y370532D02*
D03*
X321504Y340327D02*
D03*
Y336390D02*
D03*
X321823Y360898D02*
D03*
Y356961D02*
D03*
X266484Y467394D02*
D03*
Y463457D02*
D03*
X304134Y436713D02*
D03*
Y432776D02*
D03*
X299902Y436713D02*
D03*
Y432776D02*
D03*
X331398Y567972D02*
D03*
Y571909D02*
D03*
X335728Y567972D02*
D03*
Y571909D02*
D03*
X331398Y500846D02*
D03*
Y504783D02*
D03*
X335728Y500846D02*
D03*
Y504783D02*
D03*
X331398Y534409D02*
D03*
Y538346D02*
D03*
X335728Y534409D02*
D03*
Y538346D02*
D03*
X91561Y556228D02*
D03*
Y552291D02*
D03*
X91882Y576799D02*
D03*
Y572862D02*
D03*
X121850Y476279D02*
D03*
Y480217D02*
D03*
X142669Y437626D02*
D03*
Y441563D02*
D03*
Y449732D02*
D03*
Y445795D02*
D03*
X146902Y449732D02*
D03*
Y445795D02*
D03*
X138437Y441563D02*
D03*
Y437626D02*
D03*
X134205Y441563D02*
D03*
Y437626D02*
D03*
Y445795D02*
D03*
Y449732D02*
D03*
X138437Y445795D02*
D03*
Y449732D02*
D03*
X77658Y341280D02*
D03*
Y345217D02*
D03*
X81988Y341280D02*
D03*
Y345216D02*
D03*
X77658Y374843D02*
D03*
Y378780D02*
D03*
X81988Y374843D02*
D03*
Y378780D02*
D03*
X77658Y408405D02*
D03*
Y412343D02*
D03*
X81988Y408405D02*
D03*
Y412343D02*
D03*
X77658Y441968D02*
D03*
Y445906D02*
D03*
X81988Y441968D02*
D03*
Y445905D02*
D03*
X77658Y475531D02*
D03*
Y479468D02*
D03*
X81988Y475531D02*
D03*
Y479468D02*
D03*
X77658Y509094D02*
D03*
Y513031D02*
D03*
X81988Y509094D02*
D03*
Y513031D02*
D03*
X77658Y542658D02*
D03*
Y546594D02*
D03*
X81988Y542658D02*
D03*
Y546594D02*
D03*
X77658Y576221D02*
D03*
Y580158D02*
D03*
X81988Y576221D02*
D03*
Y580158D02*
D03*
X114764Y476476D02*
D03*
Y480413D02*
D03*
X110531Y476476D02*
D03*
X110531Y480413D02*
D03*
D29*
X40169Y84402D02*
D03*
X33870D02*
D03*
X16142Y74508D02*
D03*
X9843D02*
D03*
X379035Y74508D02*
D03*
X385335D02*
D03*
X217520D02*
D03*
X211220D02*
D03*
X318209D02*
D03*
X311910D02*
D03*
X284646D02*
D03*
X278346D02*
D03*
X351772D02*
D03*
X345472D02*
D03*
X251083D02*
D03*
X244783D02*
D03*
X150394D02*
D03*
X144095D02*
D03*
X83268D02*
D03*
X76968D02*
D03*
X116831D02*
D03*
X110531D02*
D03*
X183957D02*
D03*
X177657D02*
D03*
X49705Y74508D02*
D03*
X43406D02*
D03*
D30*
X13583Y53543D02*
D03*
X17323Y45669D02*
D03*
X9843D02*
D03*
X47146Y53543D02*
D03*
X50886Y45669D02*
D03*
X43406D02*
D03*
X110531Y45669D02*
D03*
X118012D02*
D03*
X114272Y53543D02*
D03*
X144094Y45669D02*
D03*
X151575D02*
D03*
X147835Y53543D02*
D03*
X76968Y45669D02*
D03*
X84449D02*
D03*
X80709Y53543D02*
D03*
X211220Y45669D02*
D03*
X218701D02*
D03*
X214961Y53543D02*
D03*
X311909Y45669D02*
D03*
X319390D02*
D03*
X315650Y53543D02*
D03*
X244783Y45669D02*
D03*
X252264D02*
D03*
X248524Y53543D02*
D03*
X382776D02*
D03*
X386516Y45669D02*
D03*
X379035D02*
D03*
X345472D02*
D03*
X352953D02*
D03*
X349213Y53543D02*
D03*
X177657Y45669D02*
D03*
X185138D02*
D03*
X181398Y53543D02*
D03*
X278346Y45669D02*
D03*
X285827D02*
D03*
X282087Y53543D02*
D03*
D31*
X233169Y189311D02*
D03*
X233169Y184311D02*
D03*
X233169Y179311D02*
D03*
Y174311D02*
D03*
Y169311D02*
D03*
X233169Y164311D02*
D03*
Y159311D02*
D03*
X233169Y154311D02*
D03*
X233169Y149311D02*
D03*
X233169Y144311D02*
D03*
X233169Y139311D02*
D03*
Y134311D02*
D03*
X270177Y189311D02*
D03*
Y184311D02*
D03*
Y179311D02*
D03*
Y174311D02*
D03*
X270177Y169311D02*
D03*
X270177Y164311D02*
D03*
Y159311D02*
D03*
Y154311D02*
D03*
Y149311D02*
D03*
Y144311D02*
D03*
Y139311D02*
D03*
Y134311D02*
D03*
X296112Y272136D02*
D03*
Y267136D02*
D03*
Y262136D02*
D03*
Y257136D02*
D03*
Y252136D02*
D03*
Y247136D02*
D03*
Y242136D02*
D03*
Y237136D02*
D03*
Y232136D02*
D03*
Y227136D02*
D03*
Y222136D02*
D03*
Y217136D02*
D03*
X333120Y272136D02*
D03*
Y267136D02*
D03*
Y262136D02*
D03*
Y257136D02*
D03*
Y252136D02*
D03*
Y247136D02*
D03*
Y242136D02*
D03*
Y237136D02*
D03*
Y232136D02*
D03*
Y227136D02*
D03*
Y222136D02*
D03*
Y217136D02*
D03*
X80315Y306929D02*
D03*
Y301929D02*
D03*
Y296929D02*
D03*
Y291929D02*
D03*
Y286929D02*
D03*
Y281929D02*
D03*
Y276929D02*
D03*
Y271929D02*
D03*
Y266929D02*
D03*
Y261929D02*
D03*
Y256929D02*
D03*
Y251929D02*
D03*
X117323Y306929D02*
D03*
Y301929D02*
D03*
Y296929D02*
D03*
Y291929D02*
D03*
Y286929D02*
D03*
Y281929D02*
D03*
Y276929D02*
D03*
Y271929D02*
D03*
Y266929D02*
D03*
Y261929D02*
D03*
Y256929D02*
D03*
Y251929D02*
D03*
D32*
X360433Y335650D02*
D03*
Y346161D02*
D03*
Y369213D02*
D03*
Y379724D02*
D03*
Y402776D02*
D03*
Y413287D02*
D03*
Y436339D02*
D03*
Y446850D02*
D03*
Y469902D02*
D03*
Y480413D02*
D03*
Y503465D02*
D03*
Y513976D02*
D03*
Y537028D02*
D03*
Y547539D02*
D03*
Y570590D02*
D03*
Y581102D02*
D03*
X52953Y577539D02*
D03*
Y567028D02*
D03*
Y543976D02*
D03*
Y533465D02*
D03*
Y510413D02*
D03*
Y499902D02*
D03*
Y476850D02*
D03*
Y466339D02*
D03*
Y443287D02*
D03*
Y432776D02*
D03*
Y409724D02*
D03*
Y399213D02*
D03*
Y376161D02*
D03*
Y365650D02*
D03*
Y342598D02*
D03*
Y332087D02*
D03*
D33*
X129736Y104157D02*
D03*
X131705D02*
D03*
X133673D02*
D03*
X135642D02*
D03*
X137610D02*
D03*
X139579D02*
D03*
X141547D02*
D03*
X143516D02*
D03*
X145484D02*
D03*
X147453D02*
D03*
X149421D02*
D03*
X151390D02*
D03*
X153358D02*
D03*
X155327D02*
D03*
X157295D02*
D03*
X159264D02*
D03*
X161232D02*
D03*
X163201D02*
D03*
X165169D02*
D03*
X167138D02*
D03*
X169106D02*
D03*
X171075D02*
D03*
X173043D02*
D03*
X175012D02*
D03*
X129736Y132701D02*
D03*
X131705D02*
D03*
X133673D02*
D03*
X135642D02*
D03*
X137610D02*
D03*
X139579D02*
D03*
X141547D02*
D03*
X143516D02*
D03*
X145484D02*
D03*
X147453D02*
D03*
X149421D02*
D03*
X151390D02*
D03*
X153358D02*
D03*
X155327D02*
D03*
X157295D02*
D03*
X159264D02*
D03*
X161232D02*
D03*
X163201D02*
D03*
X165169D02*
D03*
X167138D02*
D03*
X169106D02*
D03*
X171075D02*
D03*
X173043D02*
D03*
X175012D02*
D03*
D34*
X31803Y97984D02*
D03*
D35*
X47551Y105484D02*
D03*
X47551Y100484D02*
D03*
Y95484D02*
D03*
X47551Y90484D02*
D03*
D36*
X13484Y86713D02*
D03*
Y107579D02*
D03*
X289811Y368673D02*
D03*
Y347807D02*
D03*
X123575Y544516D02*
D03*
Y565382D02*
D03*
D37*
X84449Y100492D02*
D03*
X63583D02*
D03*
X323276Y325957D02*
D03*
X302410D02*
D03*
X110976Y587232D02*
D03*
X90110D02*
D03*
D38*
X343937Y28965D02*
D03*
X340000D02*
D03*
X347874D02*
D03*
X336063D02*
D03*
X332126D02*
D03*
X328189D02*
D03*
X351811D02*
D03*
X138622D02*
D03*
X134685D02*
D03*
X142559D02*
D03*
X130748D02*
D03*
X126811D02*
D03*
X122874D02*
D03*
X146496D02*
D03*
D39*
X363583Y17941D02*
D03*
X316417D02*
D03*
X158268D02*
D03*
X111102D02*
D03*
D40*
X364567Y456260D02*
D03*
Y463740D02*
D03*
X356693Y460000D02*
D03*
X364567Y422697D02*
D03*
Y430177D02*
D03*
X356693Y426437D02*
D03*
X364567Y389134D02*
D03*
Y396614D02*
D03*
X356693Y392874D02*
D03*
X364567Y489823D02*
D03*
Y497303D02*
D03*
X356693Y493563D02*
D03*
X364567Y355571D02*
D03*
Y363051D02*
D03*
X356693Y359311D02*
D03*
X364567Y322008D02*
D03*
Y329488D02*
D03*
X356693Y325748D02*
D03*
X364567Y523386D02*
D03*
Y530866D02*
D03*
X356693Y527126D02*
D03*
X364567Y556949D02*
D03*
Y564429D02*
D03*
X356693Y560689D02*
D03*
X56693Y587441D02*
D03*
X48819Y583701D02*
D03*
Y591181D02*
D03*
X56693Y352500D02*
D03*
X48819Y348760D02*
D03*
Y356240D02*
D03*
X56693Y386063D02*
D03*
X48819Y382323D02*
D03*
Y389803D02*
D03*
X56693Y419626D02*
D03*
X48819Y415886D02*
D03*
Y423366D02*
D03*
X56693Y453189D02*
D03*
X48819Y449449D02*
D03*
Y456929D02*
D03*
X56693Y486752D02*
D03*
X48819Y483012D02*
D03*
Y490492D02*
D03*
X56693Y520315D02*
D03*
X48819Y516575D02*
D03*
Y524055D02*
D03*
X56693Y553878D02*
D03*
X48819Y550138D02*
D03*
Y557618D02*
D03*
D41*
X335728Y428996D02*
D03*
Y422697D02*
D03*
Y462559D02*
D03*
Y456260D02*
D03*
Y496122D02*
D03*
Y489823D02*
D03*
Y328307D02*
D03*
Y322008D02*
D03*
Y361870D02*
D03*
Y355571D02*
D03*
Y395433D02*
D03*
Y389134D02*
D03*
X321898Y352335D02*
D03*
Y346035D02*
D03*
X335728Y563248D02*
D03*
Y556949D02*
D03*
Y529685D02*
D03*
Y523386D02*
D03*
X91488Y560854D02*
D03*
Y567154D02*
D03*
X77658Y356240D02*
D03*
Y349941D02*
D03*
Y389803D02*
D03*
Y383504D02*
D03*
Y423366D02*
D03*
Y417067D02*
D03*
Y456929D02*
D03*
Y450630D02*
D03*
Y490492D02*
D03*
Y484193D02*
D03*
Y524055D02*
D03*
Y517756D02*
D03*
Y557618D02*
D03*
Y551319D02*
D03*
Y591181D02*
D03*
Y584882D02*
D03*
D42*
X345965Y448189D02*
D03*
Y423189D02*
D03*
X346949Y413642D02*
D03*
Y388642D02*
D03*
X345965Y381063D02*
D03*
Y356063D02*
D03*
Y481752D02*
D03*
Y456752D02*
D03*
Y515315D02*
D03*
Y490315D02*
D03*
Y347500D02*
D03*
Y322500D02*
D03*
Y582441D02*
D03*
Y557441D02*
D03*
Y548878D02*
D03*
Y523878D02*
D03*
X67421Y355748D02*
D03*
Y330748D02*
D03*
Y389311D02*
D03*
Y364311D02*
D03*
Y422874D02*
D03*
Y397874D02*
D03*
Y456437D02*
D03*
Y431437D02*
D03*
Y490000D02*
D03*
Y465000D02*
D03*
Y523563D02*
D03*
Y498563D02*
D03*
Y557126D02*
D03*
Y532126D02*
D03*
Y590689D02*
D03*
Y565689D02*
D03*
D43*
X315815Y359717D02*
D03*
X310815D02*
D03*
X305815D02*
D03*
X300815D02*
D03*
X97571Y553473D02*
D03*
X102571D02*
D03*
X107571D02*
D03*
X112571D02*
D03*
D44*
X308315Y343969D02*
D03*
X105071Y569220D02*
D03*
D83*
X205512Y618110D02*
D03*
Y122047D02*
D03*
M02*
