G04*
G04 #@! TF.GenerationSoftware,Altium Limited,Altium Designer,22.0.2 (36)*
G04*
G04 Layer_Color=32768*
%FSLAX25Y25*%
%MOIN*%
G70*
G04*
G04 #@! TF.SameCoordinates,341058C5-BC88-46A7-A5D1-CF329328C8C1*
G04*
G04*
G04 #@! TF.FilePolarity,Positive*
G04*
G01*
G75*
%ADD14C,0.00394*%
D14*
X370768Y148031D02*
X382579D01*
X370768Y142520D02*
X382579D01*
X370768D02*
Y148031D01*
X382579Y142520D02*
Y148031D01*
X356594Y143898D02*
X368406D01*
X356594Y118307D02*
X368406D01*
X356594D02*
Y143898D01*
X368406Y118307D02*
Y143898D01*
X412598Y118303D02*
Y143893D01*
X400787Y118303D02*
Y143893D01*
Y118303D02*
X412598D01*
X400787Y143893D02*
X412598D01*
X414961Y148031D02*
X426772D01*
X414961Y142520D02*
X426772D01*
X414961D02*
Y148031D01*
X426772Y142520D02*
Y148031D01*
X500787Y118209D02*
Y143799D01*
X488976Y118209D02*
Y143799D01*
Y118209D02*
X500787D01*
X488976Y143799D02*
X500787D01*
X503150Y148031D02*
X514961D01*
X503150Y142520D02*
X514961D01*
X503150D02*
Y148031D01*
X514961Y142520D02*
Y148031D01*
X456496Y118307D02*
Y143898D01*
X444685Y118307D02*
Y143898D01*
Y118307D02*
X456496D01*
X444685Y143898D02*
X456496D01*
X458858Y148031D02*
X470669D01*
X458858Y142520D02*
X470669D01*
X458858D02*
Y148031D01*
X470669Y142520D02*
Y148031D01*
M02*
