G04*
G04 #@! TF.GenerationSoftware,Altium Limited,Altium Designer,22.0.2 (36)*
G04*
G04 Layer_Color=255*
%FSLAX25Y25*%
%MOIN*%
G70*
G04*
G04 #@! TF.SameCoordinates,341058C5-BC88-46A7-A5D1-CF329328C8C1*
G04*
G04*
G04 #@! TF.FilePolarity,Positive*
G04*
G01*
G75*
%ADD22R,0.03740X0.03740*%
%ADD62R,0.02362X0.05512*%
%ADD64R,0.03347X0.06299*%
%ADD118C,0.05906*%
%ADD119C,0.07087*%
%ADD120R,0.05906X0.05906*%
%ADD121R,0.05906X0.05906*%
%ADD131R,0.05118X0.02756*%
%ADD132R,0.13780X0.05709*%
D22*
X449508Y150000D02*
D03*
X455217D02*
D03*
X361417Y150000D02*
D03*
X367126D02*
D03*
X493799Y149902D02*
D03*
X499508D02*
D03*
X405610Y149996D02*
D03*
X411319D02*
D03*
D62*
X372933Y149016D02*
D03*
X380413D02*
D03*
X376673Y141535D02*
D03*
X417126Y149016D02*
D03*
X424606D02*
D03*
X420866Y141535D02*
D03*
X505315Y149016D02*
D03*
X512795D02*
D03*
X509055Y141535D02*
D03*
X461024Y149016D02*
D03*
X468504D02*
D03*
X464764Y141535D02*
D03*
D64*
X413779Y156688D02*
D03*
Y170074D02*
D03*
X501968Y156595D02*
D03*
Y169980D02*
D03*
X369587Y156693D02*
D03*
Y170079D02*
D03*
X457677Y156693D02*
D03*
Y170079D02*
D03*
D118*
X444685Y168032D02*
D03*
Y158031D02*
D03*
X232677Y211417D02*
D03*
X220866D02*
D03*
X232677Y223228D02*
D03*
X404134Y12598D02*
D03*
Y24409D02*
D03*
X439567D02*
D03*
Y12598D02*
D03*
X427756Y24409D02*
D03*
Y12598D02*
D03*
X415945Y24409D02*
D03*
Y12598D02*
D03*
X392323Y24409D02*
D03*
Y12598D02*
D03*
X380512Y24409D02*
D03*
Y12598D02*
D03*
X368701Y24409D02*
D03*
X164370Y51024D02*
D03*
Y61024D02*
D03*
Y71024D02*
D03*
Y81024D02*
D03*
Y91024D02*
D03*
X79527Y211024D02*
D03*
X67716D02*
D03*
X79527Y222835D02*
D03*
X29921Y14173D02*
D03*
X195473Y13780D02*
D03*
X207283Y25591D02*
D03*
X195473D02*
D03*
X296752Y13580D02*
D03*
X284941Y25391D02*
D03*
Y13580D02*
D03*
X273130Y25391D02*
D03*
Y13580D02*
D03*
X261319Y25391D02*
D03*
Y13580D02*
D03*
X249508Y25391D02*
D03*
Y13580D02*
D03*
X400787Y168027D02*
D03*
Y158027D02*
D03*
X488976Y167933D02*
D03*
Y157933D02*
D03*
X356594Y168032D02*
D03*
Y158031D02*
D03*
X109153Y13088D02*
D03*
Y24899D02*
D03*
X120965Y13088D02*
D03*
Y24899D02*
D03*
X132776Y13088D02*
D03*
Y24899D02*
D03*
X144587Y13088D02*
D03*
Y24899D02*
D03*
X156398Y13088D02*
D03*
D119*
X444685Y198031D02*
D03*
Y228031D02*
D03*
X400787Y228027D02*
D03*
X356594Y198031D02*
D03*
X400787Y198027D02*
D03*
X488976Y197933D02*
D03*
Y227933D02*
D03*
X356594Y228031D02*
D03*
D120*
X220866Y223228D02*
D03*
X164370Y41024D02*
D03*
X67716Y222835D02*
D03*
X41732Y14173D02*
D03*
X207283Y13780D02*
D03*
D121*
X368701Y12598D02*
D03*
X296752Y25391D02*
D03*
X156398Y24899D02*
D03*
D131*
X465945Y167323D02*
D03*
Y159843D02*
D03*
X377854Y167323D02*
D03*
Y159843D02*
D03*
X510236Y167224D02*
D03*
Y159744D02*
D03*
X422047Y167318D02*
D03*
Y159838D02*
D03*
D132*
X362500Y143307D02*
D03*
Y118898D02*
D03*
X406693Y118893D02*
D03*
Y143303D02*
D03*
X494882Y118799D02*
D03*
Y143209D02*
D03*
X450591Y118898D02*
D03*
Y143307D02*
D03*
M02*
