G04*
G04 #@! TF.GenerationSoftware,Altium Limited,Altium Designer,22.0.2 (36)*
G04*
G04 Layer_Color=32896*
%FSLAX25Y25*%
%MOIN*%
G70*
G04*
G04 #@! TF.SameCoordinates,341058C5-BC88-46A7-A5D1-CF329328C8C1*
G04*
G04*
G04 #@! TF.FilePolarity,Positive*
G04*
G01*
G75*
%ADD10C,0.00984*%
%ADD11C,0.00787*%
%ADD14C,0.00394*%
G36*
X188134Y149077D02*
X188254Y148902D01*
X188396Y148727D01*
X188528Y148574D01*
X188659Y148443D01*
X188757Y148334D01*
X188801Y148301D01*
X188834Y148268D01*
X188845Y148257D01*
X188855Y148247D01*
X189085Y148061D01*
X189314Y147886D01*
X189533Y147733D01*
X189752Y147613D01*
X189937Y147503D01*
X190014Y147459D01*
X190080Y147427D01*
X190134Y147394D01*
X190178Y147383D01*
X190200Y147361D01*
X190211D01*
Y146465D01*
X190047Y146530D01*
X189883Y146607D01*
X189719Y146684D01*
X189566Y146760D01*
X189435Y146826D01*
X189325Y146880D01*
X189260Y146924D01*
X189249Y146935D01*
X189238D01*
X189041Y147055D01*
X188866Y147175D01*
X188713Y147285D01*
X188593Y147383D01*
X188484Y147459D01*
X188418Y147525D01*
X188364Y147569D01*
X188353Y147580D01*
Y141667D01*
X187424D01*
Y149263D01*
X188025D01*
X188134Y149077D01*
D02*
G37*
G36*
X204267Y141667D02*
X203218D01*
X200266Y149230D01*
X201283D01*
X203338Y143732D01*
X203425Y143503D01*
X203502Y143284D01*
X203567Y143077D01*
X203622Y142891D01*
X203677Y142727D01*
X203709Y142607D01*
X203720Y142563D01*
X203731Y142530D01*
X203742Y142508D01*
Y142497D01*
X203873Y142935D01*
X203939Y143142D01*
X204004Y143328D01*
X204059Y143492D01*
X204081Y143558D01*
X204092Y143623D01*
X204114Y143667D01*
X204125Y143700D01*
X204136Y143721D01*
Y143732D01*
X206103Y149230D01*
X207196D01*
X204267Y141667D01*
D02*
G37*
G36*
X193337D02*
X192277D01*
Y142727D01*
X193337D01*
Y141667D01*
D02*
G37*
G36*
X197567Y149241D02*
X197840Y149197D01*
X198069Y149121D01*
X198266Y149044D01*
X198430Y148957D01*
X198496Y148924D01*
X198550Y148880D01*
X198594Y148858D01*
X198627Y148837D01*
X198638Y148815D01*
X198649D01*
X198846Y148640D01*
X199009Y148432D01*
X199152Y148225D01*
X199261Y148028D01*
X199348Y147842D01*
X199392Y147766D01*
X199414Y147689D01*
X199436Y147634D01*
X199458Y147591D01*
X199469Y147569D01*
Y147558D01*
X199512Y147394D01*
X199556Y147230D01*
X199621Y146869D01*
X199676Y146509D01*
X199709Y146170D01*
X199720Y146006D01*
X199731Y145864D01*
Y145732D01*
X199742Y145612D01*
Y145525D01*
Y145448D01*
Y145405D01*
Y145394D01*
X199731Y145011D01*
X199709Y144650D01*
X199676Y144323D01*
X199621Y144017D01*
X199567Y143732D01*
X199501Y143481D01*
X199436Y143251D01*
X199370Y143055D01*
X199304Y142880D01*
X199228Y142727D01*
X199173Y142596D01*
X199119Y142497D01*
X199064Y142410D01*
X199031Y142355D01*
X199009Y142322D01*
X198998Y142312D01*
X198878Y142180D01*
X198747Y142060D01*
X198605Y141951D01*
X198463Y141863D01*
X198321Y141787D01*
X198179Y141721D01*
X198037Y141677D01*
X197906Y141634D01*
X197774Y141601D01*
X197654Y141579D01*
X197545Y141557D01*
X197457Y141546D01*
X197381Y141535D01*
X197272D01*
X196976Y141557D01*
X196703Y141601D01*
X196474Y141677D01*
X196277Y141754D01*
X196113Y141831D01*
X196058Y141874D01*
X196004Y141907D01*
X195960Y141929D01*
X195927Y141951D01*
X195916Y141973D01*
X195905D01*
X195709Y142158D01*
X195545Y142355D01*
X195403Y142574D01*
X195293Y142771D01*
X195206Y142956D01*
X195162Y143033D01*
X195140Y143109D01*
X195118Y143164D01*
X195097Y143208D01*
X195086Y143230D01*
Y143240D01*
X195031Y143404D01*
X194987Y143568D01*
X194922Y143918D01*
X194867Y144279D01*
X194834Y144629D01*
X194823Y144782D01*
X194812Y144924D01*
Y145055D01*
X194801Y145175D01*
Y145263D01*
Y145339D01*
Y145383D01*
Y145394D01*
Y145601D01*
X194812Y145798D01*
Y145973D01*
X194823Y146148D01*
X194845Y146301D01*
X194856Y146454D01*
X194867Y146585D01*
X194889Y146705D01*
X194900Y146815D01*
X194922Y146913D01*
X194932Y146990D01*
X194943Y147055D01*
X194954Y147110D01*
X194965Y147143D01*
X194976Y147164D01*
Y147175D01*
X195042Y147416D01*
X195118Y147634D01*
X195206Y147820D01*
X195271Y147984D01*
X195348Y148126D01*
X195392Y148225D01*
X195435Y148279D01*
X195446Y148301D01*
X195566Y148465D01*
X195687Y148607D01*
X195818Y148727D01*
X195938Y148837D01*
X196047Y148913D01*
X196135Y148968D01*
X196189Y149001D01*
X196200Y149012D01*
X196211D01*
X196386Y149099D01*
X196572Y149154D01*
X196747Y149197D01*
X196911Y149230D01*
X197053Y149252D01*
X197173Y149263D01*
X197272D01*
X197567Y149241D01*
D02*
G37*
G36*
X116564Y156831D02*
X116805Y156787D01*
X117024Y156721D01*
X117209Y156656D01*
X117362Y156590D01*
X117472Y156525D01*
X117515Y156503D01*
X117548Y156481D01*
X117559Y156470D01*
X117570D01*
X117756Y156328D01*
X117920Y156153D01*
X118062Y155989D01*
X118182Y155825D01*
X118270Y155672D01*
X118335Y155552D01*
X118357Y155508D01*
X118379Y155475D01*
X118390Y155454D01*
Y155443D01*
X118488Y155191D01*
X118554Y154940D01*
X118608Y154699D01*
X118641Y154481D01*
X118663Y154284D01*
Y154208D01*
X118674Y154131D01*
Y154076D01*
Y154033D01*
Y154011D01*
Y154000D01*
X118663Y153792D01*
X118652Y153585D01*
X118576Y153213D01*
X118532Y153038D01*
X118477Y152885D01*
X118422Y152732D01*
X118368Y152601D01*
X118313Y152470D01*
X118259Y152360D01*
X118204Y152273D01*
X118160Y152185D01*
X118116Y152131D01*
X118084Y152076D01*
X118073Y152054D01*
X118062Y152043D01*
X117942Y151901D01*
X117810Y151781D01*
X117668Y151672D01*
X117526Y151573D01*
X117373Y151497D01*
X117231Y151431D01*
X117089Y151377D01*
X116947Y151333D01*
X116816Y151300D01*
X116696Y151278D01*
X116586Y151256D01*
X116488Y151245D01*
X116411D01*
X116357Y151234D01*
X116302D01*
X116138Y151245D01*
X115974Y151267D01*
X115821Y151300D01*
X115679Y151344D01*
X115428Y151464D01*
X115198Y151595D01*
X115111Y151661D01*
X115023Y151726D01*
X114947Y151792D01*
X114892Y151847D01*
X114848Y151890D01*
X114816Y151923D01*
X114794Y151945D01*
X114783Y151956D01*
Y151792D01*
Y151650D01*
X114794Y151508D01*
Y151388D01*
Y151278D01*
X114805Y151180D01*
Y151093D01*
X114816Y151016D01*
X114827Y150907D01*
X114838Y150819D01*
X114848Y150776D01*
Y150765D01*
X114903Y150601D01*
X114980Y150459D01*
X115056Y150338D01*
X115133Y150229D01*
X115209Y150153D01*
X115275Y150087D01*
X115318Y150054D01*
X115329Y150043D01*
X115471Y149956D01*
X115635Y149890D01*
X115799Y149846D01*
X115952Y149814D01*
X116105Y149792D01*
X116215Y149781D01*
X116324D01*
X116532Y149792D01*
X116728Y149825D01*
X116892Y149868D01*
X117024Y149923D01*
X117133Y149967D01*
X117209Y150010D01*
X117253Y150043D01*
X117275Y150054D01*
X117362Y150131D01*
X117428Y150229D01*
X117482Y150327D01*
X117526Y150426D01*
X117548Y150524D01*
X117570Y150601D01*
X117581Y150644D01*
Y150666D01*
X118488Y150786D01*
Y150622D01*
X118466Y150480D01*
X118444Y150338D01*
X118412Y150207D01*
X118313Y149978D01*
X118204Y149792D01*
X118095Y149650D01*
X118007Y149551D01*
X117931Y149486D01*
X117920Y149475D01*
X117909Y149464D01*
X117668Y149311D01*
X117406Y149202D01*
X117144Y149125D01*
X116892Y149070D01*
X116772Y149048D01*
X116663Y149038D01*
X116575Y149027D01*
X116488D01*
X116422Y149016D01*
X116324D01*
X116029Y149027D01*
X115756Y149070D01*
X115515Y149114D01*
X115318Y149180D01*
X115154Y149234D01*
X115089Y149256D01*
X115034Y149289D01*
X114990Y149300D01*
X114958Y149322D01*
X114947Y149333D01*
X114936D01*
X114739Y149453D01*
X114564Y149595D01*
X114422Y149737D01*
X114302Y149868D01*
X114215Y149988D01*
X114160Y150087D01*
X114116Y150153D01*
X114105Y150163D01*
Y150174D01*
X114061Y150284D01*
X114018Y150404D01*
X113985Y150535D01*
X113952Y150677D01*
X113908Y150983D01*
X113876Y151278D01*
X113865Y151420D01*
X113854Y151551D01*
Y151672D01*
X113843Y151770D01*
Y151857D01*
Y151923D01*
Y151967D01*
Y151978D01*
Y156721D01*
X114695D01*
Y156044D01*
X114816Y156186D01*
X114947Y156306D01*
X115078Y156415D01*
X115209Y156503D01*
X115351Y156579D01*
X115482Y156645D01*
X115613Y156700D01*
X115734Y156743D01*
X115854Y156776D01*
X115963Y156798D01*
X116062Y156820D01*
X116138Y156831D01*
X116204Y156842D01*
X116302D01*
X116564Y156831D01*
D02*
G37*
G36*
X180680D02*
X180866Y156798D01*
X181029Y156765D01*
X181172Y156721D01*
X181292Y156667D01*
X181379Y156634D01*
X181434Y156601D01*
X181456Y156590D01*
X181609Y156492D01*
X181740Y156383D01*
X181860Y156273D01*
X181959Y156164D01*
X182035Y156077D01*
X182101Y156000D01*
X182133Y155956D01*
X182144Y155934D01*
Y156721D01*
X182975D01*
Y151234D01*
X182046D01*
Y154076D01*
X182035Y154339D01*
X182024Y154568D01*
X182002Y154765D01*
X181969Y154929D01*
X181937Y155049D01*
X181915Y155137D01*
X181904Y155191D01*
X181893Y155213D01*
X181827Y155355D01*
X181751Y155475D01*
X181674Y155585D01*
X181598Y155672D01*
X181521Y155738D01*
X181467Y155781D01*
X181423Y155814D01*
X181412Y155825D01*
X181281Y155891D01*
X181161Y155945D01*
X181029Y155978D01*
X180920Y156011D01*
X180833Y156022D01*
X180756Y156033D01*
X180691D01*
X180505Y156022D01*
X180352Y155989D01*
X180221Y155934D01*
X180122Y155880D01*
X180046Y155814D01*
X179991Y155771D01*
X179958Y155727D01*
X179947Y155716D01*
X179871Y155585D01*
X179816Y155443D01*
X179773Y155290D01*
X179751Y155137D01*
X179729Y155005D01*
X179718Y154885D01*
Y154841D01*
Y154820D01*
Y154798D01*
Y154787D01*
Y151234D01*
X178789D01*
Y154415D01*
X178767Y154710D01*
X178723Y154962D01*
X178669Y155169D01*
X178592Y155344D01*
X178527Y155475D01*
X178461Y155563D01*
X178417Y155617D01*
X178406Y155639D01*
X178253Y155771D01*
X178089Y155869D01*
X177925Y155934D01*
X177772Y155989D01*
X177641Y156011D01*
X177532Y156022D01*
X177488Y156033D01*
X177434D01*
X177313Y156022D01*
X177215Y156011D01*
X177117Y155989D01*
X177040Y155956D01*
X176964Y155923D01*
X176920Y155902D01*
X176887Y155891D01*
X176876Y155880D01*
X176789Y155814D01*
X176723Y155749D01*
X176669Y155683D01*
X176625Y155617D01*
X176592Y155563D01*
X176570Y155519D01*
X176548Y155486D01*
Y155475D01*
X176515Y155377D01*
X176494Y155246D01*
X176483Y155115D01*
X176472Y154983D01*
X176461Y154863D01*
Y154765D01*
Y154699D01*
Y154688D01*
Y154677D01*
Y151234D01*
X175532D01*
Y154994D01*
Y155169D01*
X175554Y155322D01*
X175575Y155475D01*
X175597Y155606D01*
X175630Y155738D01*
X175674Y155847D01*
X175707Y155945D01*
X175750Y156044D01*
X175794Y156120D01*
X175827Y156197D01*
X175903Y156295D01*
X175947Y156361D01*
X175969Y156383D01*
X176144Y156536D01*
X176351Y156645D01*
X176559Y156732D01*
X176756Y156787D01*
X176942Y156820D01*
X177018Y156831D01*
X177095D01*
X177149Y156842D01*
X177226D01*
X177423Y156831D01*
X177597Y156798D01*
X177772Y156754D01*
X177936Y156689D01*
X178089Y156612D01*
X178232Y156536D01*
X178352Y156448D01*
X178472Y156361D01*
X178581Y156262D01*
X178669Y156175D01*
X178745Y156098D01*
X178811Y156022D01*
X178865Y155956D01*
X178898Y155913D01*
X178920Y155880D01*
X178931Y155869D01*
X178997Y156033D01*
X179084Y156175D01*
X179182Y156295D01*
X179270Y156394D01*
X179357Y156481D01*
X179423Y156536D01*
X179467Y156568D01*
X179488Y156579D01*
X179641Y156667D01*
X179805Y156732D01*
X179969Y156776D01*
X180133Y156809D01*
X180264Y156831D01*
X180385Y156842D01*
X180483D01*
X180680Y156831D01*
D02*
G37*
G36*
X104268D02*
X104454Y156798D01*
X104618Y156765D01*
X104760Y156721D01*
X104880Y156667D01*
X104968Y156634D01*
X105022Y156601D01*
X105044Y156590D01*
X105197Y156492D01*
X105328Y156383D01*
X105449Y156273D01*
X105547Y156164D01*
X105623Y156077D01*
X105689Y156000D01*
X105722Y155956D01*
X105733Y155934D01*
Y156721D01*
X106563D01*
Y151234D01*
X105634D01*
Y154076D01*
X105623Y154339D01*
X105613Y154568D01*
X105591Y154765D01*
X105558Y154929D01*
X105525Y155049D01*
X105503Y155137D01*
X105492Y155191D01*
X105481Y155213D01*
X105416Y155355D01*
X105339Y155475D01*
X105263Y155585D01*
X105186Y155672D01*
X105110Y155738D01*
X105055Y155781D01*
X105011Y155814D01*
X105000Y155825D01*
X104869Y155891D01*
X104749Y155945D01*
X104618Y155978D01*
X104509Y156011D01*
X104421Y156022D01*
X104345Y156033D01*
X104279D01*
X104093Y156022D01*
X103940Y155989D01*
X103809Y155934D01*
X103711Y155880D01*
X103634Y155814D01*
X103580Y155771D01*
X103547Y155727D01*
X103536Y155716D01*
X103459Y155585D01*
X103405Y155443D01*
X103361Y155290D01*
X103339Y155137D01*
X103317Y155005D01*
X103306Y154885D01*
Y154841D01*
Y154820D01*
Y154798D01*
Y154787D01*
Y151234D01*
X102377D01*
Y154415D01*
X102355Y154710D01*
X102312Y154962D01*
X102257Y155169D01*
X102181Y155344D01*
X102115Y155475D01*
X102049Y155563D01*
X102006Y155617D01*
X101995Y155639D01*
X101842Y155771D01*
X101678Y155869D01*
X101514Y155934D01*
X101361Y155989D01*
X101230Y156011D01*
X101120Y156022D01*
X101077Y156033D01*
X101022D01*
X100902Y156022D01*
X100803Y156011D01*
X100705Y155989D01*
X100628Y155956D01*
X100552Y155923D01*
X100508Y155902D01*
X100476Y155891D01*
X100464Y155880D01*
X100377Y155814D01*
X100312Y155749D01*
X100257Y155683D01*
X100213Y155617D01*
X100180Y155563D01*
X100159Y155519D01*
X100137Y155486D01*
Y155475D01*
X100104Y155377D01*
X100082Y155246D01*
X100071Y155115D01*
X100060Y154983D01*
X100049Y154863D01*
Y154765D01*
Y154699D01*
Y154688D01*
Y154677D01*
Y151234D01*
X99120D01*
Y154994D01*
Y155169D01*
X99142Y155322D01*
X99164Y155475D01*
X99186Y155606D01*
X99218Y155738D01*
X99262Y155847D01*
X99295Y155945D01*
X99339Y156044D01*
X99382Y156120D01*
X99415Y156197D01*
X99492Y156295D01*
X99536Y156361D01*
X99557Y156383D01*
X99732Y156536D01*
X99940Y156645D01*
X100148Y156732D01*
X100344Y156787D01*
X100530Y156820D01*
X100607Y156831D01*
X100683D01*
X100738Y156842D01*
X100814D01*
X101011Y156831D01*
X101186Y156798D01*
X101361Y156754D01*
X101525Y156689D01*
X101678Y156612D01*
X101820Y156536D01*
X101940Y156448D01*
X102060Y156361D01*
X102170Y156262D01*
X102257Y156175D01*
X102334Y156098D01*
X102399Y156022D01*
X102454Y155956D01*
X102487Y155913D01*
X102508Y155880D01*
X102519Y155869D01*
X102585Y156033D01*
X102672Y156175D01*
X102771Y156295D01*
X102858Y156394D01*
X102946Y156481D01*
X103011Y156536D01*
X103055Y156568D01*
X103077Y156579D01*
X103230Y156667D01*
X103394Y156732D01*
X103558Y156776D01*
X103722Y156809D01*
X103853Y156831D01*
X103973Y156842D01*
X104071D01*
X104268Y156831D01*
D02*
G37*
G36*
X51367D02*
X51553Y156798D01*
X51717Y156765D01*
X51859Y156721D01*
X51979Y156667D01*
X52066Y156634D01*
X52121Y156601D01*
X52143Y156590D01*
X52296Y156492D01*
X52427Y156383D01*
X52547Y156273D01*
X52646Y156164D01*
X52722Y156077D01*
X52788Y156000D01*
X52821Y155956D01*
X52832Y155934D01*
Y156721D01*
X53662D01*
Y151234D01*
X52733D01*
Y154076D01*
X52722Y154339D01*
X52711Y154568D01*
X52689Y154765D01*
X52657Y154929D01*
X52624Y155049D01*
X52602Y155137D01*
X52591Y155191D01*
X52580Y155213D01*
X52515Y155355D01*
X52438Y155475D01*
X52362Y155585D01*
X52285Y155672D01*
X52209Y155738D01*
X52154Y155781D01*
X52110Y155814D01*
X52099Y155825D01*
X51968Y155891D01*
X51848Y155945D01*
X51717Y155978D01*
X51607Y156011D01*
X51520Y156022D01*
X51443Y156033D01*
X51378D01*
X51192Y156022D01*
X51039Y155989D01*
X50908Y155934D01*
X50810Y155880D01*
X50733Y155814D01*
X50678Y155771D01*
X50646Y155727D01*
X50635Y155716D01*
X50558Y155585D01*
X50503Y155443D01*
X50460Y155290D01*
X50438Y155137D01*
X50416Y155005D01*
X50405Y154885D01*
Y154841D01*
Y154820D01*
Y154798D01*
Y154787D01*
Y151234D01*
X49476D01*
Y154415D01*
X49454Y154710D01*
X49411Y154962D01*
X49356Y155169D01*
X49279Y155344D01*
X49214Y155475D01*
X49148Y155563D01*
X49104Y155617D01*
X49093Y155639D01*
X48941Y155771D01*
X48777Y155869D01*
X48613Y155934D01*
X48460Y155989D01*
X48328Y156011D01*
X48219Y156022D01*
X48175Y156033D01*
X48121D01*
X48000Y156022D01*
X47902Y156011D01*
X47804Y155989D01*
X47727Y155956D01*
X47651Y155923D01*
X47607Y155902D01*
X47574Y155891D01*
X47563Y155880D01*
X47476Y155814D01*
X47410Y155749D01*
X47356Y155683D01*
X47312Y155617D01*
X47279Y155563D01*
X47257Y155519D01*
X47235Y155486D01*
Y155475D01*
X47203Y155377D01*
X47181Y155246D01*
X47170Y155115D01*
X47159Y154983D01*
X47148Y154863D01*
Y154765D01*
Y154699D01*
Y154688D01*
Y154677D01*
Y151234D01*
X46219D01*
Y154994D01*
Y155169D01*
X46241Y155322D01*
X46263Y155475D01*
X46284Y155606D01*
X46317Y155738D01*
X46361Y155847D01*
X46394Y155945D01*
X46437Y156044D01*
X46481Y156120D01*
X46514Y156197D01*
X46591Y156295D01*
X46634Y156361D01*
X46656Y156383D01*
X46831Y156536D01*
X47039Y156645D01*
X47246Y156732D01*
X47443Y156787D01*
X47629Y156820D01*
X47705Y156831D01*
X47782D01*
X47837Y156842D01*
X47913D01*
X48110Y156831D01*
X48285Y156798D01*
X48460Y156754D01*
X48623Y156689D01*
X48777Y156612D01*
X48919Y156536D01*
X49039Y156448D01*
X49159Y156361D01*
X49268Y156262D01*
X49356Y156175D01*
X49432Y156098D01*
X49498Y156022D01*
X49553Y155956D01*
X49585Y155913D01*
X49607Y155880D01*
X49618Y155869D01*
X49684Y156033D01*
X49771Y156175D01*
X49869Y156295D01*
X49957Y156394D01*
X50044Y156481D01*
X50110Y156536D01*
X50154Y156568D01*
X50176Y156579D01*
X50329Y156667D01*
X50493Y156732D01*
X50656Y156776D01*
X50820Y156809D01*
X50952Y156831D01*
X51072Y156842D01*
X51170D01*
X51367Y156831D01*
D02*
G37*
G36*
X163870D02*
X164099Y156809D01*
X164318Y156776D01*
X164492Y156743D01*
X164646Y156711D01*
X164755Y156678D01*
X164798Y156667D01*
X164831Y156656D01*
X164842Y156645D01*
X164853D01*
X165039Y156568D01*
X165203Y156470D01*
X165345Y156383D01*
X165465Y156295D01*
X165553Y156208D01*
X165618Y156142D01*
X165662Y156098D01*
X165673Y156088D01*
X165771Y155945D01*
X165859Y155792D01*
X165924Y155639D01*
X165979Y155497D01*
X166023Y155355D01*
X166055Y155257D01*
X166066Y155213D01*
Y155180D01*
X166077Y155169D01*
Y155158D01*
X165170Y155038D01*
X165104Y155235D01*
X165039Y155410D01*
X164962Y155552D01*
X164897Y155661D01*
X164831Y155749D01*
X164777Y155803D01*
X164733Y155836D01*
X164722Y155847D01*
X164591Y155923D01*
X164438Y155978D01*
X164274Y156022D01*
X164121Y156044D01*
X163968Y156066D01*
X163858Y156077D01*
X163749D01*
X163498Y156066D01*
X163279Y156033D01*
X163104Y155978D01*
X162951Y155923D01*
X162842Y155858D01*
X162755Y155814D01*
X162700Y155771D01*
X162689Y155760D01*
X162602Y155661D01*
X162536Y155541D01*
X162481Y155410D01*
X162449Y155279D01*
X162427Y155158D01*
X162416Y155049D01*
Y154983D01*
Y154973D01*
Y154962D01*
Y154940D01*
Y154896D01*
Y154820D01*
X162427Y154754D01*
Y154732D01*
Y154721D01*
X162536Y154688D01*
X162656Y154656D01*
X162908Y154590D01*
X163192Y154535D01*
X163454Y154481D01*
X163585Y154459D01*
X163706Y154448D01*
X163815Y154426D01*
X163902Y154415D01*
X163979Y154404D01*
X164033D01*
X164077Y154393D01*
X164088D01*
X164285Y154372D01*
X164449Y154339D01*
X164591Y154317D01*
X164700Y154295D01*
X164788Y154284D01*
X164853Y154262D01*
X164897Y154251D01*
X164908D01*
X165050Y154208D01*
X165170Y154164D01*
X165290Y154109D01*
X165389Y154065D01*
X165476Y154022D01*
X165531Y153978D01*
X165575Y153956D01*
X165585Y153945D01*
X165695Y153869D01*
X165782Y153781D01*
X165870Y153694D01*
X165935Y153606D01*
X165990Y153530D01*
X166034Y153464D01*
X166055Y153420D01*
X166066Y153410D01*
X166121Y153289D01*
X166165Y153158D01*
X166198Y153038D01*
X166219Y152918D01*
X166230Y152819D01*
X166241Y152743D01*
Y152699D01*
Y152677D01*
X166230Y152546D01*
X166219Y152437D01*
X166165Y152207D01*
X166088Y152022D01*
X166001Y151857D01*
X165913Y151726D01*
X165837Y151628D01*
X165782Y151573D01*
X165760Y151551D01*
X165564Y151409D01*
X165345Y151300D01*
X165104Y151224D01*
X164886Y151169D01*
X164689Y151136D01*
X164602Y151125D01*
X164525D01*
X164460Y151114D01*
X164372D01*
X164175Y151125D01*
X163979Y151147D01*
X163804Y151169D01*
X163651Y151202D01*
X163531Y151234D01*
X163432Y151267D01*
X163367Y151278D01*
X163345Y151289D01*
X163159Y151366D01*
X162984Y151464D01*
X162820Y151573D01*
X162656Y151672D01*
X162525Y151770D01*
X162427Y151847D01*
X162361Y151901D01*
X162350Y151923D01*
X162339D01*
X162317Y151781D01*
X162295Y151650D01*
X162274Y151530D01*
X162241Y151431D01*
X162208Y151344D01*
X162186Y151289D01*
X162175Y151245D01*
X162164Y151234D01*
X161192D01*
X161246Y151355D01*
X161301Y151475D01*
X161345Y151584D01*
X161366Y151683D01*
X161399Y151770D01*
X161410Y151836D01*
X161421Y151879D01*
Y151890D01*
X161432Y151967D01*
X161443Y152065D01*
Y152174D01*
X161454Y152295D01*
X161465Y152568D01*
Y152841D01*
X161476Y153104D01*
Y153224D01*
Y153322D01*
Y153410D01*
Y153475D01*
Y153519D01*
Y153530D01*
Y154776D01*
Y154983D01*
X161487Y155169D01*
X161498Y155311D01*
Y155432D01*
X161509Y155519D01*
X161520Y155585D01*
X161530Y155617D01*
Y155628D01*
X161563Y155771D01*
X161607Y155891D01*
X161651Y155989D01*
X161705Y156088D01*
X161749Y156153D01*
X161782Y156208D01*
X161804Y156240D01*
X161815Y156251D01*
X161902Y156339D01*
X162000Y156426D01*
X162110Y156492D01*
X162219Y156557D01*
X162317Y156601D01*
X162394Y156634D01*
X162449Y156656D01*
X162470Y156667D01*
X162645Y156721D01*
X162831Y156765D01*
X163017Y156798D01*
X163203Y156820D01*
X163367Y156831D01*
X163487Y156842D01*
X163607D01*
X163870Y156831D01*
D02*
G37*
G36*
X133899D02*
X134129Y156809D01*
X134347Y156776D01*
X134522Y156743D01*
X134675Y156711D01*
X134785Y156678D01*
X134828Y156667D01*
X134861Y156656D01*
X134872Y156645D01*
X134883D01*
X135069Y156568D01*
X135233Y156470D01*
X135375Y156383D01*
X135495Y156295D01*
X135583Y156208D01*
X135648Y156142D01*
X135692Y156098D01*
X135703Y156088D01*
X135801Y155945D01*
X135889Y155792D01*
X135954Y155639D01*
X136009Y155497D01*
X136053Y155355D01*
X136085Y155257D01*
X136096Y155213D01*
Y155180D01*
X136107Y155169D01*
Y155158D01*
X135200Y155038D01*
X135134Y155235D01*
X135069Y155410D01*
X134992Y155552D01*
X134927Y155661D01*
X134861Y155749D01*
X134807Y155803D01*
X134763Y155836D01*
X134752Y155847D01*
X134621Y155923D01*
X134468Y155978D01*
X134304Y156022D01*
X134151Y156044D01*
X133998Y156066D01*
X133888Y156077D01*
X133779D01*
X133528Y156066D01*
X133309Y156033D01*
X133134Y155978D01*
X132981Y155923D01*
X132872Y155858D01*
X132784Y155814D01*
X132730Y155771D01*
X132719Y155760D01*
X132632Y155661D01*
X132566Y155541D01*
X132511Y155410D01*
X132478Y155279D01*
X132457Y155158D01*
X132446Y155049D01*
Y154983D01*
Y154973D01*
Y154962D01*
Y154940D01*
Y154896D01*
Y154820D01*
X132457Y154754D01*
Y154732D01*
Y154721D01*
X132566Y154688D01*
X132686Y154656D01*
X132938Y154590D01*
X133222Y154535D01*
X133484Y154481D01*
X133615Y154459D01*
X133735Y154448D01*
X133845Y154426D01*
X133932Y154415D01*
X134009Y154404D01*
X134063D01*
X134107Y154393D01*
X134118D01*
X134315Y154372D01*
X134479Y154339D01*
X134621Y154317D01*
X134730Y154295D01*
X134818Y154284D01*
X134883Y154262D01*
X134927Y154251D01*
X134938D01*
X135080Y154208D01*
X135200Y154164D01*
X135320Y154109D01*
X135419Y154065D01*
X135506Y154022D01*
X135561Y153978D01*
X135605Y153956D01*
X135615Y153945D01*
X135725Y153869D01*
X135812Y153781D01*
X135900Y153694D01*
X135965Y153606D01*
X136020Y153530D01*
X136064Y153464D01*
X136085Y153420D01*
X136096Y153410D01*
X136151Y153289D01*
X136195Y153158D01*
X136228Y153038D01*
X136249Y152918D01*
X136260Y152819D01*
X136271Y152743D01*
Y152699D01*
Y152677D01*
X136260Y152546D01*
X136249Y152437D01*
X136195Y152207D01*
X136118Y152022D01*
X136031Y151857D01*
X135943Y151726D01*
X135867Y151628D01*
X135812Y151573D01*
X135790Y151551D01*
X135593Y151409D01*
X135375Y151300D01*
X135134Y151224D01*
X134916Y151169D01*
X134719Y151136D01*
X134632Y151125D01*
X134555D01*
X134490Y151114D01*
X134402D01*
X134205Y151125D01*
X134009Y151147D01*
X133834Y151169D01*
X133681Y151202D01*
X133561Y151234D01*
X133462Y151267D01*
X133397Y151278D01*
X133375Y151289D01*
X133189Y151366D01*
X133014Y151464D01*
X132850Y151573D01*
X132686Y151672D01*
X132555Y151770D01*
X132457Y151847D01*
X132391Y151901D01*
X132380Y151923D01*
X132369D01*
X132347Y151781D01*
X132325Y151650D01*
X132304Y151530D01*
X132271Y151431D01*
X132238Y151344D01*
X132216Y151289D01*
X132205Y151245D01*
X132194Y151234D01*
X131221D01*
X131276Y151355D01*
X131331Y151475D01*
X131375Y151584D01*
X131396Y151683D01*
X131429Y151770D01*
X131440Y151836D01*
X131451Y151879D01*
Y151890D01*
X131462Y151967D01*
X131473Y152065D01*
Y152174D01*
X131484Y152295D01*
X131495Y152568D01*
Y152841D01*
X131506Y153104D01*
Y153224D01*
Y153322D01*
Y153410D01*
Y153475D01*
Y153519D01*
Y153530D01*
Y154776D01*
Y154983D01*
X131517Y155169D01*
X131528Y155311D01*
Y155432D01*
X131538Y155519D01*
X131549Y155585D01*
X131560Y155617D01*
Y155628D01*
X131593Y155771D01*
X131637Y155891D01*
X131681Y155989D01*
X131735Y156088D01*
X131779Y156153D01*
X131812Y156208D01*
X131834Y156240D01*
X131845Y156251D01*
X131932Y156339D01*
X132030Y156426D01*
X132140Y156492D01*
X132249Y156557D01*
X132347Y156601D01*
X132424Y156634D01*
X132478Y156656D01*
X132500Y156667D01*
X132675Y156721D01*
X132861Y156765D01*
X133047Y156798D01*
X133233Y156820D01*
X133397Y156831D01*
X133517Y156842D01*
X133637D01*
X133899Y156831D01*
D02*
G37*
G36*
X122139D02*
X122368Y156809D01*
X122587Y156776D01*
X122762Y156743D01*
X122915Y156711D01*
X123024Y156678D01*
X123068Y156667D01*
X123100Y156656D01*
X123111Y156645D01*
X123122D01*
X123308Y156568D01*
X123472Y156470D01*
X123614Y156383D01*
X123734Y156295D01*
X123822Y156208D01*
X123888Y156142D01*
X123931Y156098D01*
X123942Y156088D01*
X124040Y155945D01*
X124128Y155792D01*
X124194Y155639D01*
X124248Y155497D01*
X124292Y155355D01*
X124325Y155257D01*
X124336Y155213D01*
Y155180D01*
X124347Y155169D01*
Y155158D01*
X123439Y155038D01*
X123374Y155235D01*
X123308Y155410D01*
X123232Y155552D01*
X123166Y155661D01*
X123100Y155749D01*
X123046Y155803D01*
X123002Y155836D01*
X122991Y155847D01*
X122860Y155923D01*
X122707Y155978D01*
X122543Y156022D01*
X122390Y156044D01*
X122237Y156066D01*
X122128Y156077D01*
X122019D01*
X121767Y156066D01*
X121548Y156033D01*
X121374Y155978D01*
X121221Y155923D01*
X121111Y155858D01*
X121024Y155814D01*
X120969Y155771D01*
X120958Y155760D01*
X120871Y155661D01*
X120805Y155541D01*
X120751Y155410D01*
X120718Y155279D01*
X120696Y155158D01*
X120685Y155049D01*
Y154983D01*
Y154973D01*
Y154962D01*
Y154940D01*
Y154896D01*
Y154820D01*
X120696Y154754D01*
Y154732D01*
Y154721D01*
X120805Y154688D01*
X120925Y154656D01*
X121177Y154590D01*
X121461Y154535D01*
X121723Y154481D01*
X121854Y154459D01*
X121975Y154448D01*
X122084Y154426D01*
X122171Y154415D01*
X122248Y154404D01*
X122303D01*
X122346Y154393D01*
X122357D01*
X122554Y154372D01*
X122718Y154339D01*
X122860Y154317D01*
X122969Y154295D01*
X123057Y154284D01*
X123122Y154262D01*
X123166Y154251D01*
X123177D01*
X123319Y154208D01*
X123439Y154164D01*
X123560Y154109D01*
X123658Y154065D01*
X123745Y154022D01*
X123800Y153978D01*
X123844Y153956D01*
X123855Y153945D01*
X123964Y153869D01*
X124051Y153781D01*
X124139Y153694D01*
X124205Y153606D01*
X124259Y153530D01*
X124303Y153464D01*
X124325Y153420D01*
X124336Y153410D01*
X124390Y153289D01*
X124434Y153158D01*
X124467Y153038D01*
X124489Y152918D01*
X124500Y152819D01*
X124511Y152743D01*
Y152699D01*
Y152677D01*
X124500Y152546D01*
X124489Y152437D01*
X124434Y152207D01*
X124357Y152022D01*
X124270Y151857D01*
X124183Y151726D01*
X124106Y151628D01*
X124051Y151573D01*
X124030Y151551D01*
X123833Y151409D01*
X123614Y151300D01*
X123374Y151224D01*
X123155Y151169D01*
X122959Y151136D01*
X122871Y151125D01*
X122794D01*
X122729Y151114D01*
X122642D01*
X122445Y151125D01*
X122248Y151147D01*
X122073Y151169D01*
X121920Y151202D01*
X121800Y151234D01*
X121702Y151267D01*
X121636Y151278D01*
X121614Y151289D01*
X121428Y151366D01*
X121253Y151464D01*
X121089Y151573D01*
X120925Y151672D01*
X120794Y151770D01*
X120696Y151847D01*
X120630Y151901D01*
X120619Y151923D01*
X120608D01*
X120587Y151781D01*
X120565Y151650D01*
X120543Y151530D01*
X120510Y151431D01*
X120477Y151344D01*
X120456Y151289D01*
X120445Y151245D01*
X120434Y151234D01*
X119461D01*
X119516Y151355D01*
X119570Y151475D01*
X119614Y151584D01*
X119636Y151683D01*
X119668Y151770D01*
X119679Y151836D01*
X119690Y151879D01*
Y151890D01*
X119701Y151967D01*
X119712Y152065D01*
Y152174D01*
X119723Y152295D01*
X119734Y152568D01*
Y152841D01*
X119745Y153104D01*
Y153224D01*
Y153322D01*
Y153410D01*
Y153475D01*
Y153519D01*
Y153530D01*
Y154776D01*
Y154983D01*
X119756Y155169D01*
X119767Y155311D01*
Y155432D01*
X119778Y155519D01*
X119789Y155585D01*
X119800Y155617D01*
Y155628D01*
X119833Y155771D01*
X119876Y155891D01*
X119920Y155989D01*
X119975Y156088D01*
X120018Y156153D01*
X120051Y156208D01*
X120073Y156240D01*
X120084Y156251D01*
X120171Y156339D01*
X120270Y156426D01*
X120379Y156492D01*
X120488Y156557D01*
X120587Y156601D01*
X120663Y156634D01*
X120718Y156656D01*
X120740Y156667D01*
X120915Y156721D01*
X121100Y156765D01*
X121286Y156798D01*
X121472Y156820D01*
X121636Y156831D01*
X121756Y156842D01*
X121876D01*
X122139Y156831D01*
D02*
G37*
G36*
X144676Y151234D02*
X143714D01*
Y157672D01*
X141528Y151234D01*
X140632D01*
X138424Y157563D01*
Y151234D01*
X137463D01*
Y158798D01*
X138807D01*
X140621Y153530D01*
X140720Y153246D01*
X140796Y153005D01*
X140873Y152797D01*
X140927Y152623D01*
X140971Y152491D01*
X141004Y152393D01*
X141015Y152339D01*
X141026Y152317D01*
X141069Y152470D01*
X141124Y152645D01*
X141190Y152830D01*
X141244Y153016D01*
X141299Y153180D01*
X141343Y153311D01*
X141365Y153366D01*
X141376Y153399D01*
X141386Y153420D01*
Y153431D01*
X143179Y158798D01*
X144676D01*
Y151234D01*
D02*
G37*
G36*
X71511D02*
X71555Y151136D01*
X71576Y151060D01*
X71598Y151016D01*
Y151005D01*
X71664Y150819D01*
X71729Y150666D01*
X71773Y150535D01*
X71817Y150448D01*
X71839Y150382D01*
X71861Y150338D01*
X71883Y150316D01*
Y150305D01*
X71970Y150185D01*
X72068Y150098D01*
X72112Y150065D01*
X72145Y150043D01*
X72167Y150021D01*
X72178D01*
X72254Y149988D01*
X72331Y149956D01*
X72495Y149923D01*
X72560D01*
X72615Y149912D01*
X72670D01*
X72844Y149923D01*
X73019Y149956D01*
X73085Y149978D01*
X73140Y149988D01*
X73183Y149999D01*
X73194D01*
X73096Y149136D01*
X72976Y149092D01*
X72866Y149070D01*
X72768Y149048D01*
X72680Y149027D01*
X72604D01*
X72549Y149016D01*
X72506D01*
X72342Y149027D01*
X72199Y149048D01*
X72068Y149081D01*
X71959Y149125D01*
X71861Y149169D01*
X71795Y149202D01*
X71751Y149223D01*
X71741Y149234D01*
X71620Y149322D01*
X71522Y149431D01*
X71424Y149540D01*
X71336Y149650D01*
X71271Y149748D01*
X71216Y149825D01*
X71183Y149879D01*
X71172Y149901D01*
X71139Y149978D01*
X71096Y150054D01*
X71008Y150240D01*
X70921Y150448D01*
X70844Y150655D01*
X70768Y150841D01*
X70735Y150928D01*
X70702Y151005D01*
X70680Y151060D01*
X70658Y151103D01*
X70648Y151136D01*
Y151147D01*
X68560Y156721D01*
X69489D01*
X70669Y153519D01*
X70757Y153289D01*
X70822Y153071D01*
X70899Y152852D01*
X70954Y152666D01*
X70997Y152502D01*
X71019Y152437D01*
X71030Y152382D01*
X71041Y152339D01*
X71052Y152306D01*
X71063Y152284D01*
Y152273D01*
X71128Y152524D01*
X71194Y152754D01*
X71260Y152972D01*
X71325Y153158D01*
X71380Y153311D01*
X71402Y153377D01*
X71424Y153431D01*
X71434Y153486D01*
X71445Y153519D01*
X71456Y153530D01*
Y153541D01*
X72604Y156721D01*
X73588D01*
X71511Y151234D01*
D02*
G37*
G36*
X159891Y158077D02*
Y156721D01*
X160580D01*
Y156000D01*
X159891D01*
Y152830D01*
Y152677D01*
Y152546D01*
X159880Y152426D01*
X159869Y152306D01*
Y152207D01*
X159858Y152120D01*
X159836Y151978D01*
X159814Y151868D01*
X159803Y151792D01*
X159782Y151748D01*
Y151737D01*
X159738Y151639D01*
X159672Y151562D01*
X159607Y151486D01*
X159552Y151431D01*
X159486Y151377D01*
X159443Y151344D01*
X159410Y151322D01*
X159399Y151311D01*
X159279Y151256D01*
X159159Y151224D01*
X159028Y151191D01*
X158896Y151180D01*
X158787Y151169D01*
X158700Y151158D01*
X158612D01*
X158372Y151169D01*
X158251Y151180D01*
X158142Y151202D01*
X158044Y151213D01*
X157967Y151224D01*
X157923Y151234D01*
X157902D01*
X158022Y152054D01*
X158109Y152043D01*
X158197Y152032D01*
X158273D01*
X158328Y152022D01*
X158437D01*
X158579Y152032D01*
X158678Y152054D01*
X158732Y152076D01*
X158754Y152087D01*
X158831Y152142D01*
X158874Y152196D01*
X158907Y152240D01*
X158918Y152262D01*
X158929Y152317D01*
X158940Y152393D01*
X158951Y152568D01*
X158962Y152645D01*
Y152710D01*
Y152754D01*
Y152776D01*
Y156000D01*
X158022D01*
Y156721D01*
X158962D01*
Y158634D01*
X159891Y158077D01*
D02*
G37*
G36*
X85829D02*
Y156721D01*
X86518D01*
Y156000D01*
X85829D01*
Y152830D01*
Y152677D01*
Y152546D01*
X85818Y152426D01*
X85807Y152306D01*
Y152207D01*
X85796Y152120D01*
X85775Y151978D01*
X85753Y151868D01*
X85742Y151792D01*
X85720Y151748D01*
Y151737D01*
X85676Y151639D01*
X85611Y151562D01*
X85545Y151486D01*
X85490Y151431D01*
X85425Y151377D01*
X85381Y151344D01*
X85348Y151322D01*
X85337Y151311D01*
X85217Y151256D01*
X85097Y151224D01*
X84966Y151191D01*
X84835Y151180D01*
X84725Y151169D01*
X84638Y151158D01*
X84550D01*
X84310Y151169D01*
X84190Y151180D01*
X84080Y151202D01*
X83982Y151213D01*
X83906Y151224D01*
X83862Y151234D01*
X83840D01*
X83960Y152054D01*
X84048Y152043D01*
X84135Y152032D01*
X84212D01*
X84266Y152022D01*
X84376D01*
X84518Y152032D01*
X84616Y152054D01*
X84671Y152076D01*
X84693Y152087D01*
X84769Y152142D01*
X84813Y152196D01*
X84846Y152240D01*
X84856Y152262D01*
X84867Y152317D01*
X84878Y152393D01*
X84889Y152568D01*
X84900Y152645D01*
Y152710D01*
Y152754D01*
Y152776D01*
Y156000D01*
X83960D01*
Y156721D01*
X84900D01*
Y158634D01*
X85829Y158077D01*
D02*
G37*
G36*
X62319D02*
Y156721D01*
X63007D01*
Y156000D01*
X62319D01*
Y152830D01*
Y152677D01*
Y152546D01*
X62308Y152426D01*
X62297Y152306D01*
Y152207D01*
X62286Y152120D01*
X62264Y151978D01*
X62242Y151868D01*
X62231Y151792D01*
X62209Y151748D01*
Y151737D01*
X62166Y151639D01*
X62100Y151562D01*
X62035Y151486D01*
X61980Y151431D01*
X61914Y151377D01*
X61871Y151344D01*
X61838Y151322D01*
X61827Y151311D01*
X61707Y151256D01*
X61586Y151224D01*
X61455Y151191D01*
X61324Y151180D01*
X61215Y151169D01*
X61127Y151158D01*
X61040D01*
X60799Y151169D01*
X60679Y151180D01*
X60570Y151202D01*
X60472Y151213D01*
X60395Y151224D01*
X60351Y151234D01*
X60330D01*
X60450Y152054D01*
X60537Y152043D01*
X60625Y152032D01*
X60701D01*
X60756Y152022D01*
X60865D01*
X61007Y152032D01*
X61106Y152054D01*
X61160Y152076D01*
X61182Y152087D01*
X61259Y152142D01*
X61302Y152196D01*
X61335Y152240D01*
X61346Y152262D01*
X61357Y152317D01*
X61368Y152393D01*
X61379Y152568D01*
X61390Y152645D01*
Y152710D01*
Y152754D01*
Y152776D01*
Y156000D01*
X60450D01*
Y156721D01*
X61390D01*
Y158634D01*
X62319Y158077D01*
D02*
G37*
G36*
X188866Y153322D02*
Y153114D01*
X188855Y152929D01*
X188845Y152787D01*
X188834Y152655D01*
Y152568D01*
X188823Y152502D01*
X188812Y152459D01*
Y152448D01*
X188779Y152306D01*
X188735Y152174D01*
X188691Y152054D01*
X188637Y151956D01*
X188593Y151868D01*
X188560Y151814D01*
X188539Y151770D01*
X188528Y151759D01*
X188440Y151661D01*
X188342Y151573D01*
X188243Y151497D01*
X188134Y151431D01*
X188047Y151377D01*
X187970Y151333D01*
X187926Y151311D01*
X187905Y151300D01*
X187741Y151234D01*
X187588Y151191D01*
X187434Y151158D01*
X187292Y151136D01*
X187172Y151125D01*
X187074Y151114D01*
X186997D01*
X186801Y151125D01*
X186604Y151158D01*
X186429Y151202D01*
X186254Y151256D01*
X186101Y151333D01*
X185959Y151409D01*
X185828Y151486D01*
X185708Y151573D01*
X185598Y151661D01*
X185511Y151737D01*
X185434Y151825D01*
X185369Y151890D01*
X185314Y151945D01*
X185281Y151989D01*
X185259Y152022D01*
X185248Y152032D01*
Y151234D01*
X184418D01*
Y156721D01*
X185347D01*
Y153781D01*
X185358Y153530D01*
X185369Y153311D01*
X185391Y153125D01*
X185423Y152972D01*
X185456Y152852D01*
X185478Y152765D01*
X185489Y152721D01*
X185500Y152699D01*
X185565Y152568D01*
X185642Y152459D01*
X185729Y152360D01*
X185817Y152273D01*
X185893Y152207D01*
X185959Y152164D01*
X186003Y152131D01*
X186025Y152120D01*
X186167Y152054D01*
X186309Y152000D01*
X186440Y151967D01*
X186560Y151934D01*
X186659Y151923D01*
X186735Y151912D01*
X186811D01*
X186964Y151923D01*
X187096Y151945D01*
X187216Y151978D01*
X187314Y152022D01*
X187402Y152054D01*
X187456Y152087D01*
X187500Y152109D01*
X187511Y152120D01*
X187609Y152207D01*
X187686Y152295D01*
X187751Y152393D01*
X187806Y152481D01*
X187839Y152568D01*
X187861Y152634D01*
X187883Y152677D01*
Y152688D01*
X187905Y152808D01*
X187916Y152951D01*
X187926Y153114D01*
Y153278D01*
X187937Y153431D01*
Y153552D01*
Y153606D01*
Y153639D01*
Y153661D01*
Y153672D01*
Y156721D01*
X188866D01*
Y153322D01*
D02*
G37*
G36*
X174176D02*
Y153114D01*
X174165Y152929D01*
X174155Y152787D01*
X174144Y152655D01*
Y152568D01*
X174133Y152502D01*
X174122Y152459D01*
Y152448D01*
X174089Y152306D01*
X174045Y152174D01*
X174002Y152054D01*
X173947Y151956D01*
X173903Y151868D01*
X173870Y151814D01*
X173848Y151770D01*
X173838Y151759D01*
X173750Y151661D01*
X173652Y151573D01*
X173553Y151497D01*
X173444Y151431D01*
X173357Y151377D01*
X173280Y151333D01*
X173237Y151311D01*
X173215Y151300D01*
X173051Y151234D01*
X172898Y151191D01*
X172745Y151158D01*
X172602Y151136D01*
X172482Y151125D01*
X172384Y151114D01*
X172307D01*
X172111Y151125D01*
X171914Y151158D01*
X171739Y151202D01*
X171564Y151256D01*
X171411Y151333D01*
X171269Y151409D01*
X171138Y151486D01*
X171018Y151573D01*
X170908Y151661D01*
X170821Y151737D01*
X170744Y151825D01*
X170679Y151890D01*
X170624Y151945D01*
X170591Y151989D01*
X170570Y152022D01*
X170559Y152032D01*
Y151234D01*
X169728D01*
Y156721D01*
X170657D01*
Y153781D01*
X170668Y153530D01*
X170679Y153311D01*
X170701Y153125D01*
X170733Y152972D01*
X170766Y152852D01*
X170788Y152765D01*
X170799Y152721D01*
X170810Y152699D01*
X170876Y152568D01*
X170952Y152459D01*
X171039Y152360D01*
X171127Y152273D01*
X171203Y152207D01*
X171269Y152164D01*
X171313Y152131D01*
X171335Y152120D01*
X171477Y152054D01*
X171619Y152000D01*
X171750Y151967D01*
X171870Y151934D01*
X171969Y151923D01*
X172045Y151912D01*
X172122D01*
X172275Y151923D01*
X172406Y151945D01*
X172526Y151978D01*
X172624Y152022D01*
X172712Y152054D01*
X172766Y152087D01*
X172810Y152109D01*
X172821Y152120D01*
X172919Y152207D01*
X172996Y152295D01*
X173062Y152393D01*
X173116Y152481D01*
X173149Y152568D01*
X173171Y152634D01*
X173193Y152677D01*
Y152688D01*
X173215Y152808D01*
X173225Y152951D01*
X173237Y153114D01*
Y153278D01*
X173247Y153431D01*
Y153552D01*
Y153606D01*
Y153639D01*
Y153661D01*
Y153672D01*
Y156721D01*
X174176D01*
Y153322D01*
D02*
G37*
G36*
X197468Y156831D02*
X197709Y156787D01*
X197938Y156732D01*
X198124Y156678D01*
X198288Y156612D01*
X198354Y156579D01*
X198408Y156557D01*
X198452Y156536D01*
X198485Y156514D01*
X198507Y156503D01*
X198518D01*
X198725Y156372D01*
X198911Y156208D01*
X199064Y156044D01*
X199195Y155880D01*
X199294Y155738D01*
X199359Y155617D01*
X199381Y155574D01*
X199403Y155541D01*
X199414Y155519D01*
Y155508D01*
X199512Y155246D01*
X199578Y154983D01*
X199632Y154721D01*
X199665Y154481D01*
X199676Y154372D01*
X199687Y154273D01*
Y154186D01*
X199698Y154109D01*
Y154044D01*
Y154000D01*
Y153967D01*
Y153956D01*
X199687Y153705D01*
X199665Y153475D01*
X199632Y153246D01*
X199589Y153049D01*
X199545Y152852D01*
X199479Y152688D01*
X199425Y152524D01*
X199359Y152382D01*
X199294Y152262D01*
X199239Y152153D01*
X199173Y152054D01*
X199130Y151978D01*
X199086Y151923D01*
X199053Y151879D01*
X199031Y151857D01*
X199020Y151847D01*
X198889Y151716D01*
X198747Y151606D01*
X198605Y151508D01*
X198452Y151420D01*
X198299Y151355D01*
X198157Y151289D01*
X197862Y151202D01*
X197731Y151180D01*
X197610Y151158D01*
X197501Y151136D01*
X197403Y151125D01*
X197326Y151114D01*
X197217D01*
X197053Y151125D01*
X196889Y151136D01*
X196605Y151202D01*
X196343Y151278D01*
X196124Y151377D01*
X196036Y151431D01*
X195949Y151475D01*
X195872Y151519D01*
X195818Y151562D01*
X195774Y151595D01*
X195741Y151617D01*
X195720Y151628D01*
X195709Y151639D01*
X195599Y151748D01*
X195501Y151857D01*
X195326Y152098D01*
X195184Y152349D01*
X195086Y152579D01*
X195009Y152797D01*
X194987Y152885D01*
X194965Y152972D01*
X194954Y153038D01*
X194943Y153082D01*
X194932Y153114D01*
Y153125D01*
X195851Y153246D01*
X195894Y153005D01*
X195960Y152787D01*
X196047Y152612D01*
X196124Y152470D01*
X196200Y152349D01*
X196266Y152273D01*
X196299Y152218D01*
X196321Y152207D01*
X196463Y152098D01*
X196616Y152022D01*
X196769Y151956D01*
X196911Y151923D01*
X197031Y151901D01*
X197140Y151890D01*
X197206Y151879D01*
X197228D01*
X197348Y151890D01*
X197468Y151901D01*
X197687Y151956D01*
X197873Y152032D01*
X198037Y152131D01*
X198157Y152218D01*
X198255Y152295D01*
X198310Y152349D01*
X198332Y152371D01*
X198408Y152470D01*
X198474Y152590D01*
X198572Y152830D01*
X198649Y153104D01*
X198692Y153366D01*
X198725Y153606D01*
X198736Y153705D01*
Y153803D01*
X198747Y153869D01*
Y153934D01*
Y153967D01*
Y153978D01*
Y154175D01*
X198725Y154360D01*
X198703Y154535D01*
X198681Y154688D01*
X198649Y154831D01*
X198605Y154962D01*
X198572Y155082D01*
X198529Y155191D01*
X198485Y155279D01*
X198452Y155355D01*
X198408Y155421D01*
X198375Y155475D01*
X198354Y155519D01*
X198332Y155552D01*
X198310Y155563D01*
Y155574D01*
X198222Y155661D01*
X198135Y155738D01*
X197949Y155869D01*
X197752Y155956D01*
X197578Y156011D01*
X197414Y156055D01*
X197293Y156066D01*
X197239Y156077D01*
X197173D01*
X197009Y156066D01*
X196856Y156033D01*
X196725Y155989D01*
X196605Y155934D01*
X196517Y155880D01*
X196441Y155836D01*
X196397Y155803D01*
X196386Y155792D01*
X196277Y155683D01*
X196178Y155552D01*
X196091Y155410D01*
X196036Y155279D01*
X195982Y155158D01*
X195949Y155060D01*
X195938Y154994D01*
X195927Y154983D01*
Y154973D01*
X195020Y155115D01*
X195097Y155410D01*
X195206Y155661D01*
X195326Y155880D01*
X195446Y156055D01*
X195566Y156197D01*
X195665Y156295D01*
X195730Y156361D01*
X195741Y156383D01*
X195752D01*
X195982Y156536D01*
X196222Y156645D01*
X196463Y156732D01*
X196692Y156787D01*
X196900Y156820D01*
X196987Y156831D01*
X197053D01*
X197118Y156842D01*
X197206D01*
X197468Y156831D01*
D02*
G37*
G36*
X192178D02*
X192419Y156787D01*
X192648Y156732D01*
X192834Y156678D01*
X192998Y156612D01*
X193063Y156579D01*
X193118Y156557D01*
X193162Y156536D01*
X193195Y156514D01*
X193217Y156503D01*
X193227D01*
X193435Y156372D01*
X193621Y156208D01*
X193774Y156044D01*
X193905Y155880D01*
X194003Y155738D01*
X194069Y155617D01*
X194091Y155574D01*
X194113Y155541D01*
X194124Y155519D01*
Y155508D01*
X194222Y155246D01*
X194288Y154983D01*
X194342Y154721D01*
X194375Y154481D01*
X194386Y154372D01*
X194397Y154273D01*
Y154186D01*
X194408Y154109D01*
Y154044D01*
Y154000D01*
Y153967D01*
Y153956D01*
X194397Y153705D01*
X194375Y153475D01*
X194342Y153246D01*
X194299Y153049D01*
X194255Y152852D01*
X194189Y152688D01*
X194135Y152524D01*
X194069Y152382D01*
X194003Y152262D01*
X193949Y152153D01*
X193883Y152054D01*
X193840Y151978D01*
X193796Y151923D01*
X193763Y151879D01*
X193741Y151857D01*
X193730Y151847D01*
X193599Y151716D01*
X193457Y151606D01*
X193315Y151508D01*
X193162Y151420D01*
X193009Y151355D01*
X192867Y151289D01*
X192572Y151202D01*
X192440Y151180D01*
X192320Y151158D01*
X192211Y151136D01*
X192113Y151125D01*
X192036Y151114D01*
X191927D01*
X191763Y151125D01*
X191599Y151136D01*
X191315Y151202D01*
X191052Y151278D01*
X190834Y151377D01*
X190746Y151431D01*
X190659Y151475D01*
X190582Y151519D01*
X190528Y151562D01*
X190484Y151595D01*
X190451Y151617D01*
X190429Y151628D01*
X190418Y151639D01*
X190309Y151748D01*
X190211Y151857D01*
X190036Y152098D01*
X189894Y152349D01*
X189795Y152579D01*
X189719Y152797D01*
X189697Y152885D01*
X189675Y152972D01*
X189664Y153038D01*
X189653Y153082D01*
X189642Y153114D01*
Y153125D01*
X190560Y153246D01*
X190604Y153005D01*
X190670Y152787D01*
X190757Y152612D01*
X190834Y152470D01*
X190910Y152349D01*
X190976Y152273D01*
X191009Y152218D01*
X191031Y152207D01*
X191173Y152098D01*
X191326Y152022D01*
X191479Y151956D01*
X191621Y151923D01*
X191741Y151901D01*
X191850Y151890D01*
X191916Y151879D01*
X191938D01*
X192058Y151890D01*
X192178Y151901D01*
X192397Y151956D01*
X192583Y152032D01*
X192746Y152131D01*
X192867Y152218D01*
X192965Y152295D01*
X193020Y152349D01*
X193042Y152371D01*
X193118Y152470D01*
X193184Y152590D01*
X193282Y152830D01*
X193359Y153104D01*
X193402Y153366D01*
X193435Y153606D01*
X193446Y153705D01*
Y153803D01*
X193457Y153869D01*
Y153934D01*
Y153967D01*
Y153978D01*
Y154175D01*
X193435Y154360D01*
X193413Y154535D01*
X193391Y154688D01*
X193359Y154831D01*
X193315Y154962D01*
X193282Y155082D01*
X193238Y155191D01*
X193195Y155279D01*
X193162Y155355D01*
X193118Y155421D01*
X193085Y155475D01*
X193063Y155519D01*
X193042Y155552D01*
X193020Y155563D01*
Y155574D01*
X192932Y155661D01*
X192845Y155738D01*
X192659Y155869D01*
X192462Y155956D01*
X192287Y156011D01*
X192123Y156055D01*
X192003Y156066D01*
X191949Y156077D01*
X191883D01*
X191719Y156066D01*
X191566Y156033D01*
X191435Y155989D01*
X191315Y155934D01*
X191227Y155880D01*
X191151Y155836D01*
X191107Y155803D01*
X191096Y155792D01*
X190987Y155683D01*
X190888Y155552D01*
X190801Y155410D01*
X190746Y155279D01*
X190692Y155158D01*
X190659Y155060D01*
X190648Y154994D01*
X190637Y154983D01*
Y154973D01*
X189730Y155115D01*
X189806Y155410D01*
X189916Y155661D01*
X190036Y155880D01*
X190156Y156055D01*
X190276Y156197D01*
X190375Y156295D01*
X190440Y156361D01*
X190451Y156383D01*
X190462D01*
X190692Y156536D01*
X190932Y156645D01*
X191173Y156732D01*
X191402Y156787D01*
X191610Y156820D01*
X191697Y156831D01*
X191763D01*
X191828Y156842D01*
X191916D01*
X192178Y156831D01*
D02*
G37*
G36*
X110400D02*
X110597Y156809D01*
X110782Y156776D01*
X110957Y156721D01*
X111121Y156667D01*
X111274Y156601D01*
X111416Y156536D01*
X111537Y156459D01*
X111657Y156394D01*
X111755Y156317D01*
X111843Y156251D01*
X111908Y156197D01*
X111963Y156142D01*
X112007Y156109D01*
X112029Y156088D01*
X112039Y156077D01*
X112160Y155923D01*
X112269Y155760D01*
X112367Y155596D01*
X112455Y155421D01*
X112520Y155235D01*
X112575Y155060D01*
X112662Y154710D01*
X112695Y154557D01*
X112717Y154404D01*
X112728Y154273D01*
X112739Y154153D01*
X112750Y154054D01*
Y153989D01*
Y153934D01*
Y153923D01*
X112739Y153683D01*
X112717Y153453D01*
X112684Y153235D01*
X112641Y153038D01*
X112586Y152852D01*
X112531Y152677D01*
X112466Y152524D01*
X112400Y152382D01*
X112335Y152262D01*
X112269Y152153D01*
X112214Y152065D01*
X112160Y151989D01*
X112116Y151923D01*
X112083Y151879D01*
X112061Y151857D01*
X112050Y151847D01*
X111908Y151716D01*
X111766Y151606D01*
X111613Y151508D01*
X111449Y151420D01*
X111296Y151355D01*
X111132Y151289D01*
X110826Y151202D01*
X110684Y151180D01*
X110553Y151158D01*
X110433Y151136D01*
X110334Y151125D01*
X110258Y151114D01*
X110138D01*
X109799Y151136D01*
X109493Y151191D01*
X109220Y151256D01*
X109110Y151300D01*
X109001Y151344D01*
X108903Y151388D01*
X108815Y151431D01*
X108749Y151464D01*
X108684Y151497D01*
X108640Y151530D01*
X108607Y151551D01*
X108586Y151573D01*
X108575D01*
X108356Y151770D01*
X108181Y151978D01*
X108028Y152196D01*
X107919Y152404D01*
X107831Y152590D01*
X107799Y152677D01*
X107766Y152743D01*
X107744Y152808D01*
X107733Y152852D01*
X107722Y152874D01*
Y152885D01*
X108684Y153005D01*
X108771Y152797D01*
X108870Y152623D01*
X108968Y152470D01*
X109055Y152349D01*
X109132Y152262D01*
X109198Y152196D01*
X109252Y152153D01*
X109263Y152142D01*
X109405Y152054D01*
X109547Y151989D01*
X109700Y151945D01*
X109832Y151912D01*
X109952Y151890D01*
X110050Y151879D01*
X110138D01*
X110269Y151890D01*
X110389Y151901D01*
X110608Y151956D01*
X110804Y152032D01*
X110979Y152120D01*
X111110Y152196D01*
X111209Y152273D01*
X111274Y152328D01*
X111285Y152349D01*
X111296D01*
X111449Y152546D01*
X111569Y152765D01*
X111657Y153005D01*
X111722Y153224D01*
X111755Y153420D01*
X111777Y153508D01*
X111788Y153585D01*
Y153650D01*
X111799Y153694D01*
Y153727D01*
Y153737D01*
X107700D01*
X107689Y153847D01*
Y153923D01*
Y153967D01*
Y153978D01*
X107700Y154229D01*
X107722Y154459D01*
X107755Y154677D01*
X107799Y154885D01*
X107853Y155071D01*
X107908Y155246D01*
X107973Y155399D01*
X108039Y155541D01*
X108105Y155672D01*
X108170Y155781D01*
X108225Y155869D01*
X108280Y155945D01*
X108323Y156011D01*
X108356Y156055D01*
X108378Y156077D01*
X108389Y156088D01*
X108520Y156219D01*
X108662Y156339D01*
X108815Y156437D01*
X108968Y156525D01*
X109121Y156601D01*
X109263Y156656D01*
X109416Y156711D01*
X109547Y156743D01*
X109689Y156776D01*
X109810Y156798D01*
X109919Y156820D01*
X110006Y156831D01*
X110083Y156842D01*
X110192D01*
X110400Y156831D01*
D02*
G37*
G36*
X95710D02*
X95907Y156809D01*
X96092Y156776D01*
X96267Y156721D01*
X96431Y156667D01*
X96584Y156601D01*
X96727Y156536D01*
X96847Y156459D01*
X96967Y156394D01*
X97065Y156317D01*
X97153Y156251D01*
X97218Y156197D01*
X97273Y156142D01*
X97317Y156109D01*
X97338Y156088D01*
X97350Y156077D01*
X97470Y155923D01*
X97579Y155760D01*
X97677Y155596D01*
X97765Y155421D01*
X97830Y155235D01*
X97885Y155060D01*
X97973Y154710D01*
X98005Y154557D01*
X98027Y154404D01*
X98038Y154273D01*
X98049Y154153D01*
X98060Y154054D01*
Y153989D01*
Y153934D01*
Y153923D01*
X98049Y153683D01*
X98027Y153453D01*
X97994Y153235D01*
X97951Y153038D01*
X97896Y152852D01*
X97841Y152677D01*
X97776Y152524D01*
X97710Y152382D01*
X97645Y152262D01*
X97579Y152153D01*
X97524Y152065D01*
X97470Y151989D01*
X97426Y151923D01*
X97393Y151879D01*
X97371Y151857D01*
X97360Y151847D01*
X97218Y151716D01*
X97076Y151606D01*
X96923Y151508D01*
X96759Y151420D01*
X96606Y151355D01*
X96442Y151289D01*
X96136Y151202D01*
X95994Y151180D01*
X95863Y151158D01*
X95743Y151136D01*
X95644Y151125D01*
X95568Y151114D01*
X95448D01*
X95109Y151136D01*
X94803Y151191D01*
X94529Y151256D01*
X94420Y151300D01*
X94311Y151344D01*
X94213Y151388D01*
X94125Y151431D01*
X94059Y151464D01*
X93994Y151497D01*
X93950Y151530D01*
X93917Y151551D01*
X93896Y151573D01*
X93885D01*
X93666Y151770D01*
X93491Y151978D01*
X93338Y152196D01*
X93229Y152404D01*
X93141Y152590D01*
X93109Y152677D01*
X93076Y152743D01*
X93054Y152808D01*
X93043Y152852D01*
X93032Y152874D01*
Y152885D01*
X93994Y153005D01*
X94081Y152797D01*
X94180Y152623D01*
X94278Y152470D01*
X94366Y152349D01*
X94442Y152262D01*
X94508Y152196D01*
X94562Y152153D01*
X94573Y152142D01*
X94715Y152054D01*
X94857Y151989D01*
X95011Y151945D01*
X95142Y151912D01*
X95262Y151890D01*
X95360Y151879D01*
X95448D01*
X95579Y151890D01*
X95699Y151901D01*
X95918Y151956D01*
X96114Y152032D01*
X96289Y152120D01*
X96420Y152196D01*
X96519Y152273D01*
X96584Y152328D01*
X96595Y152349D01*
X96606D01*
X96759Y152546D01*
X96880Y152765D01*
X96967Y153005D01*
X97032Y153224D01*
X97065Y153420D01*
X97087Y153508D01*
X97098Y153585D01*
Y153650D01*
X97109Y153694D01*
Y153727D01*
Y153737D01*
X93010D01*
X92999Y153847D01*
Y153923D01*
Y153967D01*
Y153978D01*
X93010Y154229D01*
X93032Y154459D01*
X93065Y154677D01*
X93109Y154885D01*
X93163Y155071D01*
X93218Y155246D01*
X93283Y155399D01*
X93349Y155541D01*
X93415Y155672D01*
X93480Y155781D01*
X93535Y155869D01*
X93590Y155945D01*
X93633Y156011D01*
X93666Y156055D01*
X93688Y156077D01*
X93699Y156088D01*
X93830Y156219D01*
X93972Y156339D01*
X94125Y156437D01*
X94278Y156525D01*
X94431Y156601D01*
X94573Y156656D01*
X94726Y156711D01*
X94857Y156743D01*
X94999Y156776D01*
X95120Y156798D01*
X95229Y156820D01*
X95316Y156831D01*
X95393Y156842D01*
X95502D01*
X95710Y156831D01*
D02*
G37*
G36*
X57499D02*
X57695Y156809D01*
X57881Y156776D01*
X58056Y156721D01*
X58220Y156667D01*
X58373Y156601D01*
X58515Y156536D01*
X58635Y156459D01*
X58756Y156394D01*
X58854Y156317D01*
X58941Y156251D01*
X59007Y156197D01*
X59062Y156142D01*
X59105Y156109D01*
X59127Y156088D01*
X59138Y156077D01*
X59258Y155923D01*
X59368Y155760D01*
X59466Y155596D01*
X59553Y155421D01*
X59619Y155235D01*
X59674Y155060D01*
X59761Y154710D01*
X59794Y154557D01*
X59816Y154404D01*
X59827Y154273D01*
X59838Y154153D01*
X59849Y154054D01*
Y153989D01*
Y153934D01*
Y153923D01*
X59838Y153683D01*
X59816Y153453D01*
X59783Y153235D01*
X59739Y153038D01*
X59685Y152852D01*
X59630Y152677D01*
X59565Y152524D01*
X59499Y152382D01*
X59433Y152262D01*
X59368Y152153D01*
X59313Y152065D01*
X59258Y151989D01*
X59215Y151923D01*
X59182Y151879D01*
X59160Y151857D01*
X59149Y151847D01*
X59007Y151716D01*
X58865Y151606D01*
X58712Y151508D01*
X58548Y151420D01*
X58395Y151355D01*
X58231Y151289D01*
X57925Y151202D01*
X57783Y151180D01*
X57652Y151158D01*
X57531Y151136D01*
X57433Y151125D01*
X57357Y151114D01*
X57236D01*
X56897Y151136D01*
X56591Y151191D01*
X56318Y151256D01*
X56209Y151300D01*
X56100Y151344D01*
X56001Y151388D01*
X55914Y151431D01*
X55848Y151464D01*
X55783Y151497D01*
X55739Y151530D01*
X55706Y151551D01*
X55684Y151573D01*
X55673D01*
X55455Y151770D01*
X55280Y151978D01*
X55127Y152196D01*
X55018Y152404D01*
X54930Y152590D01*
X54897Y152677D01*
X54865Y152743D01*
X54843Y152808D01*
X54832Y152852D01*
X54821Y152874D01*
Y152885D01*
X55783Y153005D01*
X55870Y152797D01*
X55968Y152623D01*
X56067Y152470D01*
X56154Y152349D01*
X56231Y152262D01*
X56296Y152196D01*
X56351Y152153D01*
X56362Y152142D01*
X56504Y152054D01*
X56646Y151989D01*
X56799Y151945D01*
X56930Y151912D01*
X57051Y151890D01*
X57149Y151879D01*
X57236D01*
X57367Y151890D01*
X57488Y151901D01*
X57706Y151956D01*
X57903Y152032D01*
X58078Y152120D01*
X58209Y152196D01*
X58307Y152273D01*
X58373Y152328D01*
X58384Y152349D01*
X58395D01*
X58548Y152546D01*
X58668Y152765D01*
X58756Y153005D01*
X58821Y153224D01*
X58854Y153420D01*
X58876Y153508D01*
X58887Y153585D01*
Y153650D01*
X58898Y153694D01*
Y153727D01*
Y153737D01*
X54799D01*
X54788Y153847D01*
Y153923D01*
Y153967D01*
Y153978D01*
X54799Y154229D01*
X54821Y154459D01*
X54854Y154677D01*
X54897Y154885D01*
X54952Y155071D01*
X55007Y155246D01*
X55072Y155399D01*
X55138Y155541D01*
X55203Y155672D01*
X55269Y155781D01*
X55324Y155869D01*
X55378Y155945D01*
X55422Y156011D01*
X55455Y156055D01*
X55477Y156077D01*
X55488Y156088D01*
X55619Y156219D01*
X55761Y156339D01*
X55914Y156437D01*
X56067Y156525D01*
X56220Y156601D01*
X56362Y156656D01*
X56515Y156711D01*
X56646Y156743D01*
X56788Y156776D01*
X56909Y156798D01*
X57018Y156820D01*
X57105Y156831D01*
X57182Y156842D01*
X57291D01*
X57499Y156831D01*
D02*
G37*
G36*
X207185Y151234D02*
X206125D01*
X205305Y153530D01*
X202135D01*
X201250Y151234D01*
X200113D01*
X203206Y158798D01*
X204299D01*
X207185Y151234D01*
D02*
G37*
G36*
X168296D02*
X167367D01*
Y158798D01*
X168296D01*
Y151234D01*
D02*
G37*
G36*
X149332Y156831D02*
X149442Y156809D01*
X149551Y156776D01*
X149639Y156743D01*
X149704Y156711D01*
X149770Y156678D01*
X149802Y156656D01*
X149813Y156645D01*
X149912Y156557D01*
X150010Y156448D01*
X150109Y156317D01*
X150196Y156197D01*
X150284Y156077D01*
X150338Y155978D01*
X150382Y155902D01*
X150393Y155891D01*
Y156721D01*
X151234D01*
Y151234D01*
X150305D01*
Y154098D01*
X150294Y154317D01*
X150284Y154514D01*
X150262Y154699D01*
X150229Y154863D01*
X150196Y154994D01*
X150174Y155093D01*
X150163Y155158D01*
X150152Y155180D01*
X150109Y155300D01*
X150054Y155399D01*
X149999Y155486D01*
X149945Y155563D01*
X149890Y155617D01*
X149857Y155661D01*
X149824Y155683D01*
X149813Y155694D01*
X149726Y155760D01*
X149628Y155803D01*
X149529Y155836D01*
X149453Y155858D01*
X149376Y155869D01*
X149322Y155880D01*
X149267D01*
X149147Y155869D01*
X149027Y155847D01*
X148906Y155814D01*
X148808Y155781D01*
X148721Y155749D01*
X148655Y155716D01*
X148611Y155694D01*
X148600Y155683D01*
X148261Y156536D01*
X148447Y156634D01*
X148622Y156711D01*
X148775Y156765D01*
X148917Y156809D01*
X149037Y156831D01*
X149136Y156842D01*
X149212D01*
X149332Y156831D01*
D02*
G37*
G36*
X127713D02*
X127910Y156798D01*
X128085Y156754D01*
X128260Y156700D01*
X128412Y156634D01*
X128555Y156557D01*
X128686Y156470D01*
X128795Y156394D01*
X128904Y156306D01*
X128992Y156219D01*
X129068Y156142D01*
X129134Y156077D01*
X129178Y156022D01*
X129210Y155978D01*
X129232Y155945D01*
X129243Y155934D01*
Y156721D01*
X130074D01*
Y151234D01*
X129145D01*
Y154218D01*
Y154404D01*
X129123Y154590D01*
X129101Y154743D01*
X129079Y154885D01*
X129046Y155016D01*
X129014Y155137D01*
X128970Y155246D01*
X128926Y155333D01*
X128893Y155410D01*
X128850Y155475D01*
X128817Y155530D01*
X128784Y155574D01*
X128740Y155628D01*
X128719Y155650D01*
X128555Y155781D01*
X128380Y155869D01*
X128205Y155934D01*
X128052Y155989D01*
X127910Y156011D01*
X127801Y156022D01*
X127757Y156033D01*
X127702D01*
X127571Y156022D01*
X127440Y156011D01*
X127331Y155978D01*
X127243Y155945D01*
X127166Y155913D01*
X127101Y155891D01*
X127068Y155869D01*
X127057Y155858D01*
X126959Y155792D01*
X126871Y155716D01*
X126806Y155639D01*
X126751Y155574D01*
X126718Y155508D01*
X126686Y155454D01*
X126664Y155421D01*
Y155410D01*
X126631Y155290D01*
X126598Y155158D01*
X126576Y155016D01*
X126565Y154874D01*
X126554Y154754D01*
Y154656D01*
Y154579D01*
Y154568D01*
Y154557D01*
Y151234D01*
X125625D01*
Y154601D01*
Y154831D01*
X125636Y155016D01*
X125647Y155169D01*
Y155300D01*
X125658Y155388D01*
X125669Y155454D01*
X125680Y155497D01*
Y155508D01*
X125713Y155650D01*
X125768Y155781D01*
X125811Y155891D01*
X125855Y156000D01*
X125910Y156077D01*
X125942Y156131D01*
X125964Y156175D01*
X125975Y156186D01*
X126063Y156295D01*
X126161Y156383D01*
X126259Y156470D01*
X126369Y156536D01*
X126456Y156590D01*
X126533Y156623D01*
X126576Y156645D01*
X126598Y156656D01*
X126751Y156721D01*
X126915Y156765D01*
X127068Y156798D01*
X127210Y156820D01*
X127331Y156831D01*
X127418Y156842D01*
X127505D01*
X127713Y156831D01*
D02*
G37*
G36*
X89502D02*
X89698Y156798D01*
X89873Y156754D01*
X90048Y156700D01*
X90201Y156634D01*
X90343Y156557D01*
X90474Y156470D01*
X90584Y156394D01*
X90693Y156306D01*
X90781Y156219D01*
X90857Y156142D01*
X90923Y156077D01*
X90966Y156022D01*
X90999Y155978D01*
X91021Y155945D01*
X91032Y155934D01*
Y156721D01*
X91863D01*
Y151234D01*
X90934D01*
Y154218D01*
Y154404D01*
X90912Y154590D01*
X90890Y154743D01*
X90868Y154885D01*
X90835Y155016D01*
X90802Y155137D01*
X90759Y155246D01*
X90715Y155333D01*
X90682Y155410D01*
X90639Y155475D01*
X90606Y155530D01*
X90573Y155574D01*
X90529Y155628D01*
X90507Y155650D01*
X90343Y155781D01*
X90168Y155869D01*
X89994Y155934D01*
X89841Y155989D01*
X89698Y156011D01*
X89589Y156022D01*
X89546Y156033D01*
X89491D01*
X89360Y156022D01*
X89228Y156011D01*
X89119Y155978D01*
X89032Y155945D01*
X88955Y155913D01*
X88890Y155891D01*
X88857Y155869D01*
X88846Y155858D01*
X88748Y155792D01*
X88660Y155716D01*
X88595Y155639D01*
X88540Y155574D01*
X88507Y155508D01*
X88474Y155454D01*
X88452Y155421D01*
Y155410D01*
X88420Y155290D01*
X88387Y155158D01*
X88365Y155016D01*
X88354Y154874D01*
X88343Y154754D01*
Y154656D01*
Y154579D01*
Y154568D01*
Y154557D01*
Y151234D01*
X87414D01*
Y154601D01*
Y154831D01*
X87425Y155016D01*
X87436Y155169D01*
Y155300D01*
X87447Y155388D01*
X87458Y155454D01*
X87469Y155497D01*
Y155508D01*
X87502Y155650D01*
X87556Y155781D01*
X87600Y155891D01*
X87644Y156000D01*
X87698Y156077D01*
X87731Y156131D01*
X87753Y156175D01*
X87764Y156186D01*
X87851Y156295D01*
X87950Y156383D01*
X88048Y156470D01*
X88157Y156536D01*
X88245Y156590D01*
X88321Y156623D01*
X88365Y156645D01*
X88387Y156656D01*
X88540Y156721D01*
X88704Y156765D01*
X88857Y156798D01*
X88999Y156820D01*
X89119Y156831D01*
X89207Y156842D01*
X89294D01*
X89502Y156831D01*
D02*
G37*
G36*
X155071D02*
X155246Y156820D01*
X155585Y156743D01*
X155880Y156645D01*
X156011Y156590D01*
X156131Y156536D01*
X156240Y156481D01*
X156328Y156426D01*
X156415Y156372D01*
X156481Y156328D01*
X156535Y156284D01*
X156579Y156251D01*
X156601Y156240D01*
X156612Y156229D01*
X156765Y156088D01*
X156885Y155923D01*
X157005Y155749D01*
X157093Y155574D01*
X157180Y155388D01*
X157246Y155191D01*
X157300Y155005D01*
X157344Y154831D01*
X157388Y154656D01*
X157410Y154503D01*
X157432Y154350D01*
X157443Y154229D01*
Y154120D01*
X157454Y154044D01*
Y154000D01*
Y153978D01*
X157443Y153727D01*
X157421Y153486D01*
X157388Y153268D01*
X157344Y153060D01*
X157290Y152874D01*
X157235Y152699D01*
X157169Y152535D01*
X157104Y152393D01*
X157038Y152262D01*
X156973Y152153D01*
X156918Y152065D01*
X156863Y151989D01*
X156820Y151923D01*
X156787Y151879D01*
X156765Y151857D01*
X156754Y151847D01*
X156612Y151716D01*
X156470Y151606D01*
X156317Y151508D01*
X156164Y151420D01*
X156011Y151355D01*
X155847Y151289D01*
X155552Y151202D01*
X155421Y151180D01*
X155289Y151158D01*
X155180Y151136D01*
X155082Y151125D01*
X154994Y151114D01*
X154885D01*
X154623Y151125D01*
X154382Y151169D01*
X154153Y151224D01*
X153967Y151278D01*
X153803Y151344D01*
X153737Y151366D01*
X153683Y151388D01*
X153628Y151409D01*
X153595Y151431D01*
X153584Y151442D01*
X153573D01*
X153355Y151584D01*
X153169Y151737D01*
X153005Y151890D01*
X152874Y152043D01*
X152776Y152174D01*
X152699Y152284D01*
X152677Y152328D01*
X152655Y152360D01*
X152644Y152371D01*
Y152382D01*
X152535Y152634D01*
X152459Y152907D01*
X152393Y153180D01*
X152360Y153453D01*
X152338Y153574D01*
Y153683D01*
X152327Y153792D01*
X152316Y153880D01*
Y153956D01*
Y154011D01*
Y154044D01*
Y154054D01*
X152327Y154295D01*
X152349Y154514D01*
X152382Y154721D01*
X152426Y154918D01*
X152480Y155104D01*
X152546Y155268D01*
X152612Y155432D01*
X152677Y155563D01*
X152743Y155683D01*
X152808Y155792D01*
X152874Y155891D01*
X152928Y155967D01*
X152972Y156022D01*
X153005Y156066D01*
X153027Y156088D01*
X153038Y156098D01*
X153180Y156229D01*
X153322Y156339D01*
X153475Y156448D01*
X153628Y156525D01*
X153781Y156601D01*
X153934Y156656D01*
X154229Y156754D01*
X154371Y156776D01*
X154491Y156798D01*
X154601Y156820D01*
X154699Y156831D01*
X154776Y156842D01*
X154885D01*
X155071Y156831D01*
D02*
G37*
G36*
X66276Y156820D02*
X66407Y156809D01*
X66527Y156787D01*
X66625Y156765D01*
X66702Y156743D01*
X66746Y156732D01*
X66767Y156721D01*
X66899Y156678D01*
X67019Y156634D01*
X67117Y156590D01*
X67204Y156546D01*
X67270Y156514D01*
X67314Y156481D01*
X67347Y156470D01*
X67358Y156459D01*
X67467Y156383D01*
X67554Y156295D01*
X67631Y156197D01*
X67696Y156120D01*
X67751Y156044D01*
X67784Y155989D01*
X67806Y155945D01*
X67817Y155934D01*
X67871Y155814D01*
X67915Y155705D01*
X67937Y155585D01*
X67959Y155486D01*
X67970Y155388D01*
X67981Y155322D01*
Y155279D01*
Y155257D01*
X67970Y155104D01*
X67948Y154973D01*
X67915Y154841D01*
X67882Y154732D01*
X67849Y154645D01*
X67817Y154568D01*
X67795Y154525D01*
X67784Y154514D01*
X67696Y154393D01*
X67598Y154295D01*
X67500Y154208D01*
X67401Y154131D01*
X67314Y154076D01*
X67248Y154033D01*
X67204Y154011D01*
X67183Y154000D01*
X67106Y153967D01*
X67008Y153923D01*
X66789Y153847D01*
X66560Y153781D01*
X66319Y153705D01*
X66111Y153650D01*
X66013Y153617D01*
X65926Y153595D01*
X65860Y153574D01*
X65806Y153563D01*
X65773Y153552D01*
X65762D01*
X65620Y153519D01*
X65500Y153486D01*
X65390Y153453D01*
X65292Y153420D01*
X65204Y153399D01*
X65128Y153366D01*
X64997Y153322D01*
X64909Y153289D01*
X64855Y153257D01*
X64822Y153246D01*
X64811Y153235D01*
X64713Y153169D01*
X64647Y153082D01*
X64592Y153005D01*
X64560Y152929D01*
X64538Y152852D01*
X64527Y152797D01*
Y152754D01*
Y152743D01*
X64538Y152612D01*
X64570Y152502D01*
X64625Y152393D01*
X64680Y152306D01*
X64745Y152229D01*
X64789Y152174D01*
X64833Y152142D01*
X64844Y152131D01*
X64975Y152043D01*
X65117Y151989D01*
X65281Y151945D01*
X65434Y151912D01*
X65576Y151890D01*
X65685Y151879D01*
X65795D01*
X66024Y151890D01*
X66221Y151923D01*
X66385Y151967D01*
X66527Y152022D01*
X66636Y152076D01*
X66724Y152120D01*
X66767Y152153D01*
X66789Y152164D01*
X66909Y152284D01*
X67008Y152426D01*
X67073Y152568D01*
X67128Y152699D01*
X67172Y152819D01*
X67194Y152929D01*
X67216Y152994D01*
Y153005D01*
Y153016D01*
X68134Y152874D01*
X68057Y152568D01*
X67959Y152295D01*
X67839Y152076D01*
X67718Y151890D01*
X67609Y151737D01*
X67511Y151639D01*
X67445Y151573D01*
X67434Y151562D01*
X67423Y151551D01*
X67314Y151475D01*
X67194Y151409D01*
X66931Y151300D01*
X66658Y151224D01*
X66396Y151169D01*
X66276Y151147D01*
X66166Y151136D01*
X66057Y151125D01*
X65969D01*
X65893Y151114D01*
X65795D01*
X65554Y151125D01*
X65346Y151147D01*
X65150Y151180D01*
X64975Y151224D01*
X64833Y151267D01*
X64723Y151300D01*
X64658Y151322D01*
X64647Y151333D01*
X64636D01*
X64450Y151431D01*
X64297Y151530D01*
X64166Y151639D01*
X64046Y151737D01*
X63958Y151825D01*
X63904Y151901D01*
X63860Y151945D01*
X63849Y151967D01*
X63762Y152120D01*
X63696Y152284D01*
X63641Y152426D01*
X63609Y152557D01*
X63587Y152677D01*
X63576Y152765D01*
Y152819D01*
Y152841D01*
X63587Y153016D01*
X63609Y153169D01*
X63652Y153300D01*
X63685Y153420D01*
X63729Y153519D01*
X63772Y153585D01*
X63794Y153628D01*
X63805Y153639D01*
X63893Y153748D01*
X63991Y153847D01*
X64090Y153934D01*
X64188Y154000D01*
X64286Y154054D01*
X64352Y154087D01*
X64395Y154109D01*
X64417Y154120D01*
X64494Y154153D01*
X64581Y154186D01*
X64789Y154262D01*
X65018Y154339D01*
X65248Y154404D01*
X65456Y154470D01*
X65554Y154492D01*
X65631Y154514D01*
X65696Y154535D01*
X65751Y154546D01*
X65784Y154557D01*
X65795D01*
X65915Y154590D01*
X66024Y154623D01*
X66123Y154645D01*
X66210Y154677D01*
X66352Y154710D01*
X66461Y154743D01*
X66538Y154776D01*
X66581Y154787D01*
X66603Y154798D01*
X66614D01*
X66702Y154841D01*
X66778Y154874D01*
X66844Y154918D01*
X66888Y154951D01*
X66931Y154983D01*
X66953Y155016D01*
X66964Y155027D01*
X66975Y155038D01*
X67041Y155148D01*
X67073Y155257D01*
Y155300D01*
X67084Y155333D01*
Y155355D01*
Y155366D01*
X67073Y155464D01*
X67041Y155563D01*
X66997Y155650D01*
X66942Y155716D01*
X66899Y155781D01*
X66855Y155825D01*
X66822Y155847D01*
X66811Y155858D01*
X66691Y155934D01*
X66549Y155989D01*
X66396Y156022D01*
X66254Y156055D01*
X66111Y156066D01*
X66002Y156077D01*
X65893D01*
X65707Y156066D01*
X65532Y156044D01*
X65390Y156000D01*
X65281Y155956D01*
X65183Y155913D01*
X65117Y155869D01*
X65073Y155847D01*
X65062Y155836D01*
X64953Y155738D01*
X64876Y155628D01*
X64811Y155519D01*
X64756Y155421D01*
X64723Y155322D01*
X64702Y155246D01*
X64691Y155202D01*
Y155180D01*
X63783Y155300D01*
X63827Y155486D01*
X63871Y155650D01*
X63925Y155792D01*
X63980Y155923D01*
X64035Y156011D01*
X64078Y156088D01*
X64100Y156131D01*
X64111Y156142D01*
X64210Y156251D01*
X64319Y156350D01*
X64439Y156437D01*
X64560Y156514D01*
X64669Y156568D01*
X64756Y156612D01*
X64811Y156634D01*
X64822Y156645D01*
X64833D01*
X65018Y156711D01*
X65215Y156754D01*
X65401Y156798D01*
X65576Y156820D01*
X65740Y156831D01*
X65860Y156842D01*
X66123D01*
X66276Y156820D01*
D02*
G37*
G36*
X77665Y158918D02*
X77916Y158886D01*
X78156Y158842D01*
X78364Y158798D01*
X78528Y158754D01*
X78605Y158732D01*
X78659Y158711D01*
X78703Y158689D01*
X78736Y158678D01*
X78758Y158667D01*
X78768D01*
X78987Y158558D01*
X79184Y158437D01*
X79348Y158306D01*
X79479Y158186D01*
X79577Y158077D01*
X79654Y157989D01*
X79708Y157924D01*
X79719Y157913D01*
Y157902D01*
X79829Y157716D01*
X79905Y157530D01*
X79960Y157344D01*
X79993Y157181D01*
X80014Y157038D01*
X80036Y156929D01*
Y156885D01*
Y156853D01*
Y156842D01*
Y156831D01*
X80025Y156645D01*
X79993Y156470D01*
X79949Y156306D01*
X79905Y156164D01*
X79861Y156055D01*
X79818Y155967D01*
X79785Y155913D01*
X79774Y155891D01*
X79665Y155738D01*
X79534Y155596D01*
X79402Y155475D01*
X79271Y155377D01*
X79162Y155290D01*
X79064Y155235D01*
X78998Y155191D01*
X78987Y155180D01*
X78976D01*
X78889Y155137D01*
X78790Y155093D01*
X78572Y155016D01*
X78320Y154940D01*
X78080Y154863D01*
X77861Y154798D01*
X77763Y154776D01*
X77675Y154754D01*
X77610Y154732D01*
X77555Y154721D01*
X77522Y154710D01*
X77512D01*
X77326Y154667D01*
X77151Y154623D01*
X76998Y154579D01*
X76867Y154546D01*
X76736Y154514D01*
X76626Y154481D01*
X76528Y154459D01*
X76451Y154426D01*
X76375Y154404D01*
X76320Y154393D01*
X76233Y154360D01*
X76178Y154350D01*
X76167Y154339D01*
X76003Y154273D01*
X75861Y154197D01*
X75741Y154120D01*
X75653Y154054D01*
X75577Y153989D01*
X75533Y153945D01*
X75500Y153912D01*
X75489Y153902D01*
X75413Y153803D01*
X75358Y153694D01*
X75326Y153585D01*
X75293Y153497D01*
X75282Y153410D01*
X75271Y153344D01*
Y153289D01*
Y153278D01*
X75282Y153147D01*
X75304Y153027D01*
X75336Y152918D01*
X75380Y152830D01*
X75424Y152743D01*
X75457Y152688D01*
X75479Y152645D01*
X75489Y152634D01*
X75577Y152524D01*
X75686Y152437D01*
X75796Y152360D01*
X75894Y152284D01*
X75992Y152240D01*
X76069Y152196D01*
X76123Y152174D01*
X76145Y152164D01*
X76309Y152109D01*
X76484Y152065D01*
X76659Y152043D01*
X76812Y152022D01*
X76943Y152011D01*
X77052Y152000D01*
X77151D01*
X77391Y152011D01*
X77610Y152032D01*
X77807Y152065D01*
X77982Y152109D01*
X78124Y152153D01*
X78233Y152185D01*
X78266Y152196D01*
X78298Y152207D01*
X78309Y152218D01*
X78320D01*
X78495Y152306D01*
X78659Y152404D01*
X78779Y152502D01*
X78889Y152601D01*
X78976Y152677D01*
X79031Y152754D01*
X79064Y152797D01*
X79075Y152808D01*
X79151Y152951D01*
X79228Y153104D01*
X79271Y153268D01*
X79315Y153410D01*
X79348Y153552D01*
X79370Y153650D01*
Y153694D01*
X79381Y153727D01*
Y153737D01*
Y153748D01*
X80321Y153661D01*
X80299Y153388D01*
X80255Y153125D01*
X80189Y152896D01*
X80113Y152688D01*
X80036Y152524D01*
X80004Y152459D01*
X79982Y152404D01*
X79949Y152360D01*
X79938Y152328D01*
X79916Y152306D01*
Y152295D01*
X79752Y152087D01*
X79577Y151901D01*
X79391Y151748D01*
X79217Y151617D01*
X79064Y151519D01*
X78932Y151453D01*
X78889Y151431D01*
X78856Y151409D01*
X78834Y151399D01*
X78823D01*
X78550Y151300D01*
X78266Y151224D01*
X77982Y151180D01*
X77708Y151136D01*
X77577Y151125D01*
X77468Y151114D01*
X77369D01*
X77282Y151103D01*
X77107D01*
X76812Y151114D01*
X76539Y151147D01*
X76287Y151202D01*
X76080Y151256D01*
X75905Y151300D01*
X75828Y151333D01*
X75763Y151355D01*
X75719Y151377D01*
X75686Y151388D01*
X75664Y151399D01*
X75653D01*
X75424Y151519D01*
X75227Y151650D01*
X75052Y151792D01*
X74910Y151923D01*
X74801Y152032D01*
X74724Y152131D01*
X74670Y152196D01*
X74659Y152207D01*
Y152218D01*
X74539Y152426D01*
X74451Y152623D01*
X74397Y152808D01*
X74353Y152983D01*
X74331Y153136D01*
X74309Y153257D01*
Y153300D01*
Y153333D01*
Y153344D01*
Y153355D01*
X74320Y153574D01*
X74353Y153781D01*
X74407Y153967D01*
X74462Y154120D01*
X74528Y154251D01*
X74571Y154350D01*
X74615Y154404D01*
X74626Y154426D01*
X74757Y154590D01*
X74910Y154743D01*
X75074Y154874D01*
X75238Y154994D01*
X75380Y155082D01*
X75500Y155148D01*
X75544Y155169D01*
X75577Y155191D01*
X75599Y155202D01*
X75610D01*
X75697Y155246D01*
X75806Y155279D01*
X75927Y155322D01*
X76058Y155366D01*
X76331Y155443D01*
X76615Y155519D01*
X76746Y155552D01*
X76867Y155585D01*
X76987Y155617D01*
X77085Y155639D01*
X77162Y155661D01*
X77227Y155672D01*
X77271Y155683D01*
X77282D01*
X77501Y155738D01*
X77697Y155781D01*
X77872Y155836D01*
X78025Y155880D01*
X78167Y155934D01*
X78288Y155978D01*
X78397Y156022D01*
X78495Y156055D01*
X78572Y156098D01*
X78637Y156131D01*
X78681Y156153D01*
X78725Y156186D01*
X78779Y156219D01*
X78790Y156229D01*
X78889Y156339D01*
X78954Y156448D01*
X79009Y156557D01*
X79042Y156667D01*
X79064Y156754D01*
X79075Y156831D01*
Y156874D01*
Y156896D01*
X79053Y157071D01*
X79009Y157224D01*
X78943Y157355D01*
X78867Y157476D01*
X78801Y157563D01*
X78736Y157640D01*
X78692Y157683D01*
X78670Y157694D01*
X78583Y157749D01*
X78495Y157803D01*
X78288Y157891D01*
X78069Y157946D01*
X77850Y157989D01*
X77654Y158011D01*
X77566Y158022D01*
X77501Y158033D01*
X77348D01*
X77042Y158022D01*
X76768Y157978D01*
X76550Y157913D01*
X76364Y157847D01*
X76222Y157782D01*
X76113Y157716D01*
X76058Y157672D01*
X76036Y157661D01*
X75883Y157508D01*
X75763Y157344D01*
X75664Y157169D01*
X75599Y156995D01*
X75555Y156831D01*
X75522Y156711D01*
X75511Y156656D01*
X75500Y156623D01*
Y156601D01*
Y156590D01*
X74539Y156667D01*
X74560Y156907D01*
X74615Y157126D01*
X74670Y157334D01*
X74746Y157508D01*
X74812Y157650D01*
X74866Y157760D01*
X74888Y157792D01*
X74910Y157825D01*
X74921Y157836D01*
Y157847D01*
X75063Y158033D01*
X75216Y158197D01*
X75380Y158339D01*
X75544Y158448D01*
X75686Y158547D01*
X75796Y158601D01*
X75839Y158623D01*
X75872Y158645D01*
X75894Y158656D01*
X75905D01*
X76145Y158744D01*
X76408Y158809D01*
X76648Y158864D01*
X76878Y158897D01*
X77085Y158918D01*
X77162D01*
X77238Y158929D01*
X77380D01*
X77665Y158918D01*
D02*
G37*
%LPC*%
G36*
X197348Y148498D02*
X197283D01*
X197162Y148487D01*
X197042Y148476D01*
X196933Y148443D01*
X196834Y148399D01*
X196649Y148301D01*
X196485Y148192D01*
X196364Y148072D01*
X196266Y147973D01*
X196233Y147930D01*
X196211Y147897D01*
X196189Y147886D01*
Y147875D01*
X196113Y147744D01*
X196047Y147591D01*
X195982Y147416D01*
X195938Y147230D01*
X195894Y147033D01*
X195862Y146826D01*
X195807Y146410D01*
X195785Y146203D01*
X195774Y146017D01*
X195763Y145842D01*
Y145700D01*
X195752Y145569D01*
Y145470D01*
Y145416D01*
Y145405D01*
Y145394D01*
Y145055D01*
X195774Y144749D01*
X195796Y144476D01*
X195818Y144213D01*
X195851Y143995D01*
X195894Y143787D01*
X195938Y143612D01*
X195971Y143448D01*
X196015Y143317D01*
X196058Y143208D01*
X196091Y143109D01*
X196135Y143033D01*
X196157Y142978D01*
X196178Y142945D01*
X196200Y142923D01*
Y142913D01*
X196288Y142803D01*
X196375Y142716D01*
X196463Y142628D01*
X196550Y142563D01*
X196736Y142454D01*
X196900Y142377D01*
X197053Y142333D01*
X197162Y142312D01*
X197206Y142300D01*
X197272D01*
X197392Y142312D01*
X197501Y142322D01*
X197709Y142399D01*
X197895Y142497D01*
X198058Y142607D01*
X198179Y142716D01*
X198277Y142814D01*
X198332Y142891D01*
X198354Y142902D01*
Y142913D01*
X198430Y143044D01*
X198496Y143197D01*
X198561Y143372D01*
X198605Y143558D01*
X198649Y143754D01*
X198681Y143962D01*
X198736Y144388D01*
X198758Y144585D01*
X198769Y144771D01*
X198780Y144946D01*
Y145088D01*
X198791Y145219D01*
Y145317D01*
Y145372D01*
Y145394D01*
X198780Y145732D01*
X198769Y146039D01*
X198747Y146323D01*
X198714Y146585D01*
X198681Y146815D01*
X198638Y147022D01*
X198594Y147208D01*
X198550Y147372D01*
X198507Y147514D01*
X198474Y147634D01*
X198430Y147733D01*
X198397Y147820D01*
X198364Y147875D01*
X198343Y147919D01*
X198321Y147940D01*
Y147951D01*
X198244Y148050D01*
X198168Y148137D01*
X198080Y148203D01*
X197993Y148268D01*
X197818Y148367D01*
X197654Y148432D01*
X197512Y148465D01*
X197392Y148487D01*
X197348Y148498D01*
D02*
G37*
G36*
X116291Y156077D02*
X116116D01*
X116007Y156055D01*
X115799Y156000D01*
X115613Y155913D01*
X115461Y155825D01*
X115329Y155727D01*
X115231Y155639D01*
X115176Y155585D01*
X115154Y155574D01*
Y155563D01*
X115078Y155464D01*
X115001Y155355D01*
X114892Y155104D01*
X114816Y154852D01*
X114761Y154601D01*
X114728Y154382D01*
X114717Y154284D01*
Y154197D01*
X114706Y154131D01*
Y154076D01*
Y154044D01*
Y154033D01*
Y153847D01*
X114728Y153661D01*
X114750Y153497D01*
X114772Y153355D01*
X114805Y153213D01*
X114848Y153082D01*
X114881Y152972D01*
X114925Y152874D01*
X114969Y152776D01*
X115001Y152699D01*
X115045Y152634D01*
X115078Y152590D01*
X115100Y152546D01*
X115122Y152513D01*
X115144Y152502D01*
Y152491D01*
X115231Y152404D01*
X115318Y152328D01*
X115493Y152207D01*
X115679Y152120D01*
X115843Y152065D01*
X115996Y152022D01*
X116116Y152011D01*
X116160Y152000D01*
X116226D01*
X116346Y152011D01*
X116455Y152022D01*
X116663Y152076D01*
X116849Y152153D01*
X117002Y152251D01*
X117133Y152339D01*
X117220Y152415D01*
X117275Y152470D01*
X117297Y152491D01*
X117373Y152590D01*
X117439Y152699D01*
X117548Y152951D01*
X117614Y153202D01*
X117668Y153464D01*
X117701Y153694D01*
X117712Y153803D01*
Y153891D01*
X117723Y153967D01*
Y154022D01*
Y154054D01*
Y154065D01*
Y154251D01*
X117701Y154415D01*
X117679Y154568D01*
X117657Y154721D01*
X117625Y154852D01*
X117592Y154973D01*
X117548Y155093D01*
X117504Y155191D01*
X117472Y155279D01*
X117428Y155355D01*
X117395Y155421D01*
X117362Y155464D01*
X117340Y155508D01*
X117319Y155541D01*
X117297Y155552D01*
Y155563D01*
X117209Y155650D01*
X117122Y155738D01*
X116947Y155858D01*
X116772Y155956D01*
X116597Y156011D01*
X116455Y156055D01*
X116335Y156066D01*
X116291Y156077D01*
D02*
G37*
G36*
X162427Y153989D02*
X162416D01*
X162427Y153639D01*
X162438Y153420D01*
X162449Y153235D01*
X162470Y153082D01*
X162503Y152951D01*
X162536Y152852D01*
X162558Y152776D01*
X162569Y152732D01*
X162580Y152721D01*
X162667Y152579D01*
X162755Y152448D01*
X162864Y152339D01*
X162962Y152251D01*
X163050Y152174D01*
X163126Y152120D01*
X163170Y152087D01*
X163192Y152076D01*
X163356Y152000D01*
X163520Y151945D01*
X163673Y151901D01*
X163826Y151879D01*
X163946Y151857D01*
X164055Y151847D01*
X164143D01*
X164339Y151857D01*
X164503Y151879D01*
X164646Y151923D01*
X164766Y151967D01*
X164853Y152011D01*
X164919Y152054D01*
X164962Y152076D01*
X164973Y152087D01*
X165061Y152185D01*
X165126Y152295D01*
X165181Y152393D01*
X165214Y152491D01*
X165236Y152579D01*
X165247Y152645D01*
Y152699D01*
Y152710D01*
X165236Y152797D01*
X165225Y152885D01*
X165203Y152951D01*
X165181Y153016D01*
X165159Y153071D01*
X165148Y153114D01*
X165126Y153136D01*
Y153147D01*
X165017Y153278D01*
X164886Y153366D01*
X164842Y153399D01*
X164798Y153420D01*
X164766Y153442D01*
X164755D01*
X164646Y153486D01*
X164525Y153519D01*
X164394Y153552D01*
X164263Y153574D01*
X164143Y153595D01*
X164033Y153617D01*
X163968Y153628D01*
X163946D01*
X163760Y153661D01*
X163585Y153683D01*
X163432Y153716D01*
X163279Y153748D01*
X163137Y153781D01*
X163017Y153814D01*
X162897Y153836D01*
X162798Y153869D01*
X162711Y153891D01*
X162634Y153912D01*
X162569Y153934D01*
X162514Y153956D01*
X162470Y153967D01*
X162438Y153978D01*
X162427Y153989D01*
D02*
G37*
G36*
X132457D02*
X132446D01*
X132457Y153639D01*
X132468Y153420D01*
X132478Y153235D01*
X132500Y153082D01*
X132533Y152951D01*
X132566Y152852D01*
X132588Y152776D01*
X132599Y152732D01*
X132610Y152721D01*
X132697Y152579D01*
X132784Y152448D01*
X132894Y152339D01*
X132992Y152251D01*
X133080Y152174D01*
X133156Y152120D01*
X133200Y152087D01*
X133222Y152076D01*
X133386Y152000D01*
X133550Y151945D01*
X133703Y151901D01*
X133856Y151879D01*
X133976Y151857D01*
X134085Y151847D01*
X134173D01*
X134369Y151857D01*
X134533Y151879D01*
X134675Y151923D01*
X134796Y151967D01*
X134883Y152011D01*
X134949Y152054D01*
X134992Y152076D01*
X135003Y152087D01*
X135091Y152185D01*
X135156Y152295D01*
X135211Y152393D01*
X135244Y152491D01*
X135266Y152579D01*
X135277Y152645D01*
Y152699D01*
Y152710D01*
X135266Y152797D01*
X135255Y152885D01*
X135233Y152951D01*
X135211Y153016D01*
X135189Y153071D01*
X135178Y153114D01*
X135156Y153136D01*
Y153147D01*
X135047Y153278D01*
X134916Y153366D01*
X134872Y153399D01*
X134828Y153420D01*
X134796Y153442D01*
X134785D01*
X134675Y153486D01*
X134555Y153519D01*
X134424Y153552D01*
X134293Y153574D01*
X134173Y153595D01*
X134063Y153617D01*
X133998Y153628D01*
X133976D01*
X133790Y153661D01*
X133615Y153683D01*
X133462Y153716D01*
X133309Y153748D01*
X133167Y153781D01*
X133047Y153814D01*
X132927Y153836D01*
X132828Y153869D01*
X132741Y153891D01*
X132664Y153912D01*
X132599Y153934D01*
X132544Y153956D01*
X132500Y153967D01*
X132468Y153978D01*
X132457Y153989D01*
D02*
G37*
G36*
X120696D02*
X120685D01*
X120696Y153639D01*
X120707Y153420D01*
X120718Y153235D01*
X120740Y153082D01*
X120773Y152951D01*
X120805Y152852D01*
X120827Y152776D01*
X120838Y152732D01*
X120849Y152721D01*
X120936Y152579D01*
X121024Y152448D01*
X121133Y152339D01*
X121231Y152251D01*
X121319Y152174D01*
X121396Y152120D01*
X121439Y152087D01*
X121461Y152076D01*
X121625Y152000D01*
X121789Y151945D01*
X121942Y151901D01*
X122095Y151879D01*
X122215Y151857D01*
X122325Y151847D01*
X122412D01*
X122609Y151857D01*
X122773Y151879D01*
X122915Y151923D01*
X123035Y151967D01*
X123122Y152011D01*
X123188Y152054D01*
X123232Y152076D01*
X123243Y152087D01*
X123330Y152185D01*
X123396Y152295D01*
X123450Y152393D01*
X123483Y152491D01*
X123505Y152579D01*
X123516Y152645D01*
Y152699D01*
Y152710D01*
X123505Y152797D01*
X123494Y152885D01*
X123472Y152951D01*
X123450Y153016D01*
X123428Y153071D01*
X123417Y153114D01*
X123396Y153136D01*
Y153147D01*
X123286Y153278D01*
X123155Y153366D01*
X123111Y153399D01*
X123068Y153420D01*
X123035Y153442D01*
X123024D01*
X122915Y153486D01*
X122794Y153519D01*
X122663Y153552D01*
X122532Y153574D01*
X122412Y153595D01*
X122303Y153617D01*
X122237Y153628D01*
X122215D01*
X122029Y153661D01*
X121854Y153683D01*
X121702Y153716D01*
X121548Y153748D01*
X121406Y153781D01*
X121286Y153814D01*
X121166Y153836D01*
X121068Y153869D01*
X120980Y153891D01*
X120904Y153912D01*
X120838Y153934D01*
X120783Y153956D01*
X120740Y153967D01*
X120707Y153978D01*
X120696Y153989D01*
D02*
G37*
G36*
X110247Y156077D02*
X110181D01*
X110050Y156066D01*
X109930Y156055D01*
X109700Y155989D01*
X109504Y155902D01*
X109340Y155803D01*
X109209Y155705D01*
X109110Y155617D01*
X109055Y155552D01*
X109034Y155541D01*
Y155530D01*
X108935Y155388D01*
X108848Y155224D01*
X108793Y155060D01*
X108739Y154885D01*
X108706Y154743D01*
X108684Y154612D01*
Y154568D01*
X108673Y154535D01*
Y154514D01*
Y154503D01*
X111744D01*
X111712Y154754D01*
X111646Y154983D01*
X111569Y155180D01*
X111482Y155333D01*
X111405Y155464D01*
X111329Y155563D01*
X111285Y155617D01*
X111263Y155639D01*
X111089Y155781D01*
X110914Y155891D01*
X110728Y155967D01*
X110553Y156022D01*
X110411Y156055D01*
X110291Y156066D01*
X110247Y156077D01*
D02*
G37*
G36*
X95557D02*
X95491D01*
X95360Y156066D01*
X95240Y156055D01*
X95011Y155989D01*
X94814Y155902D01*
X94650Y155803D01*
X94519Y155705D01*
X94420Y155617D01*
X94366Y155552D01*
X94344Y155541D01*
Y155530D01*
X94245Y155388D01*
X94158Y155224D01*
X94103Y155060D01*
X94049Y154885D01*
X94016Y154743D01*
X93994Y154612D01*
Y154568D01*
X93983Y154535D01*
Y154514D01*
Y154503D01*
X97054D01*
X97022Y154754D01*
X96956Y154983D01*
X96880Y155180D01*
X96792Y155333D01*
X96715Y155464D01*
X96639Y155563D01*
X96595Y155617D01*
X96573Y155639D01*
X96399Y155781D01*
X96224Y155891D01*
X96038Y155967D01*
X95863Y156022D01*
X95721Y156055D01*
X95601Y156066D01*
X95557Y156077D01*
D02*
G37*
G36*
X57346D02*
X57280D01*
X57149Y156066D01*
X57029Y156055D01*
X56799Y155989D01*
X56602Y155902D01*
X56438Y155803D01*
X56307Y155705D01*
X56209Y155617D01*
X56154Y155552D01*
X56132Y155541D01*
Y155530D01*
X56034Y155388D01*
X55947Y155224D01*
X55892Y155060D01*
X55837Y154885D01*
X55805Y154743D01*
X55783Y154612D01*
Y154568D01*
X55772Y154535D01*
Y154514D01*
Y154503D01*
X58843D01*
X58810Y154754D01*
X58745Y154983D01*
X58668Y155180D01*
X58581Y155333D01*
X58504Y155464D01*
X58428Y155563D01*
X58384Y155617D01*
X58362Y155639D01*
X58187Y155781D01*
X58012Y155891D01*
X57827Y155967D01*
X57652Y156022D01*
X57510Y156055D01*
X57389Y156066D01*
X57346Y156077D01*
D02*
G37*
G36*
X203775Y158011D02*
X203698Y157760D01*
X203611Y157497D01*
X203523Y157235D01*
X203436Y156984D01*
X203392Y156874D01*
X203360Y156765D01*
X203327Y156667D01*
X203294Y156590D01*
X203272Y156525D01*
X203250Y156470D01*
X203239Y156437D01*
Y156426D01*
X202452Y154350D01*
X205010D01*
X204190Y156557D01*
X204092Y156831D01*
X204015Y157093D01*
X203939Y157334D01*
X203884Y157552D01*
X203840Y157738D01*
X203819Y157814D01*
X203808Y157891D01*
X203786Y157935D01*
Y157978D01*
X203775Y158000D01*
Y158011D01*
D02*
G37*
G36*
X154951Y156077D02*
X154885D01*
X154754Y156066D01*
X154634Y156055D01*
X154415Y156000D01*
X154218Y155913D01*
X154054Y155814D01*
X153923Y155716D01*
X153825Y155639D01*
X153759Y155574D01*
X153737Y155563D01*
Y155552D01*
X153650Y155454D01*
X153584Y155333D01*
X153464Y155093D01*
X153377Y154831D01*
X153322Y154590D01*
X153289Y154360D01*
X153278Y154262D01*
Y154175D01*
X153267Y154109D01*
Y154054D01*
Y154022D01*
Y154011D01*
Y153814D01*
X153289Y153628D01*
X153311Y153464D01*
X153344Y153300D01*
X153377Y153158D01*
X153420Y153027D01*
X153453Y152907D01*
X153497Y152797D01*
X153541Y152710D01*
X153584Y152623D01*
X153628Y152557D01*
X153661Y152502D01*
X153694Y152459D01*
X153716Y152426D01*
X153726Y152415D01*
X153737Y152404D01*
X153825Y152317D01*
X153923Y152229D01*
X154109Y152098D01*
X154306Y152011D01*
X154481Y151945D01*
X154645Y151912D01*
X154765Y151890D01*
X154819Y151879D01*
X154885D01*
X155016Y151890D01*
X155136Y151901D01*
X155366Y151956D01*
X155563Y152043D01*
X155727Y152142D01*
X155858Y152229D01*
X155956Y152317D01*
X156022Y152371D01*
X156033Y152393D01*
X156044D01*
X156120Y152502D01*
X156197Y152612D01*
X156306Y152863D01*
X156393Y153125D01*
X156448Y153388D01*
X156481Y153617D01*
X156492Y153716D01*
Y153803D01*
X156503Y153880D01*
Y153934D01*
Y153967D01*
Y153978D01*
X156492Y154164D01*
X156481Y154350D01*
X156459Y154514D01*
X156426Y154667D01*
X156393Y154809D01*
X156360Y154940D01*
X156317Y155049D01*
X156273Y155158D01*
X156229Y155246D01*
X156186Y155333D01*
X156153Y155399D01*
X156120Y155454D01*
X156087Y155497D01*
X156065Y155530D01*
X156044Y155541D01*
Y155552D01*
X155956Y155639D01*
X155858Y155727D01*
X155672Y155858D01*
X155475Y155945D01*
X155289Y156011D01*
X155125Y156055D01*
X155005Y156066D01*
X154951Y156077D01*
D02*
G37*
%LPD*%
D10*
X370079Y149016D02*
G03*
X370079Y149016I-492J0D01*
G01*
X414272D02*
G03*
X414272Y149016I-492J0D01*
G01*
X502461D02*
G03*
X502461Y149016I-492J0D01*
G01*
X458169D02*
G03*
X458169Y149016I-492J0D01*
G01*
D11*
X370768Y142520D02*
Y144882D01*
Y142520D02*
X373917D01*
X382579D02*
Y144882D01*
X379429Y142520D02*
X382579D01*
X368996Y123130D02*
Y138878D01*
X356004Y123130D02*
Y138878D01*
X400197Y123125D02*
Y138873D01*
X413189Y123125D02*
Y138873D01*
X414961Y142520D02*
Y144882D01*
Y142520D02*
X418110D01*
X426772D02*
Y144882D01*
X423622Y142520D02*
X426772D01*
X416536Y169090D02*
X417323D01*
X416536Y157673D02*
X417323D01*
X410236D02*
X411024D01*
X410236Y169090D02*
X411024D01*
X410236Y165350D02*
X417323D01*
X410236Y157673D02*
Y169090D01*
X417323Y157673D02*
Y169090D01*
X488386Y123031D02*
Y138779D01*
X501378Y123031D02*
Y138779D01*
X503150Y142520D02*
Y144882D01*
Y142520D02*
X506299D01*
X514961D02*
Y144882D01*
X511811Y142520D02*
X514961D01*
X504724Y168996D02*
X505512D01*
X504724Y157579D02*
X505512D01*
X498425D02*
X499213D01*
X498425Y168996D02*
X499213D01*
X498425Y165256D02*
X505512D01*
X498425Y157579D02*
Y168996D01*
X505512Y157579D02*
Y168996D01*
X372342Y169095D02*
X373130D01*
X372342Y157677D02*
X373130D01*
X366043D02*
X366831D01*
X366043Y169095D02*
X366831D01*
X366043Y165354D02*
X373130D01*
X366043Y157677D02*
Y169095D01*
X373130Y157677D02*
Y169095D01*
X444095Y123130D02*
Y138878D01*
X457087Y123130D02*
Y138878D01*
X458858Y142520D02*
Y144882D01*
Y142520D02*
X462008D01*
X470669D02*
Y144882D01*
X467520Y142520D02*
X470669D01*
X460433Y169095D02*
X461221D01*
X460433Y157677D02*
X461221D01*
X454134D02*
X454921D01*
X454134Y169095D02*
X454921D01*
X454134Y165354D02*
X461221D01*
X454134Y157677D02*
Y169095D01*
X461221Y157677D02*
Y169095D01*
D14*
X462402Y169587D02*
X469390D01*
Y157579D02*
Y169587D01*
X462402Y157579D02*
Y169587D01*
Y157579D02*
X469390D01*
X374311Y169587D02*
X381299D01*
Y157579D02*
Y169587D01*
X374311Y157579D02*
Y169587D01*
Y157579D02*
X381299D01*
X506693Y169488D02*
X513681D01*
Y157480D02*
Y169488D01*
X506693Y157480D02*
Y169488D01*
Y157480D02*
X513681D01*
X418504Y169582D02*
X425492D01*
Y157574D02*
Y169582D01*
X418504Y157574D02*
Y169582D01*
Y157574D02*
X425492D01*
X452362Y148130D02*
Y151870D01*
X364272Y148130D02*
Y151870D01*
X496654Y148031D02*
Y151772D01*
X408465Y148125D02*
Y151865D01*
M02*
