G04*
G04 #@! TF.GenerationSoftware,Altium Limited,Altium Designer,22.0.2 (36)*
G04*
G04 Layer_Color=16711935*
%FSLAX25Y25*%
%MOIN*%
G70*
G04*
G04 #@! TF.SameCoordinates,5A643F03-C439-4DF5-9915-15B1C7EAFC9B*
G04*
G04*
G04 #@! TF.FilePolarity,Positive*
G04*
G01*
G75*
%ADD15C,0.00394*%
%ADD139C,0.00197*%
D15*
X463484Y145276D02*
X467421D01*
X465453Y143307D02*
Y147244D01*
X507776Y145276D02*
X511713D01*
X509744Y143307D02*
Y147244D01*
X419587Y145276D02*
X423524D01*
X421555Y143307D02*
Y147244D01*
X375394Y145276D02*
X379331D01*
X377362Y143307D02*
Y147244D01*
X452362Y148130D02*
Y151870D01*
X450492Y150000D02*
X454232D01*
X364272Y148130D02*
Y151870D01*
X362402Y150000D02*
X366142D01*
X496654Y148031D02*
Y151772D01*
X494783Y149902D02*
X498524D01*
X408465Y148125D02*
Y151865D01*
X406595Y149996D02*
X410335D01*
X362500Y129134D02*
Y133071D01*
X360531Y131102D02*
X364469D01*
X404724Y131098D02*
X408661D01*
X406693Y129129D02*
Y133066D01*
X492913Y131004D02*
X496850D01*
X494882Y129035D02*
Y132972D01*
X448622Y131102D02*
X452559D01*
X450591Y129134D02*
Y133071D01*
D139*
X472343Y137795D02*
Y152756D01*
X458563Y137795D02*
Y152756D01*
Y137795D02*
X472343D01*
X458563Y152756D02*
X472343D01*
X516634Y137795D02*
Y152756D01*
X502854Y137795D02*
Y152756D01*
Y137795D02*
X516634D01*
X502854Y152756D02*
X516634D01*
X428445Y137795D02*
Y152756D01*
X414665Y137795D02*
Y152756D01*
Y137795D02*
X428445D01*
X414665Y152756D02*
X428445D01*
X384252Y137795D02*
Y152756D01*
X370473Y137795D02*
Y152756D01*
Y137795D02*
X384252D01*
X370473Y152756D02*
X384252D01*
X446654Y147047D02*
X458071D01*
X446654Y152953D02*
X458071D01*
X446654Y147047D02*
Y152953D01*
X458071Y147047D02*
Y152953D01*
X358563Y147047D02*
X369980D01*
X358563Y152953D02*
X369980D01*
X358563Y147047D02*
Y152953D01*
X369980Y147047D02*
Y152953D01*
X490945Y146949D02*
X502362D01*
X490945Y152854D02*
X502362D01*
X490945Y146949D02*
Y152854D01*
X502362Y146949D02*
Y152854D01*
X402756Y147043D02*
X414173D01*
X402756Y152948D02*
X414173D01*
X402756Y147043D02*
Y152948D01*
X414173Y147043D02*
Y152948D01*
X354626Y147244D02*
X370374D01*
Y115059D02*
Y147244D01*
X354626Y115059D02*
X370374D01*
X354626Y114961D02*
Y147244D01*
X398819Y114956D02*
Y147239D01*
Y115055D02*
X414567D01*
Y147239D01*
X398819D02*
X414567D01*
X487008Y114862D02*
Y147146D01*
Y114961D02*
X502756D01*
Y147146D01*
X487008D02*
X502756D01*
X442717Y114961D02*
Y147244D01*
Y115059D02*
X458465D01*
Y147244D01*
X442717D02*
X458465D01*
M02*
