G04*
G04 #@! TF.GenerationSoftware,Altium Limited,Altium Designer,22.0.2 (36)*
G04*
G04 Layer_Color=128*
%FSLAX25Y25*%
%MOIN*%
G70*
G04*
G04 #@! TF.SameCoordinates,5A643F03-C439-4DF5-9915-15B1C7EAFC9B*
G04*
G04*
G04 #@! TF.FilePolarity,Positive*
G04*
G01*
G75*
%ADD28R,0.03740X0.03740*%
%ADD62R,0.02362X0.05512*%
%ADD64R,0.03347X0.06299*%
%ADD133R,0.05118X0.02756*%
%ADD134R,0.13780X0.05709*%
D28*
X449508Y150000D02*
D03*
X455217D02*
D03*
X361417Y150000D02*
D03*
X367126D02*
D03*
X493799Y149902D02*
D03*
X499508D02*
D03*
X405610Y149996D02*
D03*
X411319D02*
D03*
D62*
X465453Y141535D02*
D03*
X469193Y149016D02*
D03*
X461713D02*
D03*
X509744Y141535D02*
D03*
X513484Y149016D02*
D03*
X506004D02*
D03*
X421555Y141535D02*
D03*
X425295Y149016D02*
D03*
X417815D02*
D03*
X377362Y141535D02*
D03*
X381102Y149016D02*
D03*
X373622D02*
D03*
D64*
X413779Y156688D02*
D03*
Y170074D02*
D03*
X501968Y156595D02*
D03*
Y169980D02*
D03*
X369587Y156693D02*
D03*
Y170079D02*
D03*
X457677Y156693D02*
D03*
Y170079D02*
D03*
D133*
X465945Y167323D02*
D03*
Y159843D02*
D03*
X377854Y167323D02*
D03*
Y159843D02*
D03*
X510236Y167224D02*
D03*
Y159744D02*
D03*
X422047Y167318D02*
D03*
Y159838D02*
D03*
D134*
X362500Y143307D02*
D03*
Y118898D02*
D03*
X406693Y118893D02*
D03*
Y143303D02*
D03*
X494882Y118799D02*
D03*
Y143209D02*
D03*
X450591Y118898D02*
D03*
Y143307D02*
D03*
M02*
