G04*
G04 #@! TF.GenerationSoftware,Altium Limited,Altium Designer,22.0.2 (36)*
G04*
G04 Layer_Color=8388736*
%FSLAX25Y25*%
%MOIN*%
G70*
G04*
G04 #@! TF.SameCoordinates,5A643F03-C439-4DF5-9915-15B1C7EAFC9B*
G04*
G04*
G04 #@! TF.FilePolarity,Positive*
G04*
G01*
G75*
%ADD12C,0.00787*%
%ADD15C,0.00394*%
%ADD18C,0.00600*%
D12*
X440551Y153661D02*
X460236D01*
X440551D02*
Y232402D01*
X460236D01*
Y153661D02*
Y232402D01*
X247342Y188484D02*
Y200492D01*
Y188484D02*
X254232D01*
Y200492D01*
X247342D02*
X254232D01*
X100984Y36437D02*
Y48406D01*
X95472D02*
X100984D01*
X95472Y36437D02*
Y48406D01*
Y36437D02*
X100984D01*
X130315Y37126D02*
X135827D01*
X130315D02*
Y49095D01*
X135827D01*
Y37126D02*
Y49095D01*
X396654Y153657D02*
X416339D01*
X396654D02*
Y232397D01*
X416339D01*
Y153657D02*
Y232397D01*
X484842Y153563D02*
X504528D01*
X484842D02*
Y232303D01*
X504528D01*
Y153563D02*
Y232303D01*
X352461Y153661D02*
X372146D01*
X352461D02*
Y232402D01*
X372146D01*
Y153661D02*
Y232402D01*
D15*
X279232Y173327D02*
G03*
X279232Y173327I-1969J0D01*
G01*
X117126Y68898D02*
G03*
X117126Y68898I-1969J0D01*
G01*
X148031D02*
G03*
X148031Y68898I-1969J0D01*
G01*
X267579Y93206D02*
G03*
X267579Y93206I-1969J0D01*
G01*
X27461Y93996D02*
X34350D01*
X27461Y97736D02*
X34350Y97736D01*
X34350Y93996D01*
X27461Y97736D02*
X27461Y93996D01*
X25593Y154082D02*
Y184397D01*
X-1966D02*
X25593D01*
X-1966Y154082D02*
X25593D01*
X-1966D02*
Y184397D01*
X126642Y112445D02*
X129287Y115090D01*
X121771Y117317D02*
X124415Y119962D01*
X121771Y117317D02*
X126642Y112445D01*
X124415Y119962D02*
X129287Y115090D01*
X303740Y189272D02*
X309646D01*
Y177461D02*
Y189272D01*
X303740Y177461D02*
X309646D01*
X303740D02*
Y189272D01*
Y185531D02*
X307480Y189272D01*
X298720Y206594D02*
X305019D01*
Y195177D02*
Y206594D01*
X298720Y195177D02*
X305019D01*
X298720D02*
Y206594D01*
Y202854D02*
X302461Y206594D01*
X272244Y184941D02*
X278543D01*
X272244D02*
Y196358D01*
X278543D01*
Y184941D02*
Y196358D01*
X274803Y184941D02*
X278543Y188681D01*
X273720Y157185D02*
X289468D01*
X273720Y176870D02*
X289468D01*
Y157185D02*
Y176870D01*
X273720Y157185D02*
Y176870D01*
X299409Y151575D02*
Y154724D01*
Y151575D02*
X305709D01*
Y154724D01*
X299409D02*
X305709D01*
X305709Y157579D02*
Y160728D01*
X299409D02*
X305709D01*
X299409Y157579D02*
Y160728D01*
Y157579D02*
X305709D01*
X299409Y163583D02*
Y166732D01*
Y163583D02*
X305709D01*
Y166732D01*
X299409D02*
X305709D01*
X263189Y163583D02*
Y166732D01*
X256890D02*
X263189D01*
X256890Y163583D02*
Y166732D01*
Y163583D02*
X263189D01*
X236417Y183465D02*
Y186614D01*
X230118D02*
X236417D01*
X230118Y183465D02*
Y186614D01*
Y183465D02*
X236417D01*
X236417Y189862D02*
Y193012D01*
X230118D02*
X236417D01*
X230118Y189862D02*
Y193012D01*
Y189862D02*
X236417D01*
X256890Y157579D02*
Y160728D01*
Y157579D02*
X263189D01*
Y160728D01*
X256890D02*
X263189D01*
X250984Y169587D02*
Y172736D01*
Y169587D02*
X257283D01*
Y172736D01*
X250984D02*
X257283D01*
X255216Y176772D02*
X258366D01*
Y183071D01*
X255216D02*
X258366D01*
X255216Y176772D02*
Y183071D01*
X287008Y151279D02*
X293898D01*
X287008Y155020D02*
X293898D01*
Y151279D02*
Y155020D01*
X287008Y151279D02*
Y155020D01*
X299114Y173031D02*
X306004D01*
X299114Y169291D02*
X306004D01*
X299114D02*
Y173031D01*
X306004Y169291D02*
Y173031D01*
X320374Y179921D02*
Y186811D01*
X316634Y179921D02*
Y186811D01*
X320374D01*
X316634Y179921D02*
X320374D01*
X261220Y187205D02*
Y194095D01*
X264961Y187205D02*
Y194095D01*
X261220Y187205D02*
X264961D01*
X261220Y194095D02*
X264961D01*
X315551Y197441D02*
Y204331D01*
X311811Y197441D02*
Y204331D01*
X315551D01*
X311811Y197441D02*
X315551D01*
X287007Y178937D02*
X293897D01*
X287007Y182677D02*
X293897D01*
Y178937D02*
Y182677D01*
X287007Y178937D02*
Y182677D01*
X260925Y170571D02*
Y177461D01*
X264665Y170571D02*
Y177461D01*
X260925Y170571D02*
X264665D01*
X260925Y177461D02*
X264665D01*
X250295Y207579D02*
X257185D01*
X250295Y203839D02*
X257185D01*
X250295D02*
Y207579D01*
X257185Y203839D02*
Y207579D01*
X197146Y218701D02*
X200886D01*
X197146Y225590D02*
X200886Y225591D01*
X197146Y218701D02*
X197146Y225590D01*
X200886Y218701D02*
Y225591D01*
X197146Y205315D02*
X200886D01*
X197146Y198425D02*
X200886Y198425D01*
X200886Y205315D01*
X197146Y198425D02*
X197146Y205315D01*
X350098Y118405D02*
X353839Y114665D01*
X350098D02*
X361516D01*
Y120965D01*
X350098D02*
X361516D01*
X350098Y114665D02*
Y120965D01*
X423622Y117028D02*
X427362D01*
X423622Y110138D02*
X427362D01*
Y117028D01*
X423622Y110138D02*
Y117028D01*
X467717Y117126D02*
X471457D01*
X467717Y110236D02*
X471457D01*
Y117126D01*
X467717Y110236D02*
Y117126D01*
X184153Y60925D02*
X191043D01*
X184153Y64665D02*
X191043D01*
Y60925D02*
Y64665D01*
X184153Y60925D02*
Y64665D01*
X210236Y67323D02*
X217126Y67323D01*
X210236Y63583D02*
X217126D01*
X210236D02*
Y67323D01*
X217126Y67323D02*
X217126Y63583D01*
X210236Y73327D02*
X217126D01*
X210236Y69587D02*
X217126D01*
X210236Y73327D02*
X210236Y69587D01*
X217126D02*
Y73327D01*
X87839Y167856D02*
X90484Y170500D01*
X92711Y162984D02*
X95355Y165628D01*
X90484Y170500D02*
X95355Y165628D01*
X87839Y167856D02*
X92711Y162984D01*
X182179Y155334D02*
X184824Y157978D01*
X177307Y160205D02*
X179952Y162850D01*
X177307Y160205D02*
X182179Y155334D01*
X179952Y162850D02*
X184824Y157978D01*
X37350Y215844D02*
X44239D01*
X37350Y219584D02*
X44239D01*
Y215844D02*
Y219584D01*
X37350Y215844D02*
Y219584D01*
X36956Y229033D02*
X43846D01*
X36956Y232773D02*
X43846D01*
Y229033D02*
Y232773D01*
X36956Y229033D02*
Y232773D01*
X102414Y213679D02*
X109304D01*
X102414Y209939D02*
X109304D01*
X102414D02*
Y213679D01*
X109304Y209939D02*
Y213679D01*
X102414Y226671D02*
X109304D01*
X102414Y222931D02*
X109304D01*
X102414D02*
Y226671D01*
X109304Y222931D02*
Y226671D01*
X99016Y56693D02*
Y72441D01*
X118701Y56693D02*
Y72441D01*
X99016Y56693D02*
X118701D01*
X99016Y72441D02*
X118701D01*
X129921Y56693D02*
Y72441D01*
X149606Y56693D02*
Y72441D01*
X129921Y56693D02*
X149606D01*
X129921Y72441D02*
X149606D01*
X117618Y38976D02*
X121358D01*
X117618Y45866D02*
X121358D01*
X117618Y38976D02*
Y45866D01*
X121358Y38976D02*
Y45866D01*
X152461Y39665D02*
X156201D01*
X152461Y46555D02*
X156201Y46555D01*
X152461Y46555D02*
X152461Y39665D01*
X156201D02*
Y46555D01*
X112205Y80413D02*
Y84153D01*
X105315Y80413D02*
Y84153D01*
Y80413D02*
X112205D01*
X105315Y84153D02*
X112205D01*
X142913Y81791D02*
Y85532D01*
X136024Y81791D02*
Y85532D01*
Y81791D02*
X142913D01*
X136024Y85532D02*
X142913D01*
X155758Y147356D02*
X160630Y152228D01*
X158402Y144711D02*
X163274Y149583D01*
X155758Y147356D02*
X158402Y144711D01*
X160630Y152228D02*
X163274Y149583D01*
X138080Y185774D02*
X142952Y180902D01*
X140725Y188418D02*
X145597Y183546D01*
X142952Y180902D02*
X145597Y183546D01*
X138080Y185774D02*
X140725Y188418D01*
X133835Y181528D02*
X138707Y176656D01*
X136479Y184173D02*
X141351Y179301D01*
X138707Y176656D02*
X141351Y179301D01*
X133835Y181528D02*
X136479Y184173D01*
X87881Y150387D02*
X92752Y155258D01*
X85236Y153031D02*
X90108Y157903D01*
X92752Y155258D01*
X85236Y153031D02*
X87881Y150387D01*
X83635Y154632D02*
X88507Y159504D01*
X80991Y157277D02*
X85862Y162148D01*
X88507Y159504D01*
X80991Y157277D02*
X83635Y154632D01*
X113095Y180693D02*
X117966Y185565D01*
X115739Y178048D02*
X120611Y182920D01*
X113095Y180693D02*
X115739Y178048D01*
X117966Y185565D02*
X120611Y182920D01*
X252756Y45571D02*
Y49311D01*
X259646Y45571D02*
Y49311D01*
X252756D02*
X259646D01*
X252756Y45571D02*
X259646D01*
X61417Y96260D02*
X68307D01*
X61417Y92520D02*
X68307D01*
X61417D02*
Y96260D01*
X68307Y92520D02*
Y96260D01*
X70669Y113287D02*
Y120177D01*
X66929Y113287D02*
Y120177D01*
X70669D01*
X66929Y113287D02*
X70669D01*
X31988Y105512D02*
Y112401D01*
X35728Y105512D02*
Y112401D01*
X31988Y105512D02*
X35728Y105512D01*
X31988Y112401D02*
X35728D01*
X469783Y79724D02*
X473524D01*
X469783Y86614D02*
X473524D01*
X469783Y79724D02*
Y86614D01*
X473524Y79724D02*
Y86614D01*
X435024Y78461D02*
X438764D01*
X435024Y85350D02*
X438764D01*
X435024Y78461D02*
Y85350D01*
X438764Y78461D02*
Y85350D01*
X422342Y79921D02*
X426083D01*
X422342Y86811D02*
X426083D01*
X422342Y79921D02*
Y86811D01*
X426083Y79921D02*
Y86811D01*
X388386Y78740D02*
X392126D01*
X388386Y85630D02*
X392126D01*
X388386Y78740D02*
Y85630D01*
X392126Y78740D02*
Y85630D01*
X517126Y79921D02*
X520866D01*
X517126Y86811D02*
X520866D01*
X517126Y79921D02*
Y86811D01*
X520866Y79921D02*
Y86811D01*
X482268Y78461D02*
X486008D01*
X482268Y85350D02*
X486008D01*
X482268Y78461D02*
Y85350D01*
X486008Y78461D02*
Y85350D01*
X433071Y122244D02*
Y129134D01*
X429331Y122244D02*
Y129134D01*
X433071D01*
X429331Y122244D02*
X433071D01*
X345079Y122835D02*
Y129724D01*
X341339Y122835D02*
Y129724D01*
X345079D01*
X341339Y122835D02*
X345079D01*
X477165Y123031D02*
Y129921D01*
X473425Y123031D02*
Y129921D01*
X477165D01*
X473425Y123031D02*
X477165D01*
X389173Y122441D02*
Y129331D01*
X385433Y122441D02*
Y129331D01*
X389173D01*
X385433Y122441D02*
X389173D01*
X378346Y109547D02*
Y116437D01*
X382087Y109547D02*
Y116437D01*
X378346Y109547D02*
X382087D01*
X378346Y116437D02*
X382087D01*
X512697Y110039D02*
Y116929D01*
X516437Y110039D02*
Y116929D01*
X512697Y110039D02*
X516437D01*
X512697Y116929D02*
X516437D01*
X252559Y69291D02*
X259449D01*
X252559Y73032D02*
X259449D01*
Y69291D02*
Y73032D01*
X252559Y69291D02*
Y73032D01*
X195571Y92815D02*
X202461D01*
X195571Y89075D02*
X202461D01*
X195571D02*
Y92815D01*
X202461Y89075D02*
Y92815D01*
X195571Y86713D02*
X202461D01*
X195571Y82973D02*
X202461D01*
X195571D02*
Y86713D01*
X202461Y82973D02*
Y86713D01*
X184154Y66929D02*
X191043D01*
X184154Y70669D02*
X191043Y70669D01*
X191043Y66929D02*
X191043Y70669D01*
X184154Y66929D02*
Y70669D01*
X191339Y125197D02*
X198228D01*
X191339Y128937D02*
X198228D01*
Y125197D02*
Y128937D01*
X191339Y125197D02*
Y128937D01*
X262165Y89662D02*
X296614D01*
X262165Y105411D02*
X296614D01*
X262165Y89662D02*
Y105411D01*
X296614Y89662D02*
Y105411D01*
X272146Y74820D02*
X277146Y79820D01*
X272146Y45765D02*
Y79820D01*
Y45765D02*
X287500D01*
Y79820D01*
X272146D02*
X287500D01*
X304350Y5194D02*
Y32989D01*
X241122Y5194D02*
X304350D01*
X241122D02*
Y32989D01*
X304350D01*
X271063Y112497D02*
Y116237D01*
X264173Y112497D02*
Y116237D01*
Y112497D02*
X271063D01*
X264173Y116237D02*
X271063D01*
X514665Y35728D02*
Y47539D01*
X520177Y35728D02*
Y47539D01*
X514665D02*
X520177D01*
X514665Y35728D02*
X520177D01*
X420079Y114759D02*
Y120665D01*
X408268Y114759D02*
X420079D01*
X408268D02*
Y120665D01*
X420079D01*
X416339D02*
X420079Y116925D01*
X394094Y138578D02*
X405905D01*
X394094Y144090D02*
X405905D01*
X394094Y138578D02*
Y144090D01*
X405905Y138578D02*
Y144090D01*
X408268Y138578D02*
X420079D01*
X408268Y144090D02*
X420079D01*
X408268Y138578D02*
Y144090D01*
X420079Y138578D02*
Y144090D01*
X394291Y118401D02*
X398031Y114661D01*
X394291D02*
X405709D01*
Y120960D01*
X394291D02*
X405709D01*
X394291Y114661D02*
Y120960D01*
X364075Y138583D02*
X375886D01*
X364075Y144095D02*
X375886D01*
X364075Y138583D02*
Y144095D01*
X375886Y138583D02*
Y144095D01*
X508268Y114665D02*
Y120571D01*
X496457Y114665D02*
X508268D01*
X496457D02*
Y120571D01*
X508268D01*
X504528D02*
X508268Y116831D01*
X482283Y138484D02*
X494095D01*
X482283Y143996D02*
X494095D01*
X482283Y138484D02*
Y143996D01*
X494095Y138484D02*
Y143996D01*
X496457Y138484D02*
X508268D01*
X496457Y143996D02*
X508268D01*
X496457Y138484D02*
Y143996D01*
X508268Y138484D02*
Y143996D01*
X482480Y118307D02*
X486221Y114567D01*
X482480D02*
X493898D01*
Y120866D01*
X482480D02*
X493898D01*
X482480Y114567D02*
Y120866D01*
X375886Y114764D02*
Y120669D01*
X364075Y114764D02*
X375886D01*
X364075D02*
Y120669D01*
X375886D01*
X372146D02*
X375886Y116929D01*
X349902Y138583D02*
X361713D01*
X349902Y144095D02*
X361713D01*
X349902Y138583D02*
Y144095D01*
X361713Y138583D02*
Y144095D01*
X463976Y114764D02*
Y120669D01*
X452165Y114764D02*
X463976D01*
X452165D02*
Y120669D01*
X463976D01*
X460236D02*
X463976Y116929D01*
X437992Y138583D02*
X449803D01*
X437992Y144095D02*
X449803D01*
X437992Y138583D02*
Y144095D01*
X449803Y138583D02*
Y144095D01*
X452165Y138583D02*
X463976D01*
X452165Y144095D02*
X463976D01*
X452165Y138583D02*
Y144095D01*
X463976Y138583D02*
Y144095D01*
X438189Y118405D02*
X441929Y114665D01*
X438189D02*
X449606D01*
Y120965D01*
X438189D02*
X449606D01*
X438189Y114665D02*
Y120965D01*
X473406Y13543D02*
X477165Y17303D01*
Y13543D02*
Y25039D01*
X472047D02*
X477165D01*
X472047Y13543D02*
Y25039D01*
Y13543D02*
X477165D01*
X100768Y32497D02*
X163996D01*
X100768Y4702D02*
Y32497D01*
Y4702D02*
X163996D01*
Y32497D01*
D18*
X48683Y108544D02*
G03*
X48599Y110944I-42J1200D01*
G01*
X206757Y110354D02*
G03*
X206841Y107953I42J-1200D01*
G01*
X49391Y103644D02*
X50491D01*
X49391Y99744D02*
Y103644D01*
Y99744D02*
X50491D01*
Y103644D01*
X51291D02*
X52391D01*
X51291Y99744D02*
Y103644D01*
Y99744D02*
X52391D01*
Y103644D01*
X53291D02*
X54391D01*
X53291Y99744D02*
Y103644D01*
Y99744D02*
X54391D01*
Y103644D01*
X55291D02*
X56391D01*
X55291Y99744D02*
Y103644D01*
Y99744D02*
X56391D01*
Y103644D01*
X57191D02*
X58291D01*
X57191Y99744D02*
Y103644D01*
Y99744D02*
X58291D01*
Y103644D01*
X59191D02*
X60291D01*
X59191Y99844D02*
Y103644D01*
Y99844D02*
X60291D01*
Y103644D01*
X61191D02*
X62291D01*
X61191Y99844D02*
Y103644D01*
Y99844D02*
X62291D01*
Y103644D01*
X63091D02*
X64191D01*
X63091Y99844D02*
Y103644D01*
Y99844D02*
X64191D01*
Y103644D01*
X63091Y115844D02*
X64191D01*
Y119744D01*
X63091D02*
X64191D01*
X63091Y115844D02*
Y119744D01*
X61191Y115844D02*
X62291D01*
Y119744D01*
X61191D02*
X62291D01*
X61191Y115844D02*
Y119744D01*
X59191Y115844D02*
X60291D01*
Y119744D01*
X59191D02*
X60291D01*
X59191Y115844D02*
Y119744D01*
X57191Y115844D02*
X58291D01*
Y119744D01*
X57191D02*
X58291D01*
X57191Y115844D02*
Y119744D01*
X55291Y115844D02*
X56391D01*
Y119744D01*
X55291D02*
X56391D01*
X55291Y115844D02*
Y119744D01*
X53291Y115844D02*
X54391D01*
Y119744D01*
X53291D02*
X54391D01*
X53291Y115844D02*
Y119744D01*
X51291Y115844D02*
X52391D01*
Y119744D01*
X51291Y119644D02*
X52391Y119744D01*
X51291Y115844D02*
Y119644D01*
X49391Y115844D02*
X50491D01*
Y119644D01*
X49391D02*
X50491D01*
X49391Y115844D02*
Y119644D01*
X64991Y103644D02*
Y115844D01*
X48591D02*
X64991D01*
X48591Y110944D02*
Y115844D01*
Y103644D02*
Y110944D01*
Y103644D02*
X64991D01*
X187149Y116954D02*
X206749D01*
Y110354D02*
Y116954D01*
Y101354D02*
Y110354D01*
X187149Y101354D02*
X206749D01*
X187149D02*
Y116954D01*
X205349Y101354D02*
X205449Y96953D01*
X203549D02*
X205449D01*
X203549D02*
Y101354D01*
X205349D01*
X200349D02*
X200449Y96953D01*
X198549D02*
X200449D01*
X198549D02*
Y101354D01*
X200349D01*
X195349D02*
X195449Y96953D01*
X193549D02*
X195449D01*
X193549D02*
Y101354D01*
X195349D01*
X190349D02*
X190449Y96953D01*
X188549D02*
X190449D01*
X188549D02*
Y101354D01*
X190349D01*
X188449Y121353D02*
X188549Y116954D01*
X188449Y121353D02*
X190349D01*
Y116954D02*
Y121353D01*
X188549Y116954D02*
X190349D01*
X193449Y121353D02*
X193549Y116954D01*
X193449Y121353D02*
X195349D01*
Y116954D02*
Y121353D01*
X193549Y116954D02*
X195349D01*
X198449Y121353D02*
X198549Y116954D01*
X198449Y121353D02*
X200349D01*
Y116954D02*
Y121353D01*
X198549Y116954D02*
X200349D01*
X203449Y121353D02*
X203549Y116954D01*
X203449Y121353D02*
X205349D01*
Y116954D02*
Y121353D01*
X203549Y116954D02*
X205349D01*
M02*
