G04*
G04 #@! TF.GenerationSoftware,Altium Limited,Altium Designer,22.0.2 (36)*
G04*
G04 Layer_Color=32768*
%FSLAX25Y25*%
%MOIN*%
G70*
G04*
G04 #@! TF.SameCoordinates,5A643F03-C439-4DF5-9915-15B1C7EAFC9B*
G04*
G04*
G04 #@! TF.FilePolarity,Positive*
G04*
G01*
G75*
%ADD10C,0.00500*%
%ADD12C,0.00787*%
%ADD15C,0.00394*%
%ADD139C,0.00197*%
D10*
X126523Y112271D02*
X163827Y149575D01*
X89219Y149575D02*
X126523Y112271D01*
X89219Y149575D02*
X126523Y186879D01*
X163827Y149575D01*
D12*
X543209Y15650D02*
G03*
X543209Y15650I-13780J0D01*
G01*
X92421D02*
G03*
X92421Y15650I-13780J0D01*
G01*
X340453D02*
G03*
X340453Y15650I-13780J0D01*
G01*
X287402Y220472D02*
G03*
X287402Y220472I-13780J0D01*
G01*
X543307D02*
G03*
X543307Y220472I-13780J0D01*
G01*
X31105D02*
G03*
X31105Y220472I-13780J0D01*
G01*
X243110Y187500D02*
Y201476D01*
Y187500D02*
X258465D01*
Y201476D01*
X243110D02*
X258465D01*
X104331Y36043D02*
Y48799D01*
X92126D02*
X104331D01*
X92126Y36043D02*
Y48799D01*
Y36043D02*
X104331D01*
X126969Y36732D02*
X139173D01*
X126969D02*
Y49488D01*
X139173D01*
Y36732D02*
Y49488D01*
D15*
X30906Y93996D02*
Y97736D01*
X29035Y95866D02*
X32776D01*
X429921Y139862D02*
X433661D01*
X431791Y137992D02*
Y141732D01*
X341929Y139764D02*
X345669D01*
X343799Y137894D02*
Y141634D01*
X474213Y139764D02*
X477953D01*
X476083Y137894D02*
Y141634D01*
X386122Y139862D02*
X389862D01*
X387992Y137992D02*
Y141732D01*
X494095Y25197D02*
X497835D01*
X495965Y23327D02*
Y27067D01*
X523917Y62402D02*
X527658D01*
X525787Y60532D02*
Y64272D01*
X503051Y42175D02*
X506791D01*
X504921Y40305D02*
Y44045D01*
X342323Y111417D02*
X346063D01*
X344193Y109547D02*
Y113287D01*
X406496Y40157D02*
Y43898D01*
X404626Y42028D02*
X408366D01*
X418504Y40157D02*
Y43898D01*
X416634Y42028D02*
X420374D01*
X37894Y114764D02*
X41634D01*
X39764Y112894D02*
X39764Y116634D01*
X22049Y169239D02*
X25986D01*
X24018Y167271D02*
Y171208D01*
X124206Y117526D02*
X126851Y114881D01*
X124206Y114881D02*
X126851Y117526D01*
X438583Y148937D02*
X462205D01*
X438583D02*
Y234370D01*
X462205D01*
Y148937D02*
Y234370D01*
X287500Y200787D02*
X291240D01*
X289370Y198917D02*
Y202658D01*
X281594Y165059D02*
Y168996D01*
X279625Y167028D02*
X283562D01*
X290453Y151279D02*
Y155020D01*
X288582Y153150D02*
X292323D01*
X302559Y169291D02*
Y173031D01*
X300689Y171161D02*
X304429D01*
X316634Y183366D02*
X320374D01*
X318504Y181496D02*
Y185236D01*
X261220Y190650D02*
X264961D01*
X263090Y188779D02*
Y192520D01*
X311811Y200886D02*
X315551D01*
X313681Y199016D02*
Y202756D01*
X290452Y178937D02*
Y182677D01*
X288582Y180807D02*
X292322D01*
X260925Y174016D02*
X264665D01*
X262795Y172146D02*
Y175886D01*
X253740Y203839D02*
Y207579D01*
X251870Y205709D02*
X255610D01*
X199016Y220276D02*
Y224016D01*
X197146Y222146D02*
X200886D01*
X199016Y200000D02*
Y203740D01*
X197146Y201870D02*
X200886D01*
X171113Y152115D02*
X173758Y149471D01*
X171113D02*
X173758Y152115D01*
X425492Y111713D02*
Y115453D01*
X423622Y113583D02*
X427362D01*
X469587Y111811D02*
Y115551D01*
X467717Y113681D02*
X471457D01*
X187598Y60925D02*
Y64665D01*
X185728Y62795D02*
X189469D01*
X213681Y63583D02*
X213681Y67323D01*
X211811Y65453D02*
X215551D01*
X213681Y69587D02*
Y73327D01*
X211811Y71457D02*
X215551D01*
X198721Y66240D02*
X202658D01*
X200689Y64272D02*
Y68209D01*
X110630Y41142D02*
X110630Y37402D01*
X108760Y39272D02*
X112500Y39272D01*
X110630Y43504D02*
Y47244D01*
X108760Y45374D02*
X112500D01*
X90275Y168064D02*
X92919Y165420D01*
X90275D02*
X92919Y168064D01*
X179743Y160414D02*
X182388Y157770D01*
X179743Y157770D02*
X182388Y160414D01*
X47441Y128051D02*
X51181D01*
X49311Y126181D02*
Y129921D01*
X175351Y153697D02*
X177996Y156342D01*
X175351D02*
X177996Y153697D01*
X40795Y215844D02*
Y219584D01*
X38925Y217714D02*
X42665D01*
X49850Y212891D02*
Y216632D01*
X47980Y214761D02*
X51720D01*
X40401Y229033D02*
Y232773D01*
X38531Y230903D02*
X42271D01*
X49456Y225884D02*
Y229624D01*
X47586Y227754D02*
X51326D01*
X105859Y209939D02*
Y213679D01*
X103989Y211809D02*
X107729Y211809D01*
X96850Y212891D02*
Y216632D01*
X94980Y214761D02*
X98721D01*
X105859Y222931D02*
Y226671D01*
X103989Y224801D02*
X107729D01*
X96850Y225884D02*
Y229624D01*
X94980Y227754D02*
X98721D01*
X106890Y64567D02*
X110827D01*
X108858Y62598D02*
Y66535D01*
X137795Y64567D02*
X141732D01*
X139764Y62598D02*
Y66535D01*
X143602Y46161D02*
X147343D01*
X145472Y44291D02*
Y48031D01*
X143602Y40059D02*
X147343Y40059D01*
X145472Y38189D02*
X145473Y41929D01*
X94882Y53740D02*
Y57480D01*
X93012Y55610D02*
X96752D01*
X125886Y53740D02*
Y57480D01*
X124016Y55610D02*
X127756D01*
X119488Y40551D02*
Y44291D01*
X117618Y42421D02*
X121358D01*
X154331Y41240D02*
Y44980D01*
X152461Y43110D02*
X156201D01*
X106890Y82284D02*
X110630D01*
X108760Y80413D02*
Y84153D01*
X137598Y83661D02*
X141339D01*
X139469Y81791D02*
Y85532D01*
X158194Y149792D02*
X160838Y147147D01*
X158194Y147147D02*
X160838Y149792D01*
X140516Y183338D02*
X143161Y185982D01*
X140516D02*
X143161Y183338D01*
X136271Y179092D02*
X138915Y181737D01*
X136271Y181737D02*
X138915Y179092D01*
X87672Y155467D02*
X90317Y152822D01*
X87672D02*
X90317Y155467D01*
X83426Y159713D02*
X86071Y157068D01*
X83426D02*
X86071Y159713D01*
X115531Y183129D02*
X118175Y180484D01*
X115531Y180484D02*
X118175Y183129D01*
X254331Y47441D02*
X258071D01*
X256201Y45571D02*
Y49311D01*
X64862Y92520D02*
Y96260D01*
X62992Y94390D02*
X66732D01*
X66929Y116732D02*
X70669D01*
X68799Y114862D02*
Y118602D01*
X64862Y86417D02*
Y90158D01*
X62992Y88287D02*
X66732D01*
X64862Y80315D02*
Y84055D01*
X62992Y82185D02*
X66732D01*
X31988Y108957D02*
X35728D01*
X33858Y107087D02*
Y110827D01*
X39764Y101378D02*
Y105118D01*
X37894Y103248D02*
X41634D01*
X49311Y132283D02*
Y136024D01*
X47441Y134153D02*
X51181D01*
X105859Y229033D02*
Y232773D01*
X103989Y230903D02*
X107729Y230903D01*
X40401Y222931D02*
Y226671D01*
X38531Y224801D02*
X42271D01*
X40795Y209939D02*
Y213679D01*
X38925Y211809D02*
X42665D01*
X105859Y215844D02*
Y219584D01*
X103989Y217714D02*
X107729D01*
X471752Y55610D02*
Y59350D01*
X469882Y57480D02*
X473622D01*
X471654Y81299D02*
Y85039D01*
X469783Y83169D02*
X473524D01*
X436894Y80035D02*
Y83776D01*
X435024Y81906D02*
X438764D01*
X424114Y55610D02*
Y59350D01*
X422244Y57480D02*
X425984D01*
X424213Y81496D02*
Y85236D01*
X422342Y83366D02*
X426083D01*
X390256Y80315D02*
Y84055D01*
X388386Y82185D02*
X392126D01*
X519095Y55807D02*
Y59547D01*
X517224Y57677D02*
X520965D01*
X518996Y81496D02*
Y85236D01*
X517126Y83366D02*
X520866D01*
X484138Y80035D02*
Y83776D01*
X482268Y81906D02*
X486008D01*
X458071Y128839D02*
Y132579D01*
X456201Y130709D02*
X459941D01*
X369980Y128839D02*
Y132579D01*
X368110Y130709D02*
X371850D01*
X502362Y128740D02*
Y132480D01*
X500492Y130610D02*
X504232D01*
X414173Y128834D02*
Y132574D01*
X412303Y130704D02*
X416043D01*
X443898Y128839D02*
Y132579D01*
X442028Y130709D02*
X445768D01*
X355807Y128839D02*
Y132579D01*
X353937Y130709D02*
X357677D01*
X488189Y128740D02*
Y132480D01*
X486319Y130610D02*
X490059D01*
X400000Y128834D02*
Y132574D01*
X398130Y130704D02*
X401870D01*
X429331Y125689D02*
X433071D01*
X431201Y123819D02*
Y127559D01*
X341339Y126279D02*
X345079D01*
X343209Y124409D02*
Y128150D01*
X473425Y126476D02*
X477165D01*
X475295Y124606D02*
Y128347D01*
X385433Y125886D02*
X389173D01*
X387303Y124016D02*
Y127756D01*
X378346Y112992D02*
X382087D01*
X380217Y111122D02*
Y114862D01*
X512697Y113484D02*
X516437D01*
X514567Y111614D02*
Y115354D01*
X295669Y66729D02*
X299410D01*
X297539Y64859D02*
Y68599D01*
X256004Y57379D02*
Y61119D01*
X254134Y59249D02*
X257874D01*
X256004Y51473D02*
Y55214D01*
X254134Y53344D02*
X257874D01*
X256004Y63284D02*
Y67025D01*
X254134Y65155D02*
X257874D01*
X256004Y39663D02*
Y43403D01*
X254134Y41532D02*
X257874D01*
X295669Y55312D02*
X299410D01*
X297539Y53442D02*
Y57182D01*
X256004Y69291D02*
Y73032D01*
X254134Y71161D02*
X257874D01*
X199016Y89075D02*
Y92815D01*
X197146Y90945D02*
X200886D01*
X199016Y82973D02*
Y86713D01*
X197146Y84842D02*
X200886D01*
X187598Y70669D02*
X187599Y66929D01*
X185728Y68799D02*
X189469D01*
X202067Y38484D02*
Y40650D01*
X200984Y39567D02*
X203150D01*
X198228Y38484D02*
Y40650D01*
X197146Y39567D02*
X199311D01*
X221555Y79823D02*
Y83563D01*
X219685Y81693D02*
X223425D01*
X194783Y125197D02*
Y128937D01*
X192913Y127067D02*
X196653D01*
X279390Y95568D02*
Y99505D01*
X277421Y97536D02*
X281358D01*
X265748Y114367D02*
X269488D01*
X267618Y112497D02*
Y116237D01*
X515453Y41634D02*
X519390D01*
X517421Y39665D02*
Y43602D01*
X400000Y139365D02*
Y143303D01*
X398031Y141334D02*
X401968D01*
X414173Y139365D02*
Y143303D01*
X412205Y141334D02*
X416142D01*
X394685Y148933D02*
X418307D01*
X394685D02*
Y234366D01*
X418307D01*
Y148933D02*
Y234366D01*
X369980Y139370D02*
Y143307D01*
X368012Y141339D02*
X371949D01*
X488189Y139272D02*
Y143209D01*
X486221Y141240D02*
X490158D01*
X502362Y139272D02*
Y143209D01*
X500394Y141240D02*
X504331D01*
X482874Y148839D02*
X506496D01*
X482874D02*
Y234272D01*
X506496D01*
Y148839D02*
Y234272D01*
X355807Y139370D02*
Y143307D01*
X353839Y141339D02*
X357776D01*
X350492Y148937D02*
X374114D01*
X350492D02*
Y234370D01*
X374114D01*
Y148937D02*
Y234370D01*
X443898Y139370D02*
Y143307D01*
X441929Y141339D02*
X445866D01*
X458071Y139370D02*
Y143307D01*
X456102Y141339D02*
X460039D01*
D139*
X25000Y92913D02*
X36811D01*
X25000Y98819D02*
X36811D01*
Y92913D02*
Y98819D01*
X25000Y92913D02*
Y98819D01*
X428839Y134153D02*
Y145571D01*
X434744Y134153D02*
Y145571D01*
X428839Y134153D02*
X434744D01*
X428839Y145571D02*
X434744D01*
X340846Y134055D02*
Y145472D01*
X346752Y134055D02*
Y145472D01*
X340846Y134055D02*
X346752D01*
X340846Y145472D02*
X346752D01*
X473130Y134055D02*
Y145472D01*
X479035Y134055D02*
Y145472D01*
X473130Y134055D02*
X479035D01*
X473130Y145472D02*
X479035D01*
X385039Y134153D02*
Y145571D01*
X390945Y134153D02*
Y145571D01*
X385039Y134153D02*
X390945D01*
X385039Y145571D02*
X390945D01*
X493012Y19488D02*
Y30906D01*
X498917Y19488D02*
Y30906D01*
X493012Y19488D02*
X498917D01*
X493012Y30906D02*
X498917D01*
X528740Y56693D02*
Y68110D01*
X522835Y56693D02*
Y68110D01*
X528740D01*
X522835Y56693D02*
X528740D01*
X507874Y36467D02*
Y47884D01*
X501968Y36467D02*
Y47884D01*
X507874D01*
X501968Y36467D02*
X507874D01*
X347146Y105709D02*
Y117126D01*
X341240Y105709D02*
Y117126D01*
X347146D01*
X341240Y105709D02*
X347146D01*
X400787Y44980D02*
X412205D01*
X400787Y39075D02*
X412205D01*
X400787D02*
Y44980D01*
X412205Y39075D02*
Y44980D01*
X412795D02*
X424213D01*
X412795Y39075D02*
X424213D01*
X412795D02*
Y44980D01*
X424213Y39075D02*
Y44980D01*
X36811Y109055D02*
X36811Y120472D01*
X42717Y109055D02*
Y120472D01*
X36811Y109055D02*
X42717Y109055D01*
X36811Y120472D02*
X42717Y120472D01*
X-2360Y147389D02*
Y191090D01*
Y147389D02*
X27167D01*
Y191090D02*
X27167Y147389D01*
X-2360Y191090D02*
X27167D01*
X127617Y109940D02*
X131793Y114116D01*
X119265Y118291D02*
X123441Y122467D01*
X119265Y118291D02*
X127617Y109940D01*
X123441Y122467D02*
X131793Y114116D01*
X292323Y195079D02*
Y206496D01*
X286417Y195079D02*
Y206496D01*
X292323D01*
X286417Y195079D02*
X292323D01*
X298327Y190551D02*
X315059D01*
Y176181D02*
Y190551D01*
X298327Y176181D02*
X315059D01*
X298327D02*
Y190551D01*
X293602Y207776D02*
X310138D01*
Y193996D02*
Y207776D01*
X293602Y193996D02*
X310138D01*
X293602D02*
Y207776D01*
X267126Y183760D02*
X283661D01*
X267126D02*
Y197539D01*
X283661D01*
Y183760D02*
Y197539D01*
X266830Y156201D02*
X296358D01*
X266830Y177854D02*
X296358D01*
Y156201D02*
Y177854D01*
X266830Y156201D02*
Y177854D01*
X296850Y150197D02*
Y156102D01*
Y150197D02*
X308268D01*
Y156102D01*
X296850D02*
X308268D01*
X308268Y156201D02*
Y162106D01*
X296850D02*
X308268D01*
X296850Y156201D02*
Y162106D01*
Y156201D02*
X308268D01*
X296850Y162205D02*
Y168110D01*
Y162205D02*
X308268D01*
Y168110D01*
X296850D02*
X308268D01*
X265748Y162205D02*
Y168110D01*
X254331D02*
X265748D01*
X254331Y162205D02*
Y168110D01*
Y162205D02*
X265748D01*
X238976Y182087D02*
Y187992D01*
X227559D02*
X238976D01*
X227559Y182087D02*
Y187992D01*
Y182087D02*
X238976D01*
X238976Y188484D02*
Y194390D01*
X227559D02*
X238976D01*
X227559Y188484D02*
Y194390D01*
Y188484D02*
X238976D01*
X254331Y156201D02*
Y162106D01*
Y156201D02*
X265748D01*
Y162106D01*
X254331D02*
X265748D01*
X248425Y168209D02*
Y174114D01*
Y168209D02*
X259842D01*
Y174114D01*
X248425D02*
X259842D01*
X253838Y174213D02*
X259744D01*
Y185630D01*
X253838D02*
X259744D01*
X253838Y174213D02*
Y185630D01*
X284547Y150197D02*
X296358D01*
X284547Y156102D02*
X296358D01*
Y150197D02*
Y156102D01*
X284547Y150197D02*
Y156102D01*
X296653Y174114D02*
X308464D01*
X296653Y168209D02*
X308464D01*
X296653D02*
Y174114D01*
X308464Y168209D02*
Y174114D01*
X321457Y177461D02*
Y189272D01*
X315551Y177461D02*
Y189272D01*
X321457D01*
X315551Y177461D02*
X321457D01*
X260138Y184744D02*
Y196555D01*
X266043Y184744D02*
Y196555D01*
X260138Y184744D02*
X266043D01*
X260138Y196555D02*
X266043D01*
X316634Y194980D02*
Y206791D01*
X310728Y194980D02*
Y206791D01*
X316634D01*
X310728Y194980D02*
X316634D01*
X284547Y177854D02*
X296358D01*
X284547Y183760D02*
X296358D01*
Y177854D02*
Y183760D01*
X284547Y177854D02*
Y183760D01*
X259842Y168110D02*
Y179921D01*
X265748Y168110D02*
Y179921D01*
X259842Y168110D02*
X265748D01*
X259842Y179921D02*
X265748D01*
X247835Y208662D02*
X259646D01*
X247835Y202756D02*
X259646D01*
X247835D02*
Y208662D01*
X259646Y202756D02*
Y208662D01*
X196063Y216240D02*
X201969D01*
X196063Y228051D02*
X201969D01*
X196063Y216240D02*
Y228051D01*
X201969Y216240D02*
Y228051D01*
X196063Y207776D02*
X201969D01*
X196063Y195965D02*
X201969D01*
Y207776D01*
X196063Y195965D02*
Y207776D01*
X348819Y109547D02*
X362795D01*
Y126083D01*
X348819D02*
X362795D01*
X348819Y109547D02*
Y126083D01*
X174384Y144669D02*
X178560Y148845D01*
X166311Y152742D02*
X170486Y156918D01*
X166311Y152742D02*
X174384Y144669D01*
X170486Y156918D02*
X178560Y148845D01*
X422539Y119488D02*
X428445D01*
X422539Y107677D02*
X428445D01*
Y119488D01*
X422539Y107677D02*
Y119488D01*
X466634Y119587D02*
X472539D01*
X466634Y107776D02*
X472539D01*
Y119587D01*
X466634Y107776D02*
Y119587D01*
X181693Y59842D02*
X193504D01*
X181693Y65748D02*
X193504D01*
Y59842D02*
Y65748D01*
X181693Y59842D02*
Y65748D01*
X207776Y68405D02*
X219587D01*
X207776Y62500D02*
X219587D01*
X207776D02*
X207776Y68405D01*
X219587Y62500D02*
X219587Y68405D01*
X207776Y74410D02*
X219587D01*
X207776Y68504D02*
X219587D01*
X207776D02*
X207776Y74410D01*
X219587Y68504D02*
X219587Y74410D01*
X207776Y53839D02*
Y78642D01*
X193602Y53839D02*
Y78642D01*
X207776D01*
X193602Y53839D02*
X207776D01*
X104921Y36319D02*
X116339D01*
X104921Y42224D02*
X116339Y42224D01*
X116339Y36319D02*
X116339Y42224D01*
X104921Y42224D02*
X104921Y36319D01*
X104921Y42421D02*
X116339D01*
X104921Y48327D02*
X116339Y48327D01*
Y42421D02*
Y48327D01*
X104921Y42421D02*
X104921Y48327D01*
X85333Y168830D02*
X89509Y173006D01*
X93685Y160478D02*
X97861Y164654D01*
X89509Y173006D02*
X97861Y164654D01*
X85333Y168830D02*
X93685Y160478D01*
X183154Y152828D02*
X187329Y157004D01*
X174802Y161180D02*
X178978Y165356D01*
X174802Y161180D02*
X183154Y152828D01*
X178978Y165356D02*
X187329Y157004D01*
X43602Y125098D02*
Y131004D01*
X55020Y125098D02*
Y131004D01*
X43602D02*
X55020D01*
X43602Y125098D02*
X55020D01*
X170549Y156968D02*
X178622Y148895D01*
X174724Y161144D02*
X182798Y153071D01*
X178622Y148895D02*
X182798Y153071D01*
X170549Y156968D02*
X174724Y161144D01*
X34889Y214761D02*
X46700D01*
X34889Y220667D02*
X46700D01*
Y214761D02*
Y220667D01*
X34889Y214761D02*
Y220667D01*
X46897Y220470D02*
X52802D01*
X46897Y209053D02*
X52802D01*
Y220470D01*
X46897Y209053D02*
Y220470D01*
X34495Y227951D02*
X46306D01*
X34495Y233856D02*
X46306D01*
Y227951D02*
Y233856D01*
X34495Y227951D02*
Y233856D01*
X46503Y222045D02*
X52409D01*
X46503Y233462D02*
X52409D01*
X46503Y222045D02*
Y233462D01*
X52409Y222045D02*
Y233462D01*
X99954Y214761D02*
X111765D01*
X99954Y208856D02*
X111765D01*
X99954D02*
Y214761D01*
X111765Y208856D02*
Y214761D01*
X93898Y220470D02*
X99803Y220470D01*
X93898Y209053D02*
X99803Y209053D01*
Y220470D01*
X93898Y209053D02*
X93898Y220470D01*
X99954Y227754D02*
X111765D01*
X99954Y221848D02*
X111765D01*
X99954D02*
Y227754D01*
X111765Y221848D02*
Y227754D01*
X93898Y222045D02*
X99803Y222045D01*
X93898Y233462D02*
X99803Y233462D01*
X93898Y222045D02*
Y233462D01*
X99803Y233462D02*
X99803Y222045D01*
X98032Y50000D02*
Y79134D01*
X119685Y50000D02*
Y79134D01*
X98032Y50000D02*
X119685D01*
X98032Y79134D02*
X119685D01*
X128937Y50000D02*
Y79134D01*
X150591Y50000D02*
Y79134D01*
X128937Y50000D02*
X150591D01*
X128937Y79134D02*
X150591D01*
X139764Y43209D02*
Y49114D01*
X151181Y43209D02*
X151181Y49114D01*
X139764Y49114D02*
X151181Y49114D01*
X139764Y43209D02*
X151181D01*
X139764Y37106D02*
X139764Y43012D01*
X151181Y37106D02*
Y43012D01*
X139764D02*
X151181D01*
X139764Y37106D02*
X151181D01*
X91929Y61319D02*
X97835D01*
X91929Y49902D02*
X97835D01*
Y61319D01*
X91929Y49902D02*
Y61319D01*
X122933D02*
X128839D01*
X122933Y49902D02*
X128839D01*
Y61319D01*
X122933Y49902D02*
Y61319D01*
X116535Y36516D02*
X122441D01*
X116535Y48327D02*
X122441D01*
X116535Y36516D02*
Y48327D01*
X122441Y36516D02*
Y48327D01*
X151378Y37205D02*
X157283D01*
X151378Y49016D02*
X157283D01*
X151378Y37205D02*
Y49016D01*
X157283Y37205D02*
Y49016D01*
X114665Y79331D02*
Y85236D01*
X102854Y79331D02*
Y85236D01*
Y79331D02*
X114665D01*
X102854Y85236D02*
X114665D01*
X145374Y80709D02*
Y86614D01*
X133563Y80709D02*
Y86614D01*
Y80709D02*
X145374D01*
X133563Y86614D02*
X145374D01*
X163205Y185426D02*
X172253Y176378D01*
X164039Y168165D02*
X172253Y176378D01*
X154992Y177213D02*
X164039Y168165D01*
X154992Y177213D02*
X163205Y185426D01*
X153252Y146382D02*
X161604Y154733D01*
X157428Y142206D02*
X165780Y150557D01*
X153252Y146382D02*
X157428Y142206D01*
X161604Y154733D02*
X165780Y150557D01*
X135575Y186748D02*
X143926Y178396D01*
X139750Y190924D02*
X148102Y182572D01*
X143926Y178396D02*
X148102Y182572D01*
X135575Y186748D02*
X139750Y190924D01*
X131329Y182502D02*
X139681Y174151D01*
X135505Y186678D02*
X143857Y178327D01*
X139681Y174151D02*
X143857Y178327D01*
X131329Y182502D02*
X135505Y186678D01*
X86906Y147881D02*
X95258Y156233D01*
X82731Y152057D02*
X91082Y160408D01*
X95258Y156233D01*
X82731Y152057D02*
X86906Y147881D01*
X82661Y152126D02*
X91013Y160478D01*
X78485Y156302D02*
X86837Y164654D01*
X91013Y160478D01*
X78485Y156302D02*
X82661Y152126D01*
X110589Y179719D02*
X118941Y188070D01*
X114765Y175543D02*
X123117Y183894D01*
X110589Y179719D02*
X114765Y175543D01*
X118941Y188070D02*
X123117Y183894D01*
X250295Y44488D02*
Y50394D01*
X262106Y44488D02*
Y50394D01*
X250295D02*
X262106D01*
X250295Y44488D02*
X262106D01*
X58957Y97342D02*
X70768D01*
X58957Y91437D02*
X70768D01*
X58957D02*
Y97342D01*
X70768Y91437D02*
Y97342D01*
X71752Y110827D02*
Y122638D01*
X65847Y110827D02*
Y122638D01*
X71752D01*
X65847Y110827D02*
X71752D01*
X59153Y91240D02*
X70571D01*
X59153Y85335D02*
X70571D01*
X59153D02*
Y91240D01*
X70571Y85335D02*
Y91240D01*
X59153Y79232D02*
X70571D01*
X59153Y85138D02*
X70571D01*
Y79232D02*
Y85138D01*
X59153Y79232D02*
Y85138D01*
X30906Y103051D02*
Y114862D01*
X36811Y103051D02*
Y114862D01*
X30906Y103051D02*
X36811Y103051D01*
X30906Y114862D02*
X36811D01*
Y97539D02*
X42717Y97539D01*
X36811Y108957D02*
X42717D01*
X36811Y97539D02*
Y108957D01*
X42717Y97539D02*
Y108957D01*
X43602Y131201D02*
X55020D01*
X43602Y137106D02*
X55020D01*
Y131201D02*
Y137106D01*
X43602Y131201D02*
Y137106D01*
X100150Y233856D02*
X111568D01*
X100150Y227951D02*
X111568D01*
X100150D02*
X100150Y233856D01*
X111568D02*
X111568Y227951D01*
X34692Y221848D02*
X46110D01*
X34692Y227754D02*
X46110D01*
Y221848D02*
Y227754D01*
X34692Y221848D02*
Y227754D01*
X35086Y208856D02*
X46503D01*
X35086Y214761D02*
X46503D01*
Y208856D02*
Y214761D01*
X35086Y208856D02*
Y214761D01*
X100150Y220667D02*
X111568D01*
X100150Y214761D02*
X111568D01*
X100150D02*
Y220667D01*
X111568Y214761D02*
Y220667D01*
X468799Y51772D02*
X474705D01*
X468799Y63189D02*
X474705D01*
X468799Y51772D02*
Y63189D01*
X474705Y51772D02*
Y63189D01*
X468701Y77264D02*
X474606D01*
X468701Y89075D02*
X474606D01*
X468701Y77264D02*
Y89075D01*
X474606Y77264D02*
Y89075D01*
X433941Y76000D02*
X439847D01*
X433941Y87811D02*
X439847D01*
X433941Y76000D02*
Y87811D01*
X439847Y76000D02*
Y87811D01*
X421161Y51772D02*
X427067D01*
X421161Y63189D02*
X427067D01*
X421161Y51772D02*
Y63189D01*
X427067Y51772D02*
Y63189D01*
X421260Y77461D02*
X427165D01*
X421260Y89272D02*
X427165D01*
X421260Y77461D02*
Y89272D01*
X427165Y77461D02*
Y89272D01*
X387303Y76279D02*
X393209D01*
X387303Y88090D02*
X393209D01*
X387303Y76279D02*
Y88090D01*
X393209Y76279D02*
Y88090D01*
X516142Y51968D02*
X522047D01*
X516142Y63386D02*
X522047D01*
X516142Y51968D02*
Y63386D01*
X522047Y51968D02*
Y63386D01*
X516043Y77461D02*
X521949D01*
X516043Y89272D02*
X521949D01*
X516043Y77461D02*
Y89272D01*
X521949Y77461D02*
Y89272D01*
X481185Y76000D02*
X487090D01*
X481185Y87811D02*
X487090D01*
X481185Y76000D02*
Y87811D01*
X487090Y76000D02*
Y87811D01*
X452362Y133661D02*
X463779D01*
X452362Y127756D02*
X463779D01*
X452362D02*
Y133661D01*
X463779Y127756D02*
Y133661D01*
X364272Y133661D02*
X375689D01*
X364272Y127756D02*
X375689D01*
X364272D02*
Y133661D01*
X375689Y127756D02*
Y133661D01*
X496654Y133563D02*
X508071D01*
X496654Y127657D02*
X508071D01*
X496654D02*
Y133563D01*
X508071Y127657D02*
Y133563D01*
X408465Y133657D02*
X419882D01*
X408465Y127751D02*
X419882D01*
X408465D02*
Y133657D01*
X419882Y127751D02*
Y133657D01*
X438189Y133661D02*
X449606D01*
X438189Y127756D02*
X449606D01*
X438189D02*
Y133661D01*
X449606Y127756D02*
Y133661D01*
X350098Y133661D02*
X361516D01*
X350098Y127756D02*
X361516D01*
X350098D02*
Y133661D01*
X361516Y127756D02*
Y133661D01*
X482480Y133563D02*
X493898D01*
X482480Y127657D02*
X493898D01*
X482480D02*
Y133563D01*
X493898Y127657D02*
Y133563D01*
X394291Y133657D02*
X405709D01*
X394291Y127751D02*
X405709D01*
X394291D02*
Y133657D01*
X405709Y127751D02*
Y133657D01*
X434154Y119783D02*
Y131595D01*
X428248Y119783D02*
Y131595D01*
X434154D01*
X428248Y119783D02*
X434154D01*
X346161Y120374D02*
Y132185D01*
X340256Y120374D02*
Y132185D01*
X346161D01*
X340256Y120374D02*
X346161D01*
X478248Y120571D02*
Y132382D01*
X472342Y120571D02*
Y132382D01*
X478248D01*
X472342Y120571D02*
X478248D01*
X390256Y119980D02*
Y131791D01*
X384350Y119980D02*
Y131791D01*
X390256D01*
X384350Y119980D02*
X390256D01*
X377264Y107087D02*
Y118898D01*
X383169Y107087D02*
Y118898D01*
X377264Y107087D02*
X383169D01*
X377264Y118898D02*
X383169D01*
X511614Y107579D02*
Y119390D01*
X517520Y107579D02*
Y119390D01*
X511614Y107579D02*
X517520D01*
X511614Y119390D02*
X517520D01*
X294587Y61021D02*
Y72438D01*
X300492Y61021D02*
Y72438D01*
X294587Y61021D02*
X300492D01*
X294587Y72438D02*
X300492D01*
X250295Y62202D02*
X261713D01*
X250295Y56296D02*
X261713D01*
X250295D02*
Y62202D01*
X261713Y56296D02*
Y62202D01*
X250295Y56296D02*
X261713D01*
X250295Y50391D02*
X261713D01*
X250295D02*
Y56296D01*
X261713Y50391D02*
Y56296D01*
X250295Y68107D02*
X261713D01*
X250295Y62202D02*
X261713D01*
X250295D02*
Y68107D01*
X261713Y62202D02*
Y68107D01*
X250295Y44485D02*
X261713D01*
X250295Y38580D02*
X261713D01*
X250295D02*
Y44485D01*
X261713Y38580D02*
Y44485D01*
X294587Y49603D02*
Y61021D01*
X300492Y49603D02*
Y61021D01*
X294587Y49603D02*
X300492D01*
X294587Y61021D02*
X300492D01*
X250098Y68209D02*
X261910D01*
X250098Y74114D02*
X261910D01*
Y68209D02*
Y74114D01*
X250098Y68209D02*
Y74114D01*
X193110Y93898D02*
X204921D01*
X193110Y87992D02*
X204921D01*
X193110D02*
Y93898D01*
X204921Y87992D02*
Y93898D01*
X193110Y87795D02*
X204921D01*
X193110Y81890D02*
X204921D01*
X193110D02*
Y87795D01*
X204921Y81890D02*
Y87795D01*
X181693Y65847D02*
X193504D01*
X181693Y71752D02*
X193504D01*
X193504Y65847D02*
X193504Y71752D01*
X181693Y65847D02*
X181693Y71752D01*
X203839Y36024D02*
Y43110D01*
X200295Y36024D02*
X203839D01*
X200295Y43110D02*
X203839D01*
X200295Y36024D02*
Y43110D01*
X200000Y36024D02*
Y43110D01*
X196457Y36024D02*
X200000D01*
X196457Y43110D02*
X200000D01*
X196457Y36024D02*
Y43110D01*
X215846Y78740D02*
X227264Y78740D01*
X215846Y84646D02*
X227264D01*
X227264Y78740D02*
X227264Y84646D01*
X215846D02*
X215846Y78740D01*
X188878Y124114D02*
X200689D01*
X188878Y130020D02*
X200689D01*
Y124114D02*
Y130020D01*
X188878Y124114D02*
Y130020D01*
X261772Y84347D02*
X297008D01*
X261772Y110725D02*
X297008D01*
X261772Y84347D02*
Y110725D01*
X297008Y84347D02*
Y110725D01*
X265158Y44584D02*
Y81001D01*
Y44584D02*
X294488D01*
Y81001D01*
X265158D02*
X294488D01*
X305335Y4210D02*
Y33974D01*
X240138Y4210D02*
X305335D01*
X240138D02*
Y33974D01*
X305335D01*
X273524Y111414D02*
Y117320D01*
X261713Y111414D02*
Y117320D01*
Y111414D02*
X273524D01*
X261713Y117320D02*
X273524D01*
X509941Y34744D02*
Y48524D01*
X524902Y34744D02*
Y48524D01*
X509941D02*
X524902D01*
X509941Y34744D02*
X524902D01*
X421358Y109346D02*
Y126078D01*
X406988Y109346D02*
X421358D01*
X406988D02*
Y126078D01*
X421358D01*
X393110Y133854D02*
X406890D01*
X393110Y148814D02*
X406890D01*
X393110Y133854D02*
Y148814D01*
X406890Y133854D02*
Y148814D01*
X407283Y133854D02*
X421063D01*
X407283Y148814D02*
X421063D01*
X407283Y133854D02*
Y148814D01*
X421063Y133854D02*
Y148814D01*
X393012Y109543D02*
X406988D01*
Y126078D01*
X393012D02*
X406988D01*
X393012Y109543D02*
Y126078D01*
X363090Y133858D02*
X376870D01*
X363090Y148819D02*
X376870D01*
X363090Y133858D02*
Y148819D01*
X376870Y133858D02*
Y148819D01*
X509547Y109252D02*
Y125984D01*
X495177Y109252D02*
X509547D01*
X495177D02*
Y125984D01*
X509547D01*
X481299Y133760D02*
X495079D01*
X481299Y148721D02*
X495079D01*
X481299Y133760D02*
Y148721D01*
X495079Y133760D02*
Y148721D01*
X495472Y133760D02*
X509252D01*
X495472Y148721D02*
X509252D01*
X495472Y133760D02*
Y148721D01*
X509252Y133760D02*
Y148721D01*
X481201Y109449D02*
X495177D01*
Y125984D01*
X481201D02*
X495177D01*
X481201Y109449D02*
Y125984D01*
X377165Y109350D02*
Y126083D01*
X362795Y109350D02*
X377165D01*
X362795D02*
Y126083D01*
X377165D01*
X348917Y133858D02*
X362697D01*
X348917Y148819D02*
X362697D01*
X348917Y133858D02*
Y148819D01*
X362697Y133858D02*
Y148819D01*
X465256Y109350D02*
Y126083D01*
X450886Y109350D02*
X465256D01*
X450886D02*
Y126083D01*
X465256D01*
X437008Y133858D02*
X450787D01*
X437008Y148819D02*
X450787D01*
X437008Y133858D02*
Y148819D01*
X450787Y133858D02*
Y148819D01*
X451181Y133858D02*
X464961D01*
X451181Y148819D02*
X464961D01*
X451181Y133858D02*
Y148819D01*
X464961Y133858D02*
Y148819D01*
X436909Y109547D02*
X450886D01*
Y126083D01*
X436909D02*
X450886D01*
X436909Y109547D02*
Y126083D01*
X482283Y12323D02*
Y26260D01*
X466929D02*
X482283D01*
X466929Y12323D02*
Y26260D01*
Y12323D02*
X482283D01*
X99783Y33481D02*
X164980D01*
X99783Y3718D02*
Y33481D01*
Y3718D02*
X164980D01*
Y33481D01*
M02*
