G04*
G04 #@! TF.GenerationSoftware,Altium Limited,Altium Designer,22.0.2 (36)*
G04*
G04 Layer_Physical_Order=2*
G04 Layer_Color=32768*
%FSLAX25Y25*%
%MOIN*%
G70*
G04*
G04 #@! TF.SameCoordinates,5A643F03-C439-4DF5-9915-15B1C7EAFC9B*
G04*
G04*
G04 #@! TF.FilePolarity,Negative*
G04*
G01*
G75*
%ADD16C,0.01000*%
%ADD125C,0.04000*%
%ADD126C,0.07937*%
%ADD127C,0.16598*%
%ADD128C,0.08724*%
G04:AMPARAMS|DCode=129|XSize=99.37mil|YSize=99.37mil|CornerRadius=0mil|HoleSize=0mil|Usage=FLASHONLY|Rotation=0.000|XOffset=0mil|YOffset=0mil|HoleType=Round|Shape=Relief|Width=10mil|Gap=10mil|Entries=4|*
%AMTHD129*
7,0,0,0.09937,0.07937,0.01000,45*
%
%ADD129THD129*%
%ADD130C,0.07543*%
G04:AMPARAMS|DCode=131|XSize=95.433mil|YSize=95.433mil|CornerRadius=0mil|HoleSize=0mil|Usage=FLASHONLY|Rotation=0.000|XOffset=0mil|YOffset=0mil|HoleType=Round|Shape=Relief|Width=10mil|Gap=10mil|Entries=4|*
%AMTHD131*
7,0,0,0.09543,0.07543,0.01000,45*
%
%ADD131THD131*%
%ADD132C,0.05181*%
D16*
X180118Y130905D02*
X221457D01*
Y6890D02*
Y130905D01*
X180118Y6890D02*
X221457D01*
X180118D02*
Y130905D01*
D125*
X-0Y222441D02*
X0Y13780D01*
X-0Y222441D02*
X0D01*
Y223344D01*
X236Y225135D01*
X703Y226880D01*
X1395Y228549D01*
X2298Y230113D01*
X3397Y231546D01*
X4675Y232823D01*
X6108Y233923D01*
X7672Y234826D01*
X9341Y235517D01*
X11085Y235985D01*
X12876Y236221D01*
X13780D01*
Y236220D02*
Y236221D01*
Y236220D02*
X531496Y236221D01*
X532399D01*
X534190Y235985D01*
X535935Y235517D01*
X537604Y234826D01*
X539168Y233923D01*
X540601Y232823D01*
X541878Y231546D01*
X542978Y230113D01*
X543881Y228549D01*
X544572Y226880D01*
X545040Y225135D01*
X545276Y223344D01*
Y222441D02*
Y223344D01*
X545276Y222441D02*
X545276D01*
X545276D02*
X545276Y13780D01*
X545276D02*
X545276D01*
X545276Y12876D02*
Y13780D01*
X545040Y11086D02*
X545276Y12876D01*
X544572Y9341D02*
X545040Y11086D01*
X543881Y7672D02*
X544572Y9341D01*
X542978Y6108D02*
X543881Y7672D01*
X541878Y4675D02*
X542978Y6108D01*
X540601Y3397D02*
X541878Y4675D01*
X539168Y2298D02*
X540601Y3397D01*
X537604Y1395D02*
X539168Y2298D01*
X535935Y703D02*
X537604Y1395D01*
X534190Y236D02*
X535935Y703D01*
X532399Y0D02*
X534190Y236D01*
X531496Y0D02*
X532399D01*
X13780Y0D02*
X531496Y0D01*
X13780Y0D02*
Y0D01*
X12876D02*
X13780D01*
X11085Y236D02*
X12876Y0D01*
X9341Y703D02*
X11085Y236D01*
X7672Y1395D02*
X9341Y703D01*
X6108Y2298D02*
X7672Y1395D01*
X4675Y3397D02*
X6108Y2298D01*
X3397Y4675D02*
X4675Y3397D01*
X2298Y6108D02*
X3397Y4675D01*
X1395Y7672D02*
X2298Y6108D01*
X703Y9341D02*
X1395Y7672D01*
X236Y11086D02*
X703Y9341D01*
X0Y12877D02*
X236Y11086D01*
X0Y12877D02*
Y13780D01*
D126*
X156398Y13088D02*
D03*
Y24899D02*
D03*
X444685Y168032D02*
D03*
Y158031D02*
D03*
X232677Y211417D02*
D03*
X220866D02*
D03*
X404134Y24409D02*
D03*
X439567D02*
D03*
Y12598D02*
D03*
X427756Y24409D02*
D03*
Y12598D02*
D03*
X415945Y24409D02*
D03*
Y12598D02*
D03*
X392323D02*
D03*
X380512D02*
D03*
X368701Y24409D02*
D03*
Y12598D02*
D03*
X79527Y211024D02*
D03*
X67716D02*
D03*
X79527Y222835D02*
D03*
X67716D02*
D03*
X41732Y14173D02*
D03*
X29921D02*
D03*
X207283Y13780D02*
D03*
Y25591D02*
D03*
X195473D02*
D03*
X296752Y13580D02*
D03*
X284941D02*
D03*
X273130D02*
D03*
X261319D02*
D03*
X400787Y168027D02*
D03*
Y158027D02*
D03*
X488976Y167933D02*
D03*
Y157933D02*
D03*
X356594Y168032D02*
D03*
Y158031D02*
D03*
X109153Y13088D02*
D03*
Y24899D02*
D03*
X120965Y13088D02*
D03*
Y24899D02*
D03*
D127*
X529429Y15650D02*
D03*
X17325Y220472D02*
D03*
X78642Y15650D02*
D03*
X326673D02*
D03*
X273622Y220472D02*
D03*
X529528D02*
D03*
D128*
X444685Y198031D02*
D03*
Y228031D02*
D03*
X400787Y228027D02*
D03*
X356594Y198031D02*
D03*
X400787Y198027D02*
D03*
X488976Y197933D02*
D03*
Y227933D02*
D03*
X356594Y228031D02*
D03*
D129*
X232677Y223228D02*
D03*
X220866D02*
D03*
X404134Y12598D02*
D03*
X392323Y24409D02*
D03*
X380512D02*
D03*
X195473Y13780D02*
D03*
X296752Y25391D02*
D03*
X284941D02*
D03*
X273130D02*
D03*
X261319D02*
D03*
X249508D02*
D03*
Y13580D02*
D03*
X132776Y13088D02*
D03*
Y24899D02*
D03*
X144587Y13088D02*
D03*
Y24899D02*
D03*
D130*
X164370Y41024D02*
D03*
Y51024D02*
D03*
Y71024D02*
D03*
Y81024D02*
D03*
Y91024D02*
D03*
D131*
Y61024D02*
D03*
D132*
X80610Y139961D02*
D03*
X76968Y139075D02*
D03*
X105118Y122343D02*
D03*
X103150Y125591D02*
D03*
X188681Y54429D02*
D03*
X35925Y170669D02*
D03*
X31791Y177559D02*
D03*
X480315Y131890D02*
D03*
X426862Y91035D02*
D03*
X474500D02*
D03*
X472532Y93988D02*
D03*
X464657D02*
D03*
X120820Y114124D02*
D03*
X136319Y88583D02*
D03*
X146752Y187303D02*
D03*
X193996Y159941D02*
D03*
X166339Y156791D02*
D03*
X104232Y96161D02*
D03*
X62205Y124016D02*
D03*
X318504Y192028D02*
D03*
X293602Y184557D02*
D03*
X317815Y205906D02*
D03*
X266535Y183563D02*
D03*
X245866Y206004D02*
D03*
X251870Y183071D02*
D03*
X248031Y165354D02*
D03*
X230315Y196850D02*
D03*
X230315Y179626D02*
D03*
X310630Y153150D02*
D03*
X188976Y230433D02*
D03*
X193898D02*
D03*
X197835D02*
D03*
X201772D02*
D03*
X203740Y227480D02*
D03*
X203740Y223543D02*
D03*
X129134Y130118D02*
D03*
X133465Y140354D02*
D03*
X130512Y137303D02*
D03*
X127629Y134055D02*
D03*
X242126Y148425D02*
D03*
X351378Y93996D02*
D03*
X349213Y133169D02*
D03*
X241975Y144632D02*
D03*
X437303Y133169D02*
D03*
X237894Y143307D02*
D03*
X393110Y132870D02*
D03*
X238189Y138878D02*
D03*
X392618Y105512D02*
D03*
X370177Y95571D02*
D03*
X180807Y123631D02*
D03*
X310433Y121161D02*
D03*
X369980Y42224D02*
D03*
X367431Y39675D02*
D03*
X364871Y37115D02*
D03*
X414173Y108268D02*
D03*
X361417Y150000D02*
D03*
X405610Y149996D02*
D03*
X449508Y150000D02*
D03*
X493602Y150000D02*
D03*
X480610Y128248D02*
D03*
X511909Y105118D02*
D03*
X431890Y132333D02*
D03*
X230709Y120866D02*
D03*
X346457Y116929D02*
D03*
X142618Y111221D02*
D03*
X142815Y115551D02*
D03*
X143012Y120079D02*
D03*
X181761Y148849D02*
D03*
X161516Y143405D02*
D03*
X424016Y105118D02*
D03*
X465551Y105512D02*
D03*
X387992Y132087D02*
D03*
X343799Y132579D02*
D03*
X192323Y91929D02*
D03*
Y85827D02*
D03*
X99902Y165157D02*
D03*
X157185Y134055D02*
D03*
X144390Y171555D02*
D03*
X131791Y164370D02*
D03*
X163091Y136713D02*
D03*
X162809Y132298D02*
D03*
X195866Y51181D02*
D03*
X210531Y59941D02*
D03*
X190748Y73819D02*
D03*
X104429Y87795D02*
D03*
X110894Y182910D02*
D03*
X106201Y147539D02*
D03*
X84744Y165650D02*
D03*
X90847Y53347D02*
D03*
X93307Y139665D02*
D03*
X68602Y76870D02*
D03*
X57087Y94784D02*
D03*
X73327Y119980D02*
D03*
X509933Y91035D02*
D03*
X521744D02*
D03*
X513870D02*
D03*
X517807D02*
D03*
X519776Y93988D02*
D03*
X511902D02*
D03*
X515839D02*
D03*
X424894D02*
D03*
X418988Y91035D02*
D03*
X422925D02*
D03*
X415051D02*
D03*
X417020Y93988D02*
D03*
X420957D02*
D03*
X378445Y105610D02*
D03*
X456693Y104429D02*
D03*
X433957Y42224D02*
D03*
X458071Y110925D02*
D03*
X478839Y161319D02*
D03*
X483169Y146161D02*
D03*
X504134Y106595D02*
D03*
X434547Y161417D02*
D03*
X435532Y129331D02*
D03*
X438878Y146260D02*
D03*
X390650Y161413D02*
D03*
X391634Y129326D02*
D03*
X394980Y146255D02*
D03*
X371752Y106693D02*
D03*
X346457Y161417D02*
D03*
X492520Y39370D02*
D03*
X468898Y14961D02*
D03*
X298327Y48226D02*
D03*
X263277Y53344D02*
D03*
Y65155D02*
D03*
X248917Y52556D02*
D03*
Y40745D02*
D03*
X254429Y75886D02*
D03*
X260531Y110037D02*
D03*
X248917Y58462D02*
D03*
Y64367D02*
D03*
X468595Y93988D02*
D03*
X470563Y91035D02*
D03*
X466626D02*
D03*
X462689D02*
D03*
X347441Y129331D02*
D03*
X350787Y146260D02*
D03*
M02*
