M48
;Layer_Color=9474304
;FILE_FORMAT=2:5
INCH,TZ
;TYPE=PLATED
T1F00S00C0.00787
T2F00S00C0.01181
;TYPE=NON_PLATED
T3F00S00C0.12598
T4F00S00C0.33465
%
T01
X7874Y11810
X19684
X31496
X43307
X55118
X66929
X78740
X90551
X102362
X125984
X137795
X121555Y78839
X87992
X54429Y78839
X20866
X19684Y35432
X31496
X37401Y23621
X49212
X25590
X13779
X7874Y35432
X149606Y11810
X173228
X185039
X196850
X208661
X220472
X232283
X244094
X255905
X267716
X279527
X291338
X297243Y23621
X285433
X273622
X261810
X249999
X238188
X226377
X214566
X202755
X190944
X179133
X167322
X155118Y78839
X188681
X222244
X255807
X289370
X267716Y35432
X255905
X244094
X232283
X309054Y23621
X303149Y11810
X326771
X338582
X350393
X374015
X382677Y12992
X384646
X386614
X388583
X390551
X392520
Y14961
X390551
X388583
X386614
X384646
X382677
Y16929
X384646
X386614
X388583
X390551
X392520
Y18898
X390551
X388583
X386614
X384646
X382677
Y20866
X384646
X386614
X388583
X390551
X392520
Y22835
X394488
Y20866
X396457
Y22835
X398425
X400394
Y20866
Y18898
Y16929
Y14961
Y12992
X398425
X396457
Y14961
X398425
Y16929
X396457
Y18898
X398425
Y20866
Y24803
X396457
Y26772
X398425
Y28740
X400394
Y26772
Y24803
X394488Y24803
Y26772
Y28740
Y30709
X396457
Y28740
X398425Y30709
X397637Y35432
X394488Y18898
Y16929
Y14961
Y12992
X390059Y78839
X356496
X322933
X326771Y106299
X338582
X350393
X362204
X374015
X385826
X397637
X403543Y118110
X391732
X379921
X368110
X356299
X344488
X332677
X320866
X309054
X314960Y129921
X326771
X338582
X344488Y131004
X348819Y130709
Y141535
X344488Y141831
Y152657
X348819Y152362
X359252Y147244
X363583Y146949
Y157776
X359252Y158071
X356299Y165354
X368110
X374015Y177165
X362204
X350393
X338582
X326771
X314960
X303149
Y188976
X314960
X326771
X338582
X350393
X362204
X374015
X368110Y200787
X356299
X344488
X332677
X320866
X309054
X314960Y212598
X303149
X309054Y224409
X320866
X326771Y236220
X314960
X344488Y229724
X348819Y229429
Y218602
X344488Y218898
X350393Y212598
X362204
X363583Y224016
X359252Y224311
Y235138
X363583Y234842
X382087Y232480
X386811
X391732Y224409
X403543
X397637Y212598
X403543Y200787
X391732
X393205Y189213
X393602Y175000
X391732Y165354
X403543
X397637Y153543
X403543Y141732
X391732
X391831Y130217
X374015Y129921
X362204
X363583Y136122
X359252Y136417
X344488Y165354
X332677
X320866
X309054
X303149Y129921
Y106299
X314960
X403543Y94488
X338582Y212598
X293160Y210876
X289222
X289222Y218947
X285433Y224409
X279527Y236220
X267716
X279527Y212598
X285433Y200787
Y188976
X270177Y189311
X261810Y188976
X263976Y184153
X277362Y179134
X261810Y165354
X255905Y153543
X261810Y141732
X249999
X255905Y129921
X267716
X279527
X291338
X297243Y118110
X291338Y106299
X279527
X267716
X255905
X244094
X232283
X220472
X226377Y118110
X238188
X249999
X261810
X273622
X285433Y141732
X244094Y129921
X234350Y127953
X230335Y128032
X226181Y129921
Y133858
X208661Y153543
X190944Y165354
X181746Y177835
X178740Y176181
X175634Y174409
X172464Y173228
X168735Y171931
X166176Y169962
X173228Y153543
X162216Y147563
Y143331
Y139098
X150110
X150110Y143331
X154047Y147563
X154047Y151795
X145878Y152779
X147343Y157776
X150307Y126303
Y124335
Y122366
X156213Y124335
X158181
Y126303
X156213
X162287Y127039
Y125071
X164157Y125858
Y127827
X166126Y127039
Y125071
X165650Y118504
X169291Y116535
X174409Y117126
X160236Y120943
X220472Y177165
X225492Y184055
X225295Y189370
X233169Y179311
X244094Y177165
X249999Y188976
X297243Y200787
X118012Y207382
X108267Y212598
X96456
Y224409
X84645
X72834
X68898Y232283
X64567Y232579
X54134Y237697
X49803Y237992
X43307Y236220
X31496
X7874
X13779Y224409
X19684Y212598
X7874
X13779Y200787
X20180Y189213
X31496Y188976
Y177165
X21063Y175945
X7874Y177165
X13779Y165354
X19684Y153543
X7874
X13779Y141732
X7874Y129921
X21063Y128780
X31496Y129921
X43307
X55118
X54528Y140945
X50197Y141240
X49803Y152067
X54134Y151772
Y162599
X49803Y162894
X55118Y177165
X66929
X68898Y168012
X64567Y168307
Y157480
X68898Y157185
Y146358
X64567Y146653
X66929Y129921
X78740
X84645Y141732
X96456
X102362Y153543
X102756Y164567
X93731Y167618
X91437Y169783
X90915Y175689
X94261Y174508
X96260Y172047
X87569Y177657
X78740Y177165
X84645Y188976
X96456
X103150Y183071
X116929
X120078Y188976
X116929Y164567
X114173Y153543
X126390Y151008
X130524
X134756
X138988Y151106
X136811Y157776
X134756Y142937
X130524Y142937
X126390Y142937
X120078Y141732
X123535Y134866
X123437Y122661
X114173Y129921
X102362
X96456Y118110
X84645
X72834
X54638Y102118
Y100150
Y98181
Y96213
Y94244
Y92276
X52550Y91580
Y93548
Y95517
X52550Y97485
X52550Y99454
Y101422
X50462Y100726
Y98758
Y96789
Y94821
Y92852
X52866Y84500
X33870Y84402
X28161Y84795
X43307Y177165
Y188976
X55118
X72834
Y200787
X61023
X49212
X37401
X55118Y212598
X66929
X78740
X90551Y200787
Y236220
X102362
X120078
X114173Y224409
X54134Y226870
X49803Y227165
X90551Y153543
X138988Y138901
X120078Y248031
X117618Y251673
X118286Y256988
X117323Y261929
X125984Y259842
X131889Y271653
X125984Y283464
X131889Y295275
X124213Y305118
X124213Y313189
X120276
X120078Y318897
X131889
X125984Y330708
X114173
X108267Y318897
X102362Y307086
X96456Y295275
X86614Y295276
Y289370
Y283465
Y277559
X96456Y271653
Y248031
X108267
X80315Y251929
Y256929
Y261929
X68898Y264764
X64567Y265059
Y254232
X68898Y253937
Y243110
X64567Y243406
X54134Y248524
X49803Y248819
Y259646
X54134Y259350
Y270177
X49803Y270473
Y281299
X54134Y281004
Y291831
X49803Y292126
Y302953
X54134Y302658
X43307Y307086
X31496
X19684
X20180Y315669
X19684Y330708
X31496
X37401Y318897
X59449Y318996
Y320965
Y322933
Y324902
X61417
Y322933
Y320965
Y318996
X63386
Y320965
Y322933
Y324902
X65354
Y322933
Y320965
Y318996
X67323
Y320965
Y322933
Y324902
X69291
Y322933
Y320965
Y318996
X71260
Y320965
Y322933
Y324902
X73228
Y322933
Y320965
Y318996
X68898Y308071
X64567Y308366
Y297539
X68898Y297244
Y286417
X64567Y286713
Y275886
X68898Y275591
X37401Y271653
X31496Y259842
X20180Y260630
X7874Y259842
X13779Y271653
X19684Y283464
X7874
X13779Y295275
X7874Y307086
Y330708
Y354330
X19684
X13779Y366141
X19684Y377952
X7874
X82579Y381831
X102362Y377952
X125984
X131889Y389763
X120078
Y366141
X131889
X125984Y354330
X131889Y342519
X102362Y354330
X82579Y348268
X91929Y332382
X92028Y329035
X93110Y324902
X96358Y326870
X20180Y244252
X267716Y259842
X279527
X288287Y266929
Y271929
X296112Y262136
X285433Y248031
X279527Y283464
X267716
Y307086
X279527
Y330708
X267716
Y354330
X279527
Y377952
X267716
X285433Y389763
X297243
X304181Y366803
X306150
X308118
X310087
X312055
X314024
X314720Y364715
X312751
X310783
X308814
X306846
X304877
X305573Y362627
X307541
X309510
X311478
X313447
X321799Y365031
X330807Y363543
X321898Y346035
X321504Y340327
X316189Y340031
X314220
X312252
X310283
X308315
X306347
X304378
X302409
X300441
X301425Y338063
X303394
X305362
X307331
X309299
X311268
X313236
X315205
X314220Y336094
X316189
X312252
X310283
X308315
X306347
X304378
X302410
X300441
X301425Y342000
X303394
X305362
X307331
X309299
X311268
X313236
X315205
X330807Y329980
X326771Y307086
X338582
X350393
X362204
X363583Y299803
X359252Y300098
Y289272
X363583Y288976
Y278150
X359252Y278445
X356299Y271653
X359252Y267618
X363583Y267323
Y256496
X359252Y256791
Y245965
X363583Y245669
X348819Y251083
X344488Y251378
Y262205
X348819Y261910
X339075Y262106
X331705Y266898
X333120Y272136
X344488Y273031
X348819Y272736
Y283563
X344488Y283858
X338582Y283464
X344488Y294685
X348819Y294390
X332677Y295275
X320866
X309054
X314960Y307086
X303149
Y283464
X309054Y271653
X326771Y259842
X320866Y248031
X344488Y240551
X348819Y240256
X393110Y243110
X393205Y260630
X391732Y271653
X403543
X397637Y283464
X403543Y295275
X391732
X386910Y303937
X382182Y303898
X374015Y307086
X379921Y318897
X368110
X374015Y330708
X379921Y342519
X391732
X403543
X397637Y354330
X403543Y366141
X391732
Y389763
X403543
X397637Y330708
X393205Y315669
X397637Y307086
Y401574
X403543Y413385
X391732
Y437007
X403543
X397637Y448818
X403543Y460629
X391732
X397637Y472440
X403543Y484251
X391732
X379921
X368110
X374015Y496062
X379921Y507873
X391732
X403543
X397637Y519684
Y543306
Y496062
X330807Y497795
X303149Y496062
X309054Y507873
X314960Y519684
X303149
X309054Y531495
X314960Y543306
X303149
X330807Y531358
X328346Y467421
X302658Y460433
X303543Y457382
X305807Y452362
X307874Y448721
X330807Y430669
X331740Y396921
X303149Y401574
X297243Y413385
X285433
X282283Y420472
X290945Y420079
X290551Y430709
X281496
X283413Y436882
X275342Y439736
X275244Y443870
Y448102
X267272Y448102
Y443870
Y439736
X261810Y437007
X249999
X238188
X226377
X214566
X202755
X190944
X179133
X185039Y448818
X196850
X208661
X220472
X232283
X244094
X259299Y447047
X267173Y452334
X265008Y459224
X261810Y460629
X266484Y467394
X270717Y467393
X274949Y463456
X279181Y463456
X279181Y452335
X279181Y475563
X279528Y478740
X274949Y475563
X270717
X273622Y484251
X261810
X249999
X238188
X226377
X214566
X202755
X190944
X179133
X185039Y496062
X196850
X208661
X220472
X232283
X244094
X255905
X267716
X279527
X291338
X291240Y479571
X293209
X292421Y477602
X290453
X291240Y475732
X293209
X293945Y471724
X291976
Y469756
X293945
Y463653
X295913
X291976
X295421Y436882
X271260Y430315
X271654Y420472
X273130Y411614
X267716Y401574
X279527
X251181Y402165
X232283Y401574
X220472
X208661
X196850
X185039
X190944Y413385
X202755
X214566
X226377
X238188
X244094Y425196
X255905
X232283
X220472
X208661
X196850
X185039
X173228
X161024Y425197
X149606Y425196
X155511Y413385
X166339Y402461
X179133Y413385
X173228Y448818
X161024Y448819
X149606Y448818
X146902Y445795
X148280Y453965
X146213Y460854
X146114Y465087
Y469319
Y473453
X149606Y482283
X161417
X161024Y472441
X173228Y472440
X185039
X196850
X208661
X220472
X232283
X244094
X249999Y460629
X238188
X226377
X214566
X202755
X190944
X179133
X173228Y496062
X161417
X149606
X155511Y507873
X167322
X179133
X190944
X202755
X214566
X226377
X238188
X249999
X261810
X273622
X285433
X297243
X291338Y519684
X279527
X267716
X255905
X244094
X232283
X220472
X208661
X196850
X185039
X173228
X161417
X149606
X155511Y531495
X167322
X179133
X190944
X202755
X214566
X226377
X238188
X249999
X261810
X273622
X285433
X297243
X291338Y543306
X279527
X267716
X255905
X244094
X232283
X220472
X208661
X196850
X185039
X173228
X161417
X137795
X143700Y531495
X131889
X137795Y519684
X125984
X114173
X120078Y507873
X131889
X143700
X137795Y496062
X125984
X114173
X108267Y507873
X81646Y516268
X82579Y549646
X91587Y548158
X98666Y548474
X100635
X102603
X104572
X106540
X108509
X107813Y550562
X105844
X103876
X101907
X99939
X99362Y546386
X101331
X103299
X105268
X107236
X109205
X121850Y480217
X125984Y482283
X129973Y476307
X138043Y473453
X138043Y469319
X138043Y465087
X138240Y460854
X131496Y460236
X134205Y449732
X138437Y449732
X142669Y445795
Y437626
X138437
X134205
X122146Y437654
X120177
X120965Y435784
X122933
X122146Y433815
X120177
X122441Y427756
X121409Y441760
X119441
X120425Y443630
X122394
X121409Y449536
X119441
X117473
X86319Y445866
X82579Y415394
X108267Y413385
X120078
X114173Y401574
X102362
X137795
X143700Y413385
X139331Y427659
X137795Y482283
X82579Y482520
X37401Y507873
X13779
X19684Y519684
X7874
Y543306
X19684
Y496062
X7874
Y472440
X19684
X25590Y460629
X13779
X19684Y448818
X31496
X37401Y437007
X25590
X13779
X19684Y425196
X31496
X43307
X37401Y413385
X25590
X13779
X19684Y401574
X31496
X43307
X7874
Y425196
Y448818
X13779Y555117
X25590
X31496Y566928
X19684
X7874
X13779Y578739
X25590
X37401
X43307Y590550
X31496
X19684
X7874
X13779Y602361
X25590
X37401
X49212
X55118Y614172
X66929
X78740
X90551
X102362
X114173
X125984
X137795
X143700Y625983
X131889
X120078
X108267
X96456
X84645
X72834
X61023
X49212
X25590
X13779
X19684Y614172
X7874
X82579Y583209
X91882Y572862
X97197Y573158
X99165
X101134
X103102
X105071
X107039
X109008
X110976
X112945
X111961Y575126
X109992
X108024
X106055
X104087
X102118
X100150
X98181
X99165Y577095
X101134
X103102
X105071
X107039
X109008
X110976
X112945
X111961Y571189
X109992
X108024
X106055
X104087
X102118
X100150
X98181
X97197Y577095
X91488Y567154
X120078Y555117
X131889
X143700
X137795Y566928
X143700Y578739
X131889
X137795Y590550
X143700Y602361
X131889
X155511
X167322
X179133
X190944
X196850Y590550
X185039
X173228
X161417
X149606
X155511Y578739
X167322
X179133
X190944
X202755
X214566
X226377
X238188
X249999
X261810
X273622
X285433
X297243
X291338Y590550
X279527
X267716
X255905
X244094
X232283
X220472
X208661
Y566928
X196850
X185039
X173228
X161417
X149606
X155511Y555117
X167322
X179133
X190944
X202755
X214566
X226377
X238188
X249999
X261810
X273622
X285433
X297243
X291338Y566928
X279527
X267716
X255905
X244094
X232283
X220472
X226377Y602361
X238188
X249999
X261810
X273622
X285433
X297243
X291338Y614172
X279527
X267716
X255905
X244094
X232283
X238188Y625983
X249999
X261810
X273622
X285433
X297243
X226377
X179133
X167322
X155511
X161417Y614172
X173228
X185039
X149606
X303149
X314960
X326771
X338582
X350393
X356299Y625983
X344488
X332677
X320866
X309054
Y602361
X320866
X332677
X344488
X344094Y594193
Y592224
Y590256
Y588287
X342126
Y590256
Y592224
Y594193
X340158
Y592224
Y590256
Y588287
X346063
Y590256
Y592224
Y594193
X348031
Y592224
Y590256
Y588287
X350000
Y590256
Y592224
Y594193
X351969
Y592224
Y590256
Y588287
X353937
Y590256
Y592224
Y594193
X355906
Y592224
Y590256
Y588287
X357874
Y590256
Y592224
Y594193
X362204Y590550
X374015
X379921Y602361
X391732
X403543
X397637Y614172
X385826
X391732Y625983
X403543
X379921
X368110Y602361
X356299
X326771Y590550
X314960
X303149
X309054Y578739
X320866
X314960Y566928
X303149
X309054Y555117
X330807Y564921
X397637Y566928
X403543Y555117
X391732
X397637Y590550
T02
X31102Y63090
X26673Y68405
X60236
X64665Y63090
X98228Y63091
X93799Y68405
X127362
X131791Y63091
X165354
X160925Y68405
X194488
X198917Y63091
X232480
X228051Y68405
X261614
X266043Y63091
X299606
X295177Y68405
X328740
X333169Y63091
X366732
X362303Y68405
X395866
X400295Y63091
X71555Y339409
X66240Y334980
Y368543
X71555Y372972
X341831Y372401
X347146Y376831
Y343268
X341831Y338839
Y405965
X347146Y410394
Y443957
X341831Y439528
Y473091
X347146Y477520
Y511083
X341831Y506653
Y540216
X347146Y544646
X71555Y540788
X66240Y536358
Y502795
X71555Y507225
Y473662
X66240Y469232
Y435669
X71555Y440098
Y406535
X66240Y402106
Y569921
X71555Y574351
X341831Y573779
X347146Y578209
T03
X288189Y122047
X40157Y122047
X205512Y287402
X288189
X40157Y618110
X370866Y618110
T04
X205512Y122047
Y618110
M30
